<svg width="16" height="16" viewBox="0 0 16 16" fill="none" xmlns="http://www.w3.org/2000/svg">
<path d="M16 7.19014C16 6.26447 15.2469 5.51138 14.3212 5.51138C13.3956 5.51138 12.6425 6.26447 12.6425 7.19014C12.6425 7.61123 12.7987 7.99625 13.0556 8.29123L11.3202 9.88324L9.10691 5.3092L10.4005 3.78978L8.00909 0.980835L5.61775 3.78985L6.85375 5.24163L4.65622 9.8572L2.94516 8.29036C3.20175 7.99545 3.3576 7.6108 3.3576 7.19014C3.3576 6.26447 2.60451 5.51138 1.67884 5.51138C0.753091 5.51138 0 6.26447 0 7.19014C0 8.04789 0.646909 8.75705 1.4784 8.85654L1.9928 15.0191H14.0073L14.5217 8.85654C15.3531 8.75705 16 8.04789 16 7.19014Z" fill="#ffb369"/>
</svg>
