<svg width="38" height="32" viewBox="0 0 38 32" fill="none" xmlns="http://www.w3.org/2000/svg">
<path d="M7.0011 11.6852V5.73634C7.0011 4.48019 7.50012 3.27548 8.38835 2.38724C9.27659 1.499 10.4813 1 11.7374 1H32.2648C33.5209 1 34.7256 1.499 35.6139 2.38724C36.5021 3.27548 37.0011 4.48019 37.0011 5.73634V26.2637C37.0011 27.5198 36.5021 28.7245 35.6139 29.6128C34.7256 30.501 33.5209 31 32.2648 31H11.7374C10.4813 31 9.27659 30.501 8.38835 29.6128C7.50012 28.7245 7.0011 27.5198 7.0011 26.2637V20.1064" stroke="url(#paint0_linear_19_283)" stroke-width="1.5" stroke-miterlimit="10"/>
<path d="M2.53003 15.9952H25.2645" stroke="white" stroke-width="1.5" stroke-linecap="round" stroke-linejoin="round"/>
<path d="M18.8988 9.73383L25.2644 16.0995L19.1072 22.2567" stroke="white" stroke-width="1.5" stroke-linecap="round" stroke-linejoin="round"/>
<defs>
<linearGradient id="paint0_linear_19_283" x1="6.29065" y1="16.0047" x2="37.7116" y2="16.0047" gradientUnits="userSpaceOnUse">
<stop stop-color="#46ADFF"/>
<stop offset="1" stop-color="#A73BFF"/>
</linearGradient>
</defs>
</svg>
