<svg width="129" height="22" viewBox="0 0 129 22" fill="none" xmlns="http://www.w3.org/2000/svg">
<path d="M9.31615 11.3864V15.5907L6.58653 17.1718H0V14.4209H6.09024V12.6059H2.72962L0 11.0319V6.98357L2.72962 5.40961H9.11054V8.16048H3.25427V9.80534H6.61489L9.31615 11.3864Z" fill="white"/>
<path d="M29.4799 6.86302V17.1647H26.261V8.04705H22.8224V17.1718H19.6036V8.04705H16.165V17.1718H12.9462V5.28906H15.6049L16.165 6.2533L17.8382 5.28906H20.1141L22.3049 6.55816L24.5169 5.28906H26.7715L29.4799 6.86302Z" fill="white"/>
<path d="M42.8727 14.4209V17.1718H35.8395L33.1099 15.5907V6.86301L35.8395 5.28195H40.1431L42.8727 6.86301V12.4853H36.3287V14.4138L42.8727 14.4209ZM36.3287 8.03994V10.0606H39.6468V8.03994H36.3287Z" fill="white"/>
<path d="M49.7287 17.1718H46.5099V0H49.7287V6.25331L51.4019 5.28907H54.479L57.2086 6.87013V17.1718H53.9827V8.04706H49.7287V17.1718Z" fill="white"/>
<path d="M71.3175 15.7112L68.5879 17.2852H63.5753L60.8528 15.7112V6.86301L63.5753 5.28195H68.5879L71.3175 6.86301V15.7112ZM64.0716 8.04704V14.5343H68.0916V8.04704H64.0716Z" fill="white"/>
<path d="M74.4725 20.4189V18.767L77.2021 17.1718L74.9475 15.853V13.7261L76.6136 12.7618L74.9475 11.826V7.00484L77.6771 5.43088H85.6462V6.93394L83.5192 8.18175L84.9372 9.03255V11.5707L82.2076 13.1447H78.1592V14.6619H82.9095L85.6391 16.2359V20.426L82.9095 22H77.195L74.4725 20.4189ZM82.4274 17.1718H77.6984V19.2988H82.4274V17.1718ZM78.1734 8.04706V10.4931H81.7184V8.04706H78.1734Z" fill="white"/>
<path d="M96.3236 8.16047H92.2752V17.1718H89.0564V5.44504H91.7222L92.2823 6.40926L93.9555 5.44504H96.3306L96.3236 8.16047Z" fill="white"/>
<path d="M101.272 17.2852L98.5427 15.7112V11.6416L101.272 10.0677H105.08V8.16047H99.7197V5.44504H105.576L108.306 7.019V17.2852H106.753L105.08 16.321L103.414 17.2852H101.272ZM101.769 12.535V14.5839H105.08V12.535H101.769Z" fill="white"/>
<path d="M128.498 6.86302V17.1647H125.272V8.04705H121.84V17.1718H118.614V8.04705H115.183V17.1718H111.957V5.28906H114.616L115.183 6.2533L116.849 5.28906H119.111L121.294 6.55816L123.506 5.28906H125.754L128.498 6.86302Z" fill="white"/>
</svg>
