<svg width="24" height="24" viewBox="0 0 24 24" fill="none" xmlns="http://www.w3.org/2000/svg">
<g clip-path="url(#clip0_226_5)">
<path d="M17.6079 1.1481C19.0102 1.07988 20.3838 1.57185 21.434 2.51963C22.4947 3.47694 23.1392 4.82139 23.2267 6.25952C23.2276 6.27369 23.2282 6.28788 23.2287 6.30208V6.32337V16.6727C23.2287 16.694 23.228 16.7153 23.2267 16.7365C23.1392 18.1746 22.4947 19.5191 21.4339 20.4765C20.3731 21.4338 18.9823 21.9261 17.5655 21.8457C17.0034 21.8138 16.5731 21.3254 16.6045 20.7547C16.6359 20.184 17.117 19.7472 17.6791 19.7791C18.5582 19.8289 19.4213 19.5234 20.0795 18.9295C20.7245 18.3473 21.1215 17.5344 21.1883 16.6623L21.19 16.6382V6.35784L21.1883 6.33375C21.1222 5.47049 20.7326 4.66536 20.0992 4.08455L20.0796 4.06666C19.4213 3.4726 18.5583 3.16712 17.6791 3.21698C17.6665 3.21769 17.6539 3.21817 17.6413 3.21841L17.6223 3.21859H6.40955C6.39059 3.21859 6.37164 3.21805 6.35271 3.21698C5.47352 3.16712 4.61051 3.4726 3.95228 4.06664C3.2941 4.66064 2.89424 5.49482 2.83992 6.38721C2.8052 6.95769 2.32154 7.39159 1.75965 7.35633C1.19775 7.32108 0.770398 6.83003 0.805121 6.25954C0.892657 4.82136 1.53712 3.47691 2.59786 2.51961C3.64801 1.57186 5.02164 1.07988 6.4239 1.1481L6.43602 1.14875H17.5958L17.6079 1.1481Z" fill="white"/>
<path d="M10.344 12.1771C11.8675 13.7302 12.9905 15.641 13.6132 17.7404C13.7755 18.2877 13.4701 18.8649 12.931 19.0297C12.3919 19.1945 11.8234 18.8845 11.6611 18.3371C11.1351 16.5638 10.1865 14.9497 8.89951 13.6377L8.85429 13.5918C7.55939 12.2625 5.95567 11.2855 4.19098 10.7511C3.65151 10.5877 3.34463 10.0112 3.50555 9.46349C3.66648 8.91576 4.23426 8.60419 4.77374 8.76758C6.8455 9.39503 8.73019 10.5368 10.2577 12.0892L10.3038 12.1364L10.344 12.1771Z" fill="white"/>
<path d="M0.878729 17.4231C0.99965 16.8648 1.5434 16.5118 2.09322 16.6346C3.04627 16.8474 3.91909 17.3336 4.60808 18.0353C5.29696 18.7371 5.77296 19.6249 5.9795 20.5932C6.09866 21.1518 5.74922 21.7028 5.19901 21.8237C4.6543 21.9435 4.11702 21.597 3.99071 21.048L3.98701 21.0313C3.86308 20.4503 3.57745 19.9176 3.16414 19.4965C2.75714 19.082 2.2432 18.7928 1.68169 18.6622L1.65533 18.6562C1.1055 18.5334 0.757808 17.9813 0.878729 17.4231Z" fill="white"/>
<path d="M2.20811 13.4388C2.36269 12.8892 2.92683 12.5708 3.46816 12.7278C4.97031 13.1633 6.33824 13.9813 7.4422 15.1041C8.54601 16.2269 9.34908 17.617 9.77531 19.143C9.92891 19.6929 9.61436 20.2651 9.07275 20.4211C8.53114 20.577 7.96757 20.2576 7.81398 19.7078C7.48247 18.5209 6.85786 17.4397 5.99935 16.5664C5.14066 15.6931 4.07667 15.0568 2.90839 14.7181C2.36706 14.5612 2.05353 13.9884 2.20811 13.4388Z" fill="white"/>
</g>
<defs>
<clipPath id="clip0_226_5">
<rect width="24" height="24" fill="white"/>
</clipPath>
</defs>
</svg>
