<svg width="32" height="32" viewBox="0 0 32 32" fill="none" xmlns="http://www.w3.org/2000/svg">
<g clip-path="url(#clip0_21_302)">
<path d="M1 20.1064V26.2637C1 27.5198 1.499 28.7245 2.38724 29.6128C3.27548 30.501 4.48019 31 5.73634 31H26.2637C27.5198 31 28.7245 30.501 29.6128 29.6128C30.501 28.7245 31 27.5198 31 26.2637V5.73634C31 4.48019 30.501 3.27548 29.6128 2.38724C28.7245 1.499 27.5198 1 26.2637 1H5.73634C4.48019 1 3.27548 1.499 2.38724 2.38724C1.499 3.27548 1 4.48019 1 5.73634V20.1064Z" stroke="url(#paint0_linear_21_302)" stroke-width="1.5" stroke-miterlimit="10"/>
<path d="M15.9952 14.4986C18.0042 14.4986 19.6328 12.87 19.6328 10.8611C19.6328 8.85214 18.0042 7.22357 15.9952 7.22357C13.9863 7.22357 12.3577 8.85214 12.3577 10.8611C12.3577 12.87 13.9863 14.4986 15.9952 14.4986Z" stroke="white" stroke-width="1.5" stroke-linecap="round" stroke-linejoin="round"/>
<path d="M15.9952 17.5867C16.6545 17.5867 17.3074 17.7165 17.9165 17.9688C18.5256 18.2211 19.0791 18.5909 19.5453 19.0571C20.0115 19.5233 20.3813 20.0768 20.6336 20.6859C20.8859 21.295 21.0158 21.9479 21.0158 22.6072V24.7764H10.9842V22.6072C10.9842 21.2757 11.5131 19.9987 12.4547 19.0571C13.3962 18.1156 14.6732 17.5867 16.0047 17.5867H15.9952Z" stroke="white" stroke-width="1.5" stroke-linecap="round" stroke-linejoin="round"/>
</g>
<defs>
<linearGradient id="paint0_linear_21_302" x1="0.289548" y1="16.0047" x2="31.7105" y2="16.0047" gradientUnits="userSpaceOnUse">
<stop stop-color="#46ADFF"/>
<stop offset="1" stop-color="#A73BFF"/>
</linearGradient>
<clipPath id="clip0_21_302">
<rect width="32" height="32" fill="white"/>
</clipPath>
</defs>
</svg>
