<svg width="24" height="24" viewBox="0 0 24 24" fill="none" xmlns="http://www.w3.org/2000/svg">
<path d="M9.12997 3.82007H6.54999C5.75434 3.82007 4.99126 4.13615 4.42865 4.69876C3.86604 5.26137 3.54999 6.02442 3.54999 6.82007V9.41006" stroke="white" stroke-linecap="round" stroke-linejoin="round"/>
<path d="M19.91 9.39005V6.80005C19.91 6.0044 19.594 5.24132 19.0313 4.67871C18.4687 4.1161 17.7057 3.80005 16.91 3.80005H14.34" stroke="white" stroke-linecap="round" stroke-linejoin="round"/>
<path d="M14.34 20.1701H16.93C17.7257 20.1701 18.4887 19.854 19.0513 19.2914C19.6139 18.7288 19.93 17.9657 19.93 17.1701V14.5801" stroke="white" stroke-linecap="round" stroke-linejoin="round"/>
<path d="M3.57001 14.6001V17.1901C3.57001 17.9857 3.88609 18.7488 4.4487 19.3114C5.01131 19.874 5.77436 20.1901 6.57001 20.1901H9.15002" stroke="white" stroke-linecap="round" stroke-linejoin="round"/>
<path d="M1.17999 11.9501H22.81" stroke="white" stroke-linecap="round" stroke-linejoin="round"/>
<path d="M14.4 7.64001H9.08001C8.14665 7.64001 7.39001 8.39665 7.39001 9.33001V14.65C7.39001 15.5834 8.14665 16.34 9.08001 16.34H14.4C15.3334 16.34 16.09 15.5834 16.09 14.65V9.33001C16.09 8.39665 15.3334 7.64001 14.4 7.64001Z" fill="white"/>
</svg>
