<svg width="32" height="32" viewBox="0 0 32 32" fill="none" xmlns="http://www.w3.org/2000/svg">
<g clip-path="url(#clip0_76_469)">
<path d="M15.9953 19.7843C18.0879 19.7843 19.7843 18.0879 19.7843 15.9953C19.7843 13.9026 18.0879 12.2062 15.9953 12.2062C13.9026 12.2062 12.2062 13.9026 12.2062 15.9953C12.2062 18.0879 13.9026 19.7843 15.9953 19.7843Z" stroke="white" stroke-width="1.5" stroke-linecap="round" stroke-linejoin="round"/>
<path d="M26.2637 1H5.73634C3.12053 1 1 3.12053 1 5.73634V26.2637C1 28.8795 3.12053 31 5.73634 31H26.2637C28.8795 31 31 28.8795 31 26.2637V5.73634C31 3.12053 28.8795 1 26.2637 1Z" stroke="url(#paint0_linear_76_469)" stroke-width="1.5" stroke-miterlimit="10"/>
<path d="M24.8617 13.504H23.6587C23.5352 13.1069 23.38 12.7204 23.1945 12.3483L24.0376 11.4957C24.2111 11.3187 24.3084 11.0806 24.3084 10.8327C24.3084 10.5847 24.2111 10.3466 24.0376 10.1696L21.8304 7.96243C21.6534 7.78887 21.4153 7.69165 21.1673 7.69165C20.9194 7.69165 20.6813 7.78887 20.5043 7.96243L19.7085 8.75814C19.3233 8.55005 18.9208 8.37573 18.5055 8.23714V7.18567C18.5055 6.93444 18.4057 6.6935 18.2281 6.51585C18.0504 6.3382 17.8095 6.2384 17.5583 6.2384H14.4323C14.181 6.2384 13.9401 6.3382 13.7624 6.51585C13.5848 6.6935 13.485 6.93444 13.485 7.18567V8.28451C13.0666 8.42298 12.6609 8.59729 12.2725 8.8055L11.4863 8.0098C11.3092 7.83623 11.0711 7.73901 10.8232 7.73901C10.5752 7.73901 10.3372 7.83623 10.1601 8.0098L7.94348 10.2169C7.76992 10.394 7.6727 10.6321 7.6727 10.88C7.6727 11.128 7.76992 11.366 7.94348 11.5431L8.78654 12.3957C8.60015 12.7662 8.44797 13.1531 8.33187 13.5513H7.11936C6.86813 13.5513 6.62718 13.6511 6.44953 13.8288C6.27188 14.0064 6.1721 14.2474 6.1721 14.4986V17.6056C6.1721 17.8569 6.27188 18.0978 6.44953 18.2754C6.62718 18.4531 6.86813 18.5529 7.11936 18.5529H8.43605C8.56228 18.9169 8.71424 19.2714 8.89075 19.6138L7.94348 20.5611C7.76992 20.7382 7.6727 20.9763 7.6727 21.2242C7.6727 21.4722 7.76992 21.7102 7.94348 21.8873L10.1601 24.0944C10.3372 24.268 10.5752 24.3652 10.8232 24.3652C11.0711 24.3652 11.3092 24.268 11.4863 24.0944L12.4809 23.0903C12.8047 23.2543 13.1403 23.3936 13.485 23.5071V24.9185C13.485 25.1698 13.5848 25.4107 13.7624 25.5884C13.9401 25.766 14.181 25.8658 14.4323 25.8658H17.5583C17.8095 25.8658 18.0504 25.766 18.2281 25.5884C18.4057 25.4107 18.5055 25.1698 18.5055 24.9185V23.5071C18.8465 23.392 19.1789 23.2527 19.5001 23.0903L20.5043 24.0944C20.6813 24.268 20.9194 24.3652 21.1673 24.3652C21.4153 24.3652 21.6534 24.268 21.8304 24.0944L24.0376 21.8873C24.2111 21.7102 24.3084 21.4722 24.3084 21.2242C24.3084 20.9763 24.2111 20.7382 24.0376 20.5611L23.0903 19.6138C23.2708 19.2733 23.4229 18.9184 23.545 18.5529H24.8617C25.1129 18.5529 25.3539 18.4531 25.5315 18.2754C25.7092 18.0978 25.809 17.8569 25.809 17.6056V14.4891C25.8141 14.3616 25.7934 14.2343 25.748 14.115C25.7027 13.9956 25.6338 13.8867 25.5453 13.7947C25.4568 13.7026 25.3506 13.6295 25.2332 13.5795C25.1157 13.5295 24.9893 13.5039 24.8617 13.504Z" stroke="white" stroke-width="1.5" stroke-linecap="round" stroke-linejoin="round"/>
</g>
<defs>
<linearGradient id="paint0_linear_76_469" x1="0.289548" y1="15.9953" x2="31.7105" y2="15.9953" gradientUnits="userSpaceOnUse">
<stop stop-color="#46ADFF"/>
<stop offset="1" stop-color="#A73BFF"/>
</linearGradient>
<clipPath id="clip0_76_469">
<rect width="32" height="32" fill="white"/>
</clipPath>
</defs>
</svg>
