<svg width="32" height="32" viewBox="0 0 32 32" fill="none" xmlns="http://www.w3.org/2000/svg">
<path d="M12.9952 14.4986C15.0042 14.4986 16.6328 12.87 16.6328 10.8611C16.6328 8.85214 15.0042 7.22357 12.9952 7.22357C10.9863 7.22357 9.35773 8.85214 9.35773 10.8611C9.35773 12.87 10.9863 14.4986 12.9952 14.4986Z" stroke="white" stroke-width="1.5" stroke-linecap="round" stroke-linejoin="round"/>
<path d="M12.9952 17.5867C13.6545 17.5867 14.3074 17.7165 14.9165 17.9688C15.5256 18.2211 16.0791 18.5909 16.5453 19.0571C17.0115 19.5233 17.3813 20.0768 17.6336 20.6859C17.8859 21.295 18.0158 21.9479 18.0158 22.6072V24.7764H7.98419V22.6072C7.98419 21.2757 8.51314 19.9987 9.45467 19.0571C10.3962 18.1156 11.6732 17.5867 13.0047 17.5867H12.9952Z" stroke="white" stroke-width="1.5" stroke-linecap="round" stroke-linejoin="round"/>
<path d="M23 13V16M23 16V19M23 16H26M23 16H20" stroke="white" stroke-width="1.5" stroke-linecap="round" stroke-linejoin="round"/>
</svg>
