<svg width="16" height="16" viewBox="0 0 16 16" fill="none" xmlns="http://www.w3.org/2000/svg">
<g clip-path="url(#clip0_1105_422)">
<g clip-path="url(#clip1_1105_422)">
<mask id="mask0_1105_422" style="mask-type:luminance" maskUnits="userSpaceOnUse" x="0" y="0" width="16" height="16">
<path d="M13.0233 0H2.97674C1.33273 0 0 1.33273 0 2.97674V13.0233C0 14.6673 1.33273 16 2.97674 16H13.0233C14.6673 16 16 14.6673 16 13.0233V2.97674C16 1.33273 14.6673 0 13.0233 0Z" fill="white"/>
</mask>
<g mask="url(#mask0_1105_422)">
<path d="M-5.55163 21.5559H21.5665V0.170105L-5.55163 15.8257V21.5559Z" fill="url(#paint0_linear_1105_422)"/>
<path d="M-5.55163 -5.56012V3.25317V15.8257L21.5665 0.170113V-5.56012H-5.55163Z" fill="url(#paint1_linear_1105_422)"/>
<path d="M6.35535 6.91669L5.91521 6.15336L5.47295 5.39004L4.70963 5.8323L4.2695 5.06898L3.50618 5.50911L3.06604 4.74579L2.30272 5.18592L1.5394 5.62605L1.09927 4.86273L0.335945 5.30499L-0.427378 5.74512L-1.1907 6.18526L-1.95402 6.62539L-1.51389 7.38871L-2.27721 7.83097L-3.04053 8.2711L-2.6004 9.03443L-3.3616 9.47456L-2.92146 10.2379L-3.68479 10.678L-3.24465 11.4413L-2.80452 12.2047L-3.56784 12.6448L-3.12558 13.4081L-2.68545 14.1714L-2.24532 14.9348L-1.80519 15.6981L-1.04186 15.2579L-0.601731 16.0213L-0.159471 16.7846L0.603851 16.3445L1.04398 17.1078L1.80731 16.6655L2.24744 17.4288L3.01076 16.9887L3.77408 16.5486L4.21422 17.3119L4.97754 16.8718L5.74086 16.4295L6.50418 15.9894L7.2675 15.5492L6.82737 14.7859L7.59069 14.3458L8.35402 13.9035L7.91388 13.1402L8.67721 12.7001L8.23495 11.9368L8.99827 11.4966L8.55814 10.7333L8.118 9.96997L8.88132 9.52984L8.43907 8.76652L7.99893 8.0032L7.5588 7.23987L7.11867 6.47655L6.35535 6.91669Z" fill="url(#paint2_linear_1105_422)"/>
<path d="M17.0397 0.748462L16.5996 -0.0148599L16.1595 -0.778182L15.3961 -0.338049L14.9539 -1.10137L14.1927 -0.661238L13.7504 -1.42456L12.9871 -0.982301L12.2238 -0.542169L11.7837 -1.30549L11.0203 -0.865358L10.257 -0.423099L9.49368 0.0170337L8.73036 0.457167L9.17262 1.22049L8.4093 1.66062L7.64598 2.10075L8.08611 2.86408L7.32279 3.30634L7.76292 4.06966L6.9996 4.50979L7.44186 5.27311L7.88199 6.03644L7.11867 6.47657L7.5588 7.23989L7.99893 8.00321L8.43907 8.76653L8.88132 9.52986L9.64465 9.08972L10.0848 9.85092L10.5249 10.6164L11.2882 10.1741L11.7284 10.9374L12.4917 10.4973L12.9339 11.2606L13.6973 10.8205L14.4585 10.3782L14.9007 11.1416L15.664 10.7014L16.4274 10.2613L17.1907 9.82115L17.954 9.37889L17.5118 8.61557L18.2751 8.17544L19.0384 7.73531L18.5983 6.97198L19.3616 6.53185L18.9215 5.76853L19.6848 5.3284L19.2425 4.56507L18.8024 3.80175L19.5657 3.35949L19.1256 2.59617L18.6854 1.83285L18.2432 1.06953L17.8031 0.30833L17.0397 0.748462Z" fill="url(#paint3_linear_1105_422)"/>
<path d="M8.97863 5.4308L9.8289 5.65863L10.0567 4.80836L9.20646 4.58053L8.97863 5.4308Z" fill="#132341"/>
<path d="M9.20796 4.58168L10.0582 4.80951L10.2861 3.95924L9.43579 3.73141L9.20796 4.58168Z" fill="#132341"/>
<path d="M9.43367 3.72993L10.2839 3.95776L10.5118 3.10749L9.6615 2.87966L9.43367 3.72993Z" fill="#132341"/>
<path d="M10.6811 5.88789L11.5313 6.11572L11.7592 5.26545L10.9089 5.03762L10.6811 5.88789Z" fill="#132341"/>
<path d="M9.83194 5.66072L10.6822 5.88855L10.91 5.03828L10.0598 4.81045L9.83194 5.66072Z" fill="#132341"/>
<path d="M4.4324 7.33705L4.20457 8.18732L5.05485 8.41515L5.28268 7.56488L4.4324 7.33705Z" fill="#132341"/>
<path d="M3.58215 7.10883L3.35432 7.95911L4.2046 8.18694L4.43243 7.33666L3.58215 7.10883Z" fill="#132341"/>
<path d="M2.72931 6.88215L2.50148 7.73242L3.35175 7.96025L3.57958 7.10998L2.72931 6.88215Z" fill="#132341"/>
<path d="M3.97539 9.04011L3.74756 9.89038L4.59783 10.1182L4.82566 9.26794L3.97539 9.04011Z" fill="#132341"/>
<path d="M4.20421 8.18727L3.97638 9.03754L4.82665 9.26537L5.05448 8.4151L4.20421 8.18727Z" fill="#132341"/>
<path d="M6.91455 9.64681L6.15123 10.0891L5.38791 10.5292L4.62458 10.9693L3.86126 11.4095L3.09794 11.8517L2.33462 12.2919L2.77475 13.0552L3.21488 13.8185L3.65714 14.5818L4.41834 14.1396L4.8606 14.9029L5.62392 14.4628L6.06405 15.2261L6.82738 14.7859L7.5907 14.3458L8.35402 13.9036L7.91389 13.1402L8.67721 12.7001L8.23495 11.9368L8.99827 11.4966L8.55814 10.7333L8.11801 9.97L8.88133 9.52986L8.43907 8.76654L7.67787 9.20667L6.91455 9.64681Z" fill="white"/>
<path d="M14.2225 6.44466L13.7823 5.68134L13.019 6.12147L12.2557 6.56373L11.4924 7.00386L10.729 7.44399L9.96572 7.88413L9.20239 8.32638L8.43907 8.76652L8.88133 9.52984L9.64465 9.08971L10.0848 9.8509L10.5249 10.6164L11.2882 10.1741L11.7284 10.9374L12.4917 10.4973L12.934 11.2606L13.6973 10.8205L14.4585 10.3782L14.0183 9.61702L14.7817 9.17476L14.3415 8.41143L15.1049 7.9713L14.6647 7.20798L14.2225 6.44466Z" fill="white"/>
</g>
</g>
</g>
<defs>
<linearGradient id="paint0_linear_1105_422" x1="-5.55163" y1="10.8651" x2="21.5644" y2="10.8651" gradientUnits="userSpaceOnUse">
<stop offset="0.08" stop-color="#B32DFF"/>
<stop offset="1" stop-color="#00FFFF"/>
</linearGradient>
<linearGradient id="paint1_linear_1105_422" x1="-5.55163" y1="5.13277" x2="21.5644" y2="5.13277" gradientUnits="userSpaceOnUse">
<stop offset="0.22" stop-color="#E238AF"/>
<stop offset="0.59" stop-color="#FFB369"/>
</linearGradient>
<linearGradient id="paint2_linear_1105_422" x1="-0.631498" y1="5.20506" x2="5.5984" y2="16.353" gradientUnits="userSpaceOnUse">
<stop offset="0.13" stop-color="#FBD947"/>
<stop offset="0.22" stop-color="#FBD24D"/>
<stop offset="0.34" stop-color="#FBBF5D"/>
<stop offset="0.49" stop-color="#FCA077"/>
<stop offset="0.65" stop-color="#FD759C"/>
<stop offset="0.83" stop-color="#FE3ECA"/>
<stop offset="1" stop-color="#FF00FE"/>
</linearGradient>
<linearGradient id="paint3_linear_1105_422" x1="10.2506" y1="-0.759046" x2="16.8292" y2="11.3265" gradientUnits="userSpaceOnUse">
<stop offset="0.24" stop-color="#33FFE0"/>
<stop offset="0.3" stop-color="#39F8DF"/>
<stop offset="0.39" stop-color="#49E4DA"/>
<stop offset="0.5" stop-color="#63C3D4"/>
<stop offset="0.63" stop-color="#8895CA"/>
<stop offset="0.77" stop-color="#B75BBE"/>
<stop offset="0.91" stop-color="#EF14B0"/>
<stop offset="0.95" stop-color="#FF00AC"/>
</linearGradient>
<clipPath id="clip0_1105_422">
<rect width="16" height="16" fill="white"/>
</clipPath>
<clipPath id="clip1_1105_422">
<rect width="16" height="16" fill="white"/>
</clipPath>
</defs>
</svg>
