<svg width="273" height="46" viewBox="0 0 273 46" fill="none" xmlns="http://www.w3.org/2000/svg">
<g clip-path="url(#clip0_6_23)">
<path d="M37.67 12.81H25.59V43.18H12V12.81H0V2.06H37.67V12.81Z" fill="url(#paint0_linear_6_23)"/>
<path d="M71.2 3.94003C73.8745 5.07671 76.1554 6.97508 77.7587 9.39869C79.3621 11.8223 80.217 14.6641 80.217 17.57C80.217 20.476 79.3621 23.3177 77.7587 25.7414C76.1554 28.165 73.8745 30.0633 71.2 31.2C68.0581 32.5148 64.6751 33.1553 61.27 33.08H55.34V43.18H41.48V2.06002H61.27C64.6751 1.98474 68.0581 2.62522 71.2 3.94003ZM64.59 21.12C65.495 20.1575 65.9988 18.8861 65.9988 17.565C65.9988 16.2439 65.495 14.9725 64.59 14.01C63.3832 13.0837 61.8771 12.635 60.36 12.75H55.36V22.38H60.36C61.8771 22.495 63.3832 22.0464 64.59 21.12Z" fill="url(#paint1_linear_6_23)"/>
<path d="M94.04 41.36C90.598 39.5871 87.7107 36.9003 85.695 33.5946C83.6793 30.2889 82.6129 26.4918 82.6129 22.62C82.6129 18.7482 83.6793 14.9512 85.695 11.6454C87.7107 8.33972 90.598 5.653 94.04 3.88002C97.7512 2.06402 101.828 1.12 105.96 1.12C110.092 1.12 114.169 2.06402 117.88 3.88002C121.322 5.653 124.209 8.33972 126.225 11.6454C128.241 14.9512 129.307 18.7482 129.307 22.62C129.307 26.4918 128.241 30.2889 126.225 33.5946C124.209 36.9003 121.322 39.5871 117.88 41.36C114.169 43.176 110.092 44.1201 105.96 44.1201C101.828 44.1201 97.7512 43.176 94.04 41.36ZM110.59 31.64C112.004 30.7695 113.152 29.5278 113.91 28.05C114.72 26.3544 115.14 24.4991 115.14 22.62C115.14 20.7409 114.72 18.8857 113.91 17.19C113.156 15.7099 112.007 14.4674 110.59 13.6C109.172 12.7743 107.561 12.3393 105.92 12.3393C104.279 12.3393 102.668 12.7743 101.25 13.6C99.8332 14.4674 98.6841 15.7099 97.93 17.19C97.1202 18.8857 96.6999 20.7409 96.6999 22.62C96.6999 24.4991 97.1202 26.3544 97.93 28.05C98.6876 29.5278 99.8359 30.7695 101.25 31.64C102.668 32.4657 104.279 32.9007 105.92 32.9007C107.561 32.9007 109.172 32.4657 110.59 31.64Z" fill="url(#paint2_linear_6_23)"/>
<path d="M181.59 35.28C177.983 38.4267 172.733 40.2367 165.84 40.71V45.29H153.19V40.65C146.257 40.07 141 38.23 137.42 35.13C133.84 32.03 132.05 27.8 132.05 22.44C132.05 17.1067 133.84 12.8867 137.42 9.78C141 6.67333 146.257 4.84333 153.19 4.28999V0H165.88V4.28999C172.82 4.80333 178.08 6.61666 181.66 9.73C185.24 12.8433 187.03 17.08 187.03 22.44C187.03 27.8533 185.217 32.1333 181.59 35.28ZM147.31 27.44C148.996 28.7984 151.037 29.6421 153.19 29.87V15.04C150.41 15.43 148.43 16.21 147.19 17.36C146.56 18.0395 146.077 18.8409 145.769 19.7146C145.461 20.5883 145.335 21.5159 145.4 22.44C145.349 23.3643 145.497 24.2889 145.833 25.1514C146.169 26.0138 146.687 26.7942 147.35 27.44H147.31ZM171.78 27.52C172.417 26.8321 172.907 26.0215 173.22 25.1377C173.533 24.2539 173.662 23.3155 173.6 22.38C173.652 21.4642 173.515 20.5474 173.196 19.6871C172.878 18.8268 172.386 18.0414 171.75 17.38C170.51 16.2067 168.54 15.4233 165.84 15.03V29.87C168.607 29.5033 170.6 28.72 171.82 27.52H171.78Z" stroke="white" stroke-miterlimit="10"/>
<path d="M225.66 32.72V43.18H191.47V2.06H224.9V12.52H205.1V17.33H222.49V27.33H205.1V32.73L225.66 32.72Z" stroke="white" stroke-miterlimit="10"/>
<path d="M231.59 2.06H245.19V23.44L259.35 2.06H272.35V43.18H258.76V21.87L244.66 43.19H231.59V2.06Z" stroke="white" stroke-miterlimit="10"/>
</g>
<defs>
<linearGradient id="paint0_linear_6_23" x1="-4.3" y1="22.62" x2="152.08" y2="22.62" gradientUnits="userSpaceOnUse">
<stop offset="0.08" stop-color="#B32DFF"/>
<stop offset="1" stop-color="#00FFFF"/>
</linearGradient>
<linearGradient id="paint1_linear_6_23" x1="-4.29996" y1="22.62" x2="152.08" y2="22.62" gradientUnits="userSpaceOnUse">
<stop offset="0.08" stop-color="#B32DFF"/>
<stop offset="1" stop-color="#00FFFF"/>
</linearGradient>
<linearGradient id="paint2_linear_6_23" x1="-4.3" y1="22.62" x2="152.08" y2="22.62" gradientUnits="userSpaceOnUse">
<stop offset="0.08" stop-color="#B32DFF"/>
<stop offset="1" stop-color="#00FFFF"/>
</linearGradient>
<clipPath id="clip0_6_23">
<rect width="273" height="46" fill="white"/>
</clipPath>
</defs>
</svg>
