<svg width="233" height="104" viewBox="0 0 233 104" fill="none" xmlns="http://www.w3.org/2000/svg">
<path d="M50.2621 3.1731V100.281H17.5309V27.875H1V3.1731H50.2621Z" stroke="white" stroke-miterlimit="10"/>
<path d="M147.111 58.5989C149.411 62.4757 150.588 66.9152 150.512 71.4222C150.598 77.3486 148.666 83.1282 145.033 87.8114C140.994 92.7816 135.668 96.5475 129.635 98.6982C114.938 103.767 98.9667 103.767 84.2696 98.6982C78.2309 96.5595 72.9018 92.7915 68.8722 87.8114C65.2291 83.1337 63.2959 77.3504 63.3935 71.4222C63.317 66.9152 64.4942 62.4757 66.794 58.5989C69.2041 54.725 72.5085 51.4856 76.4293 49.1527C73.4393 46.9393 71.0142 44.0507 69.3522 40.7225C67.6901 37.3943 66.8379 33.7205 66.8649 30.0004C66.7553 24.4869 68.5391 19.1024 71.9187 14.7447C75.6417 10.1515 80.5377 6.65091 86.0881 4.61359C99.5885 -0.204532 114.34 -0.204532 127.841 4.61359C133.394 6.64459 138.292 10.1463 142.01 14.7447C145.396 19.1001 147.188 24.4843 147.087 30.0004C147.111 33.7225 146.256 37.3976 144.589 40.726C142.923 44.0544 140.494 46.9418 137.499 49.1527C141.416 51.4827 144.713 54.7231 147.111 58.5989ZM114.639 77.6803C116.548 75.7072 117.615 73.0694 117.615 70.324C117.615 67.5787 116.548 64.9409 114.639 62.9678C112.471 61.1829 109.749 60.2071 106.941 60.2071C104.132 60.2071 101.41 61.1829 99.2418 62.9678C97.333 64.9409 96.2659 67.5787 96.2659 70.324C96.2659 73.0694 97.333 75.7072 99.2418 77.6803C101.41 79.4651 104.132 80.441 106.941 80.441C109.749 80.441 112.471 79.4651 114.639 77.6803ZM101.438 25.23C100.049 26.9613 99.2914 29.1148 99.2914 31.3346C99.2914 33.5545 100.049 35.708 101.438 37.4393C102.961 38.8671 104.971 39.6618 107.059 39.6618C109.147 39.6618 111.156 38.8671 112.679 37.4393C114.069 35.708 114.826 33.5545 114.826 31.3346C114.826 29.1148 114.069 26.9613 112.679 25.23C111.156 23.8022 109.147 23.0076 107.059 23.0076C104.971 23.0076 102.961 23.8022 101.438 25.23Z" stroke="white" stroke-miterlimit="10"/>
<path d="M231.607 63.5345H208.724V85.7096H183.762V63.5345H160.855V39.9189H183.762V17.7202H208.724V39.9189H231.607V63.5345Z" stroke="white" stroke-miterlimit="10"/>
</svg>
