<svg width="188" height="95" viewBox="0 0 188 95" fill="none" xmlns="http://www.w3.org/2000/svg">
<g clip-path="url(#clip0_75_454)">
<g clip-path="url(#clip1_75_454)">
<path d="M31.96 21.4099L44.12 42.5599H28.49L20.63 27.6999H16.75V42.5599H2.89001V1.43994H16.75V16.7699H20.98L29.73 1.43994H44.18L31.96 21.4099Z" fill="url(#paint0_linear_75_454)"/>
<path d="M89.29 1.43994V42.5599H75.63V12.1999H66.23L66.11 16.9599C66.0545 21.8081 65.5827 26.6425 64.7 31.4099C64.1769 34.6583 62.7687 37.6997 60.63 40.1999C58.67 42.2866 55.87 43.3333 52.23 43.34C50.2466 43.3234 48.2724 43.0683 46.35 42.5799L47.06 31.4799C47.5625 31.5907 48.0754 31.6477 48.59 31.6499C49.2493 31.6746 49.9034 31.5248 50.4863 31.2158C51.0692 30.9068 51.5603 30.4494 51.91 29.8899C52.7602 28.4537 53.289 26.8502 53.46 25.1899C53.74 23.1899 53.93 20.6699 54.05 17.4899L54.58 1.48993L89.29 1.43994Z" fill="url(#paint1_linear_75_454)"/>
<path d="M125.24 35.3899H109.63L106.87 42.5599H92.77L110.77 1.43994H124.4L142.4 42.5599H128.07L125.24 35.3899ZM121.42 25.3899L117.42 15.0599L113.42 25.3899H121.42Z" fill="url(#paint2_linear_75_454)"/>
<path d="M152.51 40.77C149.12 39.0349 146.28 36.3892 144.31 33.13C142.294 29.7712 141.255 25.9168 141.31 22C141.255 18.0832 142.294 14.2288 144.31 10.87C146.277 7.6084 149.118 4.96204 152.51 3.23C156.142 1.37613 160.173 0.4389 164.25 0.500004C167.926 0.43408 171.574 1.15343 174.95 2.61C178.005 3.96401 180.67 6.06522 182.7 8.72001L173.95 16.53C171.403 13.3167 168.403 11.7133 164.95 11.72C163.652 11.6627 162.357 11.8818 161.15 12.3628C159.943 12.8437 158.853 13.5756 157.95 14.51C156.12 16.5625 155.171 19.2534 155.31 22C155.171 24.7466 156.12 27.4375 157.95 29.49C158.853 30.4244 159.943 31.1563 161.15 31.6373C162.357 32.1182 163.652 32.3373 164.95 32.28C168.39 32.28 171.39 30.6733 173.95 27.46L182.7 35.27C180.673 37.9275 178.007 40.0293 174.95 41.38C171.575 42.84 167.927 43.5628 164.25 43.5C160.173 43.5611 156.142 42.6239 152.51 40.77Z" fill="url(#paint3_linear_75_454)"/>
<path d="M12.16 91.7701C8.76759 90.038 5.92725 87.3917 3.95996 84.1301C1.94873 80.7694 0.910156 76.9163 0.959963 73.0001C0.910156 69.0839 1.94873 65.2308 3.95996 61.8701C5.92725 58.6085 8.76759 55.9621 12.16 54.2301C15.7951 52.3746 19.8292 51.4373 23.91 51.5001C27.593 51.4297 31.2483 52.1492 34.63 53.6101C37.6867 54.9615 40.3525 57.0631 42.38 59.7201L33.63 67.5401C31.0766 64.3201 28.0766 62.7134 24.63 62.7201C23.3321 62.6627 22.0369 62.8818 20.8301 63.3628C19.6234 63.8438 18.5326 64.5757 17.63 65.5101C15.7996 67.5626 14.8511 70.2534 14.99 73.0001C14.8511 75.7467 15.7996 78.4376 17.63 80.4901C18.5326 81.4244 19.6234 82.1563 20.8301 82.6373C22.0369 83.1183 23.3321 83.3374 24.63 83.2801C28.0766 83.2801 31.0766 81.6734 33.63 78.4601L42.38 86.2701C40.3553 88.9298 37.6887 91.032 34.63 92.3801C31.2583 93.8401 27.6136 94.5629 23.94 94.5001C19.8491 94.5677 15.8041 93.6303 12.16 91.7701Z" stroke="white" stroke-miterlimit="10"/>
<path d="M45.98 52.4399H59.63V73.8199L73.78 52.4399H86.78V93.5599H73.16V72.2L59.06 93.5299H45.96L45.98 52.4399Z" stroke="white" stroke-miterlimit="10"/>
<path d="M122.88 72.4099L135.04 93.5599H119.42L111.54 78.7H107.63V93.5599H93.76V52.4399H107.63V67.77H111.86L120.61 52.4399H135.06L122.88 72.4099Z" stroke="white" stroke-miterlimit="10"/>
<path d="M169.46 86.39H153.84L151.08 93.5599H136.98L154.98 52.4399H168.63L186.63 93.5599H172.23L169.46 86.39ZM165.65 76.39L161.65 66.05L157.65 76.39H165.65Z" stroke="white" stroke-miterlimit="10"/>
</g>
</g>
<defs>
<linearGradient id="paint0_linear_75_454" x1="-5.81998" y1="21.9999" x2="209.91" y2="21.9999" gradientUnits="userSpaceOnUse">
<stop offset="0.08" stop-color="#B32DFF"/>
<stop offset="1" stop-color="#00FFFF"/>
</linearGradient>
<linearGradient id="paint1_linear_75_454" x1="-5.82003" y1="22.3799" x2="209.91" y2="22.3799" gradientUnits="userSpaceOnUse">
<stop offset="0.08" stop-color="#B32DFF"/>
<stop offset="1" stop-color="#00FFFF"/>
</linearGradient>
<linearGradient id="paint2_linear_75_454" x1="-5.81999" y1="21.9999" x2="209.91" y2="21.9999" gradientUnits="userSpaceOnUse">
<stop offset="0.08" stop-color="#B32DFF"/>
<stop offset="1" stop-color="#00FFFF"/>
</linearGradient>
<linearGradient id="paint3_linear_75_454" x1="-5.82001" y1="22" x2="209.91" y2="22" gradientUnits="userSpaceOnUse">
<stop offset="0.08" stop-color="#B32DFF"/>
<stop offset="1" stop-color="#00FFFF"/>
</linearGradient>
<clipPath id="clip0_75_454">
<rect width="188" height="95" fill="white"/>
</clipPath>
<clipPath id="clip1_75_454">
<rect width="186.82" height="94.5" fill="white" transform="translate(0.5 0.5)"/>
</clipPath>
</defs>
</svg>
