<svg width="275" height="157" viewBox="0 0 275 157" fill="none" xmlns="http://www.w3.org/2000/svg">
<g clip-path="url(#clip0_58_134)">
<path d="M11.78 40.7741C8.3876 39.042 5.54728 36.3957 3.57999 33.1341C1.64084 29.7452 0.620728 25.9085 0.620728 22.0041C0.620728 18.0996 1.64084 14.2629 3.57999 10.8741C5.54728 7.61245 8.3876 4.9661 11.78 3.23405C15.4151 1.3786 19.4492 0.441316 23.53 0.504057C27.2028 0.438944 30.8473 1.15829 34.22 2.61406C37.2752 3.96806 39.9404 6.06927 41.97 8.72406L33.22 16.5441C30.6667 13.3307 27.6667 11.7241 24.22 11.7241C22.9222 11.6667 21.6269 11.8858 20.4202 12.3668C19.2134 12.8478 18.1226 13.5797 17.22 14.5141C15.5073 16.6385 14.5733 19.2852 14.5733 22.0141C14.5733 24.7429 15.5073 27.3896 17.22 29.5141C18.1226 30.4484 19.2134 31.1803 20.4202 31.6613C21.6269 32.1423 22.9222 32.3614 24.22 32.3041C27.6733 32.3041 30.6733 30.6974 33.22 27.4841L41.97 35.2941C39.946 37.9544 37.2792 40.0568 34.22 41.4041C30.8481 42.8633 27.2036 43.586 23.53 43.5241C19.4475 43.5806 15.4133 42.6364 11.78 40.7741Z" fill="url(#paint0_linear_58_134)"/>
<path d="M53.76 40.744C50.3209 38.9685 47.4367 36.2809 45.4232 32.9755C43.4098 29.6701 42.3447 25.8744 42.3447 22.004C42.3447 18.1336 43.4098 14.3379 45.4232 11.0325C47.4367 7.72708 50.3209 5.03947 53.76 3.26399C57.4729 1.44786 61.5517 0.503784 65.685 0.503784C69.8183 0.503784 73.897 1.44786 77.61 3.26399C81.0491 5.03947 83.9333 7.72708 85.9468 11.0325C87.9602 14.3379 89.0253 18.1336 89.0253 22.004C89.0253 25.8744 87.9602 29.6701 85.9468 32.9755C83.9333 36.2809 81.0491 38.9685 77.61 40.744C73.897 42.5601 69.8183 43.5042 65.685 43.5042C61.5517 43.5042 57.4729 42.5601 53.76 40.744ZM70.36 31.024C71.7711 30.1528 72.916 28.9111 73.67 27.434C74.4861 25.7402 74.9099 23.8842 74.9099 22.004C74.9099 20.1238 74.4861 18.2678 73.67 16.574C72.9186 15.0952 71.7731 13.8528 70.36 12.984C68.9421 12.1583 67.3307 11.7233 65.69 11.7233C64.0492 11.7233 62.4378 12.1583 61.02 12.984C59.6032 13.8513 58.4541 15.0939 57.7 16.574C56.8839 18.2678 56.4601 20.1238 56.4601 22.004C56.4601 23.8842 56.8839 25.7402 57.7 27.434C58.4576 28.9117 59.6059 30.1534 61.02 31.024C62.4378 31.8497 64.0492 32.2847 65.69 32.2847C67.3307 32.2847 68.9421 31.8497 70.36 31.024Z" fill="url(#paint1_linear_58_134)"/>
<path d="M35.54 82.114C36.7786 83.8229 37.4375 85.8835 37.42 87.994C37.4333 89.2392 37.1987 90.4746 36.73 91.6283C36.2614 92.782 35.5679 93.8309 34.69 94.714C32.642 96.7504 30.1196 98.2453 27.35 99.064C24.03 100.1 20.5676 100.606 17.09 100.564C11.204 100.585 5.38019 99.3612 0 96.9741L4 87.404C5.93818 88.1911 7.94738 88.7905 10 89.194C11.9318 89.5912 13.8978 89.7989 15.87 89.814C17.7255 89.8791 19.5744 89.5591 21.3 88.874C21.8964 88.6915 22.4212 88.3275 22.8011 87.8329C23.1811 87.3382 23.3974 86.7374 23.42 86.114C23.42 84.4674 22.0867 83.644 19.42 83.644H8.25V73.644H18.18C19.1145 73.7088 20.0464 73.4854 20.85 73.004C21.1435 72.8027 21.381 72.53 21.5402 72.2116C21.6993 71.8933 21.775 71.5397 21.76 71.184C21.7559 70.6766 21.6005 70.1819 21.3137 69.7633C21.0269 69.3446 20.6217 69.0211 20.15 68.834C18.8141 68.2292 17.3553 67.945 15.89 68.004C14.0847 68.0261 12.2886 68.2644 10.54 68.714C8.65094 69.1745 6.81949 69.8453 5.08 70.714L1.08 60.434C5.71408 58.3445 10.7468 57.2868 15.83 57.334C19.1866 57.3034 22.5272 57.7994 25.73 58.804C28.4675 59.6096 30.9667 61.0721 33.01 63.064C34.499 64.557 35.4397 66.5093 35.6793 68.6042C35.9189 70.6991 35.4434 72.8134 34.33 74.604C33.365 76.1211 32.0161 77.3562 30.42 78.184C32.466 78.9799 34.2423 80.3433 35.54 82.114Z" stroke="white" stroke-miterlimit="10"/>
<path d="M88.9 88.814V107.614H76.21V99.614H52.83V107.614H40.14V88.814H41.32C43.7133 88.814 45.38 87.3073 46.32 84.294C47.26 81.2806 47.8867 76.834 48.2 70.954L48.67 58.444H83.45V88.814H88.9ZM59.35 82.204C59.0309 84.5201 58.2957 86.7594 57.18 88.814H69.87V69.194H60.42L60.3 72.134C60.1989 75.5075 59.8816 78.8711 59.35 82.204Z" stroke="white" stroke-miterlimit="10"/>
<path d="M123.63 92.394H108L105.24 99.564H91.14L109.14 58.444H122.77L140.77 99.564H126.42L123.63 92.394ZM119.81 82.394L115.81 72.054L111.81 82.394H119.81Z" stroke="white" stroke-miterlimit="10"/>
<path d="M184.71 58.444V99.564H170.85V84.404H158.04V99.564H144.18V58.444H158.04V73.014H170.85V58.444H184.71Z" stroke="white" stroke-miterlimit="10"/>
<path d="M191.91 58.444H205.54V79.824L219.69 58.444H232.74V99.564H219.11V78.244L205.01 99.564H191.91V58.444Z" stroke="white" stroke-miterlimit="10"/>
<path d="M274.09 89.104V99.564H239.9V58.444H273.33V68.904H253.53V73.714H270.92V83.714H253.53V89.114L274.09 89.104Z" stroke="white" stroke-miterlimit="10"/>
<path d="M2.84998 115.444H16.48V136.824L30.63 115.444H43.63V156.564H30.05V135.244L15.95 156.564H2.84998V115.444Z" fill="url(#paint2_linear_58_134)"/>
<path d="M82.15 126.194H64.47V156.564H50.84V115.444H82.15V126.194Z" fill="url(#paint3_linear_58_134)"/>
<path d="M115.66 117.334C118.319 118.451 120.587 120.33 122.18 122.734C123.389 124.546 124.184 126.602 124.507 128.756C124.831 130.909 124.676 133.108 124.054 135.195C123.431 137.283 122.357 139.207 120.906 140.831C119.455 142.456 117.664 143.741 115.66 144.594C112.518 145.909 109.135 146.549 105.73 146.474H99.8V156.574H85.93V115.444H105.73C109.136 115.372 112.519 116.016 115.66 117.334ZM109.08 134.514C109.985 133.552 110.489 132.28 110.489 130.959C110.489 129.638 109.985 128.367 109.08 127.404C107.873 126.478 106.367 126.029 104.85 126.144H99.8V135.774H104.85C106.368 135.886 107.875 135.434 109.08 134.504V134.514Z" fill="url(#paint4_linear_58_134)"/>
<path d="M162.53 131.514C165.31 133.807 166.7 137.184 166.7 141.644C166.7 146.464 165.117 150.154 161.95 152.714C158.77 155.284 154.43 156.564 148.9 156.564H128.52V115.444H142.15V128.074H150.67C155.803 128.074 159.757 129.221 162.53 131.514ZM151.43 145.514C151.895 145.028 152.256 144.451 152.488 143.82C152.72 143.188 152.82 142.516 152.78 141.844C152.78 139.104 151.173 137.734 147.96 137.734H142.15V146.844H147.96C148.594 146.871 149.228 146.769 149.822 146.546C150.417 146.323 150.96 145.982 151.42 145.544L151.43 145.514ZM170.43 115.414H184.06V156.534H170.42L170.43 115.414Z" fill="url(#paint5_linear_58_134)"/>
</g>
<defs>
<linearGradient id="paint0_linear_58_134" x1="-1.25001" y1="22.0041" x2="193.41" y2="22.0041" gradientUnits="userSpaceOnUse">
<stop offset="0.08" stop-color="#B32DFF"/>
<stop offset="1" stop-color="#00FFFF"/>
</linearGradient>
<linearGradient id="paint1_linear_58_134" x1="-1.25001" y1="22.004" x2="193.41" y2="22.004" gradientUnits="userSpaceOnUse">
<stop offset="0.08" stop-color="#B32DFF"/>
<stop offset="1" stop-color="#00FFFF"/>
</linearGradient>
<linearGradient id="paint2_linear_58_134" x1="-1.25002" y1="136.004" x2="193.41" y2="136.004" gradientUnits="userSpaceOnUse">
<stop offset="0.08" stop-color="#B32DFF"/>
<stop offset="1" stop-color="#00FFFF"/>
</linearGradient>
<linearGradient id="paint3_linear_58_134" x1="-1.25003" y1="136.004" x2="193.41" y2="136.004" gradientUnits="userSpaceOnUse">
<stop offset="0.08" stop-color="#B32DFF"/>
<stop offset="1" stop-color="#00FFFF"/>
</linearGradient>
<linearGradient id="paint4_linear_58_134" x1="-1.25001" y1="136.004" x2="193.41" y2="136.004" gradientUnits="userSpaceOnUse">
<stop offset="0.08" stop-color="#B32DFF"/>
<stop offset="1" stop-color="#00FFFF"/>
</linearGradient>
<linearGradient id="paint5_linear_58_134" x1="-1.24996" y1="136.004" x2="193.41" y2="136.004" gradientUnits="userSpaceOnUse">
<stop offset="0.08" stop-color="#B32DFF"/>
<stop offset="1" stop-color="#00FFFF"/>
</linearGradient>
<clipPath id="clip0_58_134">
<rect width="275" height="157" fill="white"/>
</clipPath>
</defs>
</svg>
