<svg width="205" height="44" viewBox="0 0 205 44" fill="none" xmlns="http://www.w3.org/2000/svg">
<g clip-path="url(#clip0_38_107)">
<path d="M36.72 42.0634L36.6 23.3234L27.67 38.3234H21.56L12.63 23.9333V42.0234H0V0.943359H11.4L24.79 22.8534L37.79 0.943359H49.19L49.31 42.0634H36.72Z" fill="url(#paint0_linear_38_107)"/>
<path d="M90.67 31.6034V42.0634H56.48V0.943359H89.88V11.4034H70.08V16.2134H87.47V26.2134H70.11V31.6134L90.67 31.6034Z" fill="url(#paint1_linear_38_107)"/>
<path d="M137.11 0.943359V42.0634H123.24V26.9034H110.44V42.0634H96.5701V0.943359H110.44V15.5134H123.24V0.943359H137.11Z" fill="url(#paint2_linear_38_107)"/>
<path d="M194.76 40.2433C191.49 42.3733 187.44 43.0033 183.13 43.0033C179.66 43.0538 176.219 42.3723 173.03 41.0033C170.066 39.7219 167.433 37.783 165.33 35.3333C163.258 32.9102 161.789 30.0321 161.04 26.9333H157.93V42.0933H144.3V0.943294H157.93V15.5133H161.16C161.979 12.4949 163.489 9.70821 165.57 7.37329C167.678 5.01841 170.285 3.16337 173.2 1.94329C176.343 0.626591 179.722 -0.0335956 183.13 0.00329115C187.175 -0.0633144 191.173 0.881986 194.76 2.75329C196.737 3.79716 198.535 5.14718 200.09 6.75329C202.055 8.86529 203.41 11.4714 204.01 14.2933C205.39 20.5133 206.28 32.7533 194.76 40.2433ZM187.54 30.5233C188.901 29.6433 189.989 28.3997 190.68 26.9333C191.432 25.2218 191.82 23.3727 191.82 21.5033C191.82 19.6339 191.432 17.7848 190.68 16.0733C189.989 14.6069 188.901 13.3633 187.54 12.4833C186.222 11.6467 184.691 11.2091 183.13 11.2233C181.553 11.2051 180.004 11.6426 178.67 12.4833C177.308 13.3659 176.218 14.6086 175.52 16.0733C174.768 17.7848 174.38 19.6339 174.38 21.5033C174.38 23.3727 174.768 25.2218 175.52 26.9333C176.218 28.398 177.308 29.6407 178.67 30.5233C180.004 31.3639 181.553 31.8015 183.13 31.7833C184.691 31.7975 186.222 31.3599 187.54 30.5233Z" fill="url(#paint3_linear_38_107)"/>
</g>
<defs>
<linearGradient id="paint0_linear_38_107" x1="-33.12" y1="21.5034" x2="230.07" y2="21.5034" gradientUnits="userSpaceOnUse">
<stop offset="0.08" stop-color="#B32DFF"/>
<stop offset="1" stop-color="#00FFFF"/>
</linearGradient>
<linearGradient id="paint1_linear_38_107" x1="-33.12" y1="21.5034" x2="230.07" y2="21.5034" gradientUnits="userSpaceOnUse">
<stop offset="0.08" stop-color="#B32DFF"/>
<stop offset="1" stop-color="#00FFFF"/>
</linearGradient>
<linearGradient id="paint2_linear_38_107" x1="-33.1199" y1="21.5034" x2="230.07" y2="21.5034" gradientUnits="userSpaceOnUse">
<stop offset="0.08" stop-color="#B32DFF"/>
<stop offset="1" stop-color="#00FFFF"/>
</linearGradient>
<linearGradient id="paint3_linear_38_107" x1="-38.96" y1="21.5033" x2="232.89" y2="21.5033" gradientUnits="userSpaceOnUse">
<stop offset="0.08" stop-color="#B32DFF"/>
<stop offset="1" stop-color="#00FFFF"/>
</linearGradient>
<clipPath id="clip0_38_107">
<rect width="205" height="44" fill="white"/>
</clipPath>
</defs>
</svg>
