<svg width="303" height="45" viewBox="0 0 303 45" fill="none" xmlns="http://www.w3.org/2000/svg">
<g clip-path="url(#clip0_46_17)">
<path d="M13.427 42.24C9.98497 40.4671 7.09776 37.7803 5.08203 34.4746C3.0663 31.1689 2 27.3719 2 23.5C2 19.6282 3.0663 15.8312 5.08203 12.5254C7.09776 9.21972 9.98497 6.53301 13.427 4.76003C17.1382 2.94403 21.2153 2 25.347 2C29.4787 2 33.5559 2.94403 37.2671 4.76003C40.7091 6.53301 43.5963 9.21972 45.6121 12.5254C47.6278 15.8312 48.6941 19.6282 48.6941 23.5C48.6941 27.3719 47.6278 31.1689 45.6121 34.4746C43.5963 37.7803 40.7091 40.4671 37.2671 42.24C33.5559 44.056 29.4787 45.0001 25.347 45.0001C21.2153 45.0001 17.1382 44.056 13.427 42.24ZM30.0171 32.52C31.4339 31.6527 32.5829 30.4102 33.337 28.93C34.1468 27.2344 34.5671 25.3791 34.5671 23.5C34.5671 21.621 34.1468 19.7657 33.337 18.07C32.5795 16.5923 31.4312 15.3506 30.0171 14.48C28.5992 13.6544 26.9878 13.2194 25.347 13.2194C23.7063 13.2194 22.0949 13.6544 20.677 14.48C19.2629 15.3506 18.1146 16.5923 17.3571 18.07C16.5473 19.7657 16.127 21.621 16.127 23.5C16.127 25.3791 16.5473 27.2344 17.3571 28.93C18.1112 30.4102 19.2602 31.6527 20.677 32.52C22.0949 33.3457 23.7063 33.7807 25.347 33.7807C26.9878 33.7807 28.5992 33.3457 30.0171 32.52Z" stroke="white" stroke-miterlimit="10"/>
<path d="M110.787 2.93994V44.0599H53.397V2.93994H67.027V33.3099H75.3069V2.93994H88.9369V33.3099H97.157V2.93994H110.787Z" stroke="white" stroke-miterlimit="10"/>
<path d="M117.957 2.93994H131.587V24.3199L145.737 2.93994H158.737V44.0599H145.107V22.7399L131.017 44.0599H117.917L117.957 2.93994Z" stroke="white" stroke-miterlimit="10"/>
<path d="M165.947 2.93994H201.607V13.3999H179.607V18.1599H189.417C194.43 18.1599 198.277 19.2266 200.957 21.3599C203.637 23.4933 204.97 26.5766 204.957 30.6099C205.039 32.5016 204.666 34.3852 203.869 36.1027C203.072 37.8202 201.874 39.3214 200.377 40.4799C197.323 42.8666 193.073 44.0599 187.627 44.0599H165.957L165.947 2.93994ZM186.677 34.3699C187.814 34.434 188.941 34.125 189.887 33.4899C190.267 33.1912 190.568 32.8052 190.767 32.3647C190.965 31.9242 191.055 31.4423 191.027 30.9599C191.027 28.8466 189.577 27.7899 186.677 27.7899H179.577V34.3699H186.677Z" stroke="white" stroke-miterlimit="10"/>
<path d="M238.727 22.9099L250.887 44.0599H235.227L227.357 29.1999H223.487V44.0599H209.617V2.93994H223.487V18.2699H227.707L236.467 2.93994H250.917L238.727 22.9099Z" stroke="white" stroke-miterlimit="10"/>
<path d="M285.307 36.8899H269.687L266.927 44.0599H252.827L270.827 2.93994H284.457L302.457 44.0599H288.117L285.307 36.8899ZM281.487 26.8899L277.487 16.5499L273.487 26.8899H281.487Z" stroke="white" stroke-miterlimit="10"/>
</g>
<defs>
<clipPath id="clip0_46_17">
<rect width="303" height="45" fill="white"/>
</clipPath>
</defs>
</svg>
