<svg width="127" height="127" viewBox="0 0 127 127" fill="none" xmlns="http://www.w3.org/2000/svg">
<g clip-path="url(#clip0_1_2)">
<rect width="127" height="127" fill="white"/>
<path d="M0 127.106H127.116V26.8604L0 100.246V127.106Z" fill="url(#paint0_linear_1_2)"/>
<path d="M0 0V41.3123V100.246L127.116 26.8605V0H0Z" fill="url(#paint1_linear_1_2)"/>
<path d="M55.8139 58.485L53.7508 54.907L51.6777 51.3289L48.0997 53.402L46.0365 49.8239L42.4585 51.887L40.3953 48.309L36.8173 50.3721L33.2392 52.4352L31.1761 48.8571L27.598 50.9302L24.0199 52.9933L20.4419 55.0565L16.8638 57.1196L18.9269 60.6977L15.3488 62.7708L11.7708 64.8339L13.8339 68.4119L10.2658 70.4751L12.3289 74.0531L8.75082 76.1163L10.814 79.6943L12.8771 83.2724L9.299 85.3355L11.3721 88.9136L13.4352 92.4917L15.4983 96.0698L17.5615 99.6478L21.1395 97.5847L23.2026 101.163L25.2757 104.741L28.8538 102.678L30.9169 106.256L34.495 104.183L36.5581 107.761L40.1362 105.698L43.7143 103.635L45.7774 107.213L49.3555 105.149L52.9335 103.076L56.5116 101.013L60.0897 98.9501L58.0266 95.3721L61.6046 93.309L65.1827 91.2359L63.1196 87.6578L66.6977 85.5947L64.6246 82.0166L68.2026 79.9535L66.1395 76.3754L64.0764 72.7973L67.6545 70.7342L65.5814 67.1561L63.5183 63.5781L61.4551 60L59.392 56.4219L55.8139 58.485Z" fill="url(#paint2_linear_1_2)"/>
<path d="M105.897 29.5714L103.834 25.9933L101.771 22.4153L98.1927 24.4784L96.1196 20.9003L92.5515 22.9634L90.4784 19.3854L86.9003 21.4585L83.3223 23.5216L81.2591 19.9435L77.6811 22.0066L74.103 24.0797L70.5249 26.1428L66.9468 28.206L69.0199 31.784L65.4419 33.8472L61.8638 35.9103L63.9269 39.4884L60.3488 41.5615L62.412 45.1395L58.8339 47.2026L60.907 50.7807L62.9701 54.3588L59.392 56.4219L61.4552 60L63.5183 63.5781L65.5814 67.1561L67.6545 70.7342L71.2326 68.6711L73.2957 72.2392L75.3588 75.8272L78.9369 73.7541L81 77.3322L84.5781 75.2691L86.6512 78.8472L90.2292 76.784L93.7973 74.7109L95.8704 78.289L99.4485 76.2259L103.027 74.1628L106.605 72.0997L110.183 70.0266L108.11 66.4485L111.688 64.3854L115.266 62.3222L113.203 58.7442L116.781 56.6811L114.718 53.103L118.296 51.0399L116.223 47.4618L114.159 43.8837L117.738 41.8106L115.674 38.2325L113.611 34.6545L111.538 31.0764L109.475 27.5083L105.897 29.5714Z" fill="url(#paint3_linear_1_2)"/>
<path d="M68.1106 51.52L72.0962 52.588L73.1642 48.6023L69.1785 47.5344L68.1106 51.52Z" fill="#132341"/>
<path d="M69.1856 47.5397L73.1712 48.6077L74.2392 44.622L70.2535 43.5541L69.1856 47.5397Z" fill="#132341"/>
<path d="M70.2436 43.5472L74.2292 44.6151L75.2972 40.6295L71.3116 39.5615L70.2436 43.5472Z" fill="#132341"/>
<path d="M76.0908 53.6626L80.0764 54.7306L81.1444 50.7449L77.1587 49.677L76.0908 53.6626Z" fill="#132341"/>
<path d="M72.1105 52.5976L76.0961 53.6656L77.1641 49.6799L73.1784 48.612L72.1105 52.5976Z" fill="#132341"/>
<path d="M46.8001 60.4554L45.7322 64.441L49.7178 65.509L50.7858 61.5233L46.8001 60.4554Z" fill="#132341"/>
<path d="M42.8146 59.3858L41.7467 63.3714L45.7323 64.4393L46.8003 60.4537L42.8146 59.3858Z" fill="#132341"/>
<path d="M38.8169 58.3231L37.7489 62.3088L41.7346 63.3767L42.8025 59.3911L38.8169 58.3231Z" fill="#132341"/>
<path d="M44.6579 68.4387L43.59 72.4243L47.5756 73.4923L48.6436 69.5067L44.6579 68.4387Z" fill="#132341"/>
<path d="M45.7305 64.441L44.6625 68.4266L48.6482 69.4946L49.7161 65.5089L45.7305 64.441Z" fill="#132341"/>
<path d="M58.4352 71.2824L54.8571 73.3555L51.2791 75.4186L47.701 77.4817L44.1229 79.5449L40.5448 81.618L36.9668 83.6811L39.0299 87.2592L41.093 90.8372L43.1661 94.4153L46.7342 92.3422L48.8073 95.9203L52.3854 93.8572L54.4485 97.4352L58.0266 95.3721L61.6046 93.309L65.1827 91.2359L63.1196 87.6578L66.6977 85.5947L64.6246 82.0166L68.2026 79.9535L66.1395 76.3754L64.0764 72.7974L67.6545 70.7342L65.5814 67.1562L62.0133 69.2193L58.4352 71.2824Z" fill="white"/>
<path d="M92.691 56.2724L90.6279 52.6943L87.0498 54.7575L83.4718 56.8305L79.8937 58.8937L76.3156 60.9568L72.7376 63.0199L69.1595 65.093L65.5814 67.1561L67.6545 70.7342L71.2326 68.6711L73.2957 72.2392L75.3588 75.8272L78.9369 73.7541L81 77.3322L84.5781 75.2691L86.6512 78.8472L90.2292 76.784L93.7973 74.7109L91.7342 71.1428L95.3123 69.0698L93.2492 65.4917L96.8272 63.4286L94.7641 59.8505L92.691 56.2724Z" fill="white"/>
</g>
<defs>
<linearGradient id="paint0_linear_1_2" x1="0" y1="76.9933" x2="127.106" y2="76.9933" gradientUnits="userSpaceOnUse">
<stop offset="0.08" stop-color="#B32DFF"/>
<stop offset="1" stop-color="#00FFFF"/>
</linearGradient>
<linearGradient id="paint1_linear_1_2" x1="0" y1="50.1229" x2="127.106" y2="50.1229" gradientUnits="userSpaceOnUse">
<stop offset="0.22" stop-color="#E238AF"/>
<stop offset="0.59" stop-color="#FFB369"/>
</linearGradient>
<linearGradient id="paint2_linear_1_2" x1="23.0631" y1="50.4618" x2="52.2658" y2="102.718" gradientUnits="userSpaceOnUse">
<stop offset="0.13" stop-color="#FBD947"/>
<stop offset="0.22" stop-color="#FBD24D"/>
<stop offset="0.34" stop-color="#FBBF5D"/>
<stop offset="0.49" stop-color="#FCA077"/>
<stop offset="0.65" stop-color="#FD759C"/>
<stop offset="0.83" stop-color="#FE3ECA"/>
<stop offset="1" stop-color="#FF00FE"/>
</linearGradient>
<linearGradient id="paint3_linear_1_2" x1="74.0731" y1="22.505" x2="104.91" y2="79.1561" gradientUnits="userSpaceOnUse">
<stop offset="0.24" stop-color="#33FFE0"/>
<stop offset="0.3" stop-color="#39F8DF"/>
<stop offset="0.39" stop-color="#49E4DA"/>
<stop offset="0.5" stop-color="#63C3D4"/>
<stop offset="0.63" stop-color="#8895CA"/>
<stop offset="0.77" stop-color="#B75BBE"/>
<stop offset="0.91" stop-color="#EF14B0"/>
<stop offset="0.95" stop-color="#FF00AC"/>
</linearGradient>
<clipPath id="clip0_1_2">
<rect width="127" height="127" fill="white"/>
</clipPath>
</defs>
</svg>
