<svg width="334" height="263" viewBox="0 0 334 263" fill="none" xmlns="http://www.w3.org/2000/svg">
<g clip-path="url(#clip0_114_105)">
<path d="M62.1188 21.3418H29.8645V76.7861H4.99872V1.71631H62.1188V21.3418Z" fill="url(#paint0_linear_114_105)"/>
<path d="M85.9264 73.4632C79.6523 70.2218 74.3905 65.3153 70.7173 59.2808C67.0441 53.2464 65.1011 46.3168 65.1011 39.2509C65.1011 32.1851 67.0441 25.2555 70.7173 19.221C74.3905 13.1866 79.6523 8.27998 85.9264 5.03863C92.7001 1.72304 100.141 -0.000488281 107.682 -0.000488281C115.222 -0.000488281 122.663 1.72304 129.437 5.03863C135.711 8.27998 140.973 13.1866 144.646 19.221C148.319 25.2555 150.262 32.1851 150.262 39.2509C150.262 46.3168 148.319 53.2464 144.646 59.2808C140.973 65.3153 135.711 70.2218 129.437 73.4632C122.663 76.7788 115.222 78.5023 107.682 78.5023C100.141 78.5023 92.7001 76.7788 85.9264 73.4632ZM116.192 55.7181C118.771 54.1359 120.867 51.8751 122.249 49.1823C123.738 46.0869 124.511 42.6955 124.511 39.26C124.511 35.8246 123.738 32.4332 122.249 29.3378C120.867 26.6399 118.772 24.3731 116.192 22.7837C113.606 21.2764 110.666 20.4822 107.673 20.4822C104.679 20.4822 101.739 21.2764 99.1529 22.7837C96.5772 24.3781 94.4835 26.6437 93.096 29.3378C91.6184 32.4365 90.8515 35.8266 90.8515 39.26C90.8515 42.6935 91.6184 46.0836 93.096 49.1823C94.4846 51.8708 96.5784 54.1301 99.1529 55.7181C101.739 57.2255 104.679 58.0196 107.673 58.0196C110.666 58.0196 113.606 57.2255 116.192 55.7181Z" fill="url(#paint1_linear_114_105)"/>
<path d="M230.852 1.71631V76.7861H206.059V21.3418H188.91L188.71 30.0318C188.56 38.8869 187.651 47.7128 185.991 56.4121C185.004 62.3408 182.41 67.8849 178.493 72.4412C174.845 76.275 169.809 78.1736 163.151 78.1736C159.538 78.1434 155.943 77.6776 152.442 76.7861L153.737 56.5217C154.645 56.74 155.576 56.8502 156.51 56.8503C157.716 56.9009 158.913 56.6281 159.978 56.0599C161.043 55.4918 161.937 54.649 162.567 53.6189C164.127 50.9998 165.099 48.0716 165.413 45.0385C165.905 41.3872 166.27 36.7866 166.489 30.9994L167.438 1.78932L230.852 1.71631Z" fill="url(#paint2_linear_114_105)"/>
<path d="M260.096 73.4632C253.817 70.2264 248.549 65.3214 244.872 59.2864C241.195 53.2514 239.249 46.3194 239.249 39.2509C239.249 32.1824 241.195 25.2504 244.872 19.2154C248.549 13.1804 253.817 8.27542 260.096 5.03863C266.87 1.72304 274.311 -0.000488281 281.851 -0.000488281C289.392 -0.000488281 296.833 1.72304 303.607 5.03863C309.881 8.27998 315.142 13.1866 318.816 19.221C322.489 25.2555 324.432 32.1851 324.432 39.2509C324.432 46.3168 322.489 53.2464 318.816 59.2808C315.142 65.3153 309.881 70.2218 303.607 73.4632C296.833 76.7788 289.392 78.5023 281.851 78.5023C274.311 78.5023 266.87 76.7788 260.096 73.4632ZM290.362 55.7181C292.941 54.1359 295.036 51.8751 296.419 49.1823C297.896 46.0836 298.663 42.6935 298.663 39.26C298.663 35.8266 297.896 32.4365 296.419 29.3378C295.037 26.6399 292.942 24.3731 290.362 22.7837C287.775 21.2764 284.835 20.4822 281.842 20.4822C278.849 20.4822 275.909 21.2764 273.322 22.7837C270.743 24.3731 268.648 26.6399 267.266 29.3378C265.788 32.4365 265.021 35.8266 265.021 39.26C265.021 42.6935 265.788 46.0836 267.266 49.1823C268.648 51.8751 270.743 54.1359 273.322 55.7181C275.909 57.2255 278.849 58.0196 281.842 58.0196C284.835 58.0196 287.775 57.2255 290.362 55.7181Z" fill="url(#paint3_linear_114_105)"/>
<path d="M21.29 166.625C15.1012 163.463 9.91944 158.632 6.33044 152.677C2.78041 146.495 0.912231 139.489 0.912231 132.358C0.912231 125.227 2.78041 118.221 6.33044 112.039C9.91944 106.084 15.1012 101.253 21.29 98.0909C27.9162 94.7065 35.2692 92.9954 42.7078 93.107C49.4156 92.9924 56.0707 94.3119 62.2282 96.9773C67.8055 99.4431 72.6692 103.28 76.3668 108.132L60.4039 122.39C55.7579 116.524 50.2849 113.591 43.9848 113.591C41.6171 113.486 39.2542 113.886 37.0526 114.764C34.8511 115.642 32.861 116.978 31.2144 118.684C28.0899 122.563 26.3861 127.394 26.3861 132.376C26.3861 137.358 28.0899 142.19 31.2144 146.068C32.861 147.774 34.8511 149.11 37.0526 149.989C39.2542 150.867 41.6171 151.267 43.9848 151.162C50.2605 151.162 55.7335 148.229 60.4039 142.362L76.3668 156.694C72.6641 161.54 67.8018 165.376 62.2282 167.848C56.0693 170.507 49.4143 171.821 42.7078 171.7C35.2615 171.784 27.9082 170.041 21.29 166.625Z" stroke="white" stroke-miterlimit="10"/>
<path d="M97.8758 166.57C91.6017 163.329 86.3399 158.422 82.6667 152.388C78.9935 146.353 77.0505 139.424 77.0505 132.358C77.0505 125.292 78.9935 118.362 82.6667 112.328C86.3399 106.293 91.6017 101.387 97.8758 98.1456C104.649 94.83 112.09 93.1064 119.631 93.1064C127.172 93.1064 134.613 94.83 141.386 98.1456C147.66 101.387 152.922 106.293 156.595 112.328C160.269 118.362 162.212 125.292 162.212 132.358C162.212 139.424 160.269 146.353 156.595 152.388C152.922 158.422 147.66 163.329 141.386 166.57C134.613 169.886 127.172 171.609 119.631 171.609C112.09 171.609 104.649 169.886 97.8758 166.57ZM128.142 148.825C130.721 147.243 132.816 144.982 134.198 142.289C135.687 139.194 136.461 135.802 136.461 132.367C136.461 128.932 135.687 125.54 134.198 122.445C132.816 119.747 130.721 117.48 128.142 115.891C125.555 114.383 122.615 113.589 119.622 113.589C116.629 113.589 113.689 114.383 111.102 115.891C108.528 117.481 106.439 119.748 105.064 122.445C103.575 125.54 102.801 128.932 102.801 132.367C102.801 135.802 103.575 139.194 105.064 142.289C106.437 144.982 108.527 147.244 111.102 148.825C113.689 150.332 116.629 151.127 119.622 151.127C122.615 151.127 125.555 150.332 128.142 148.825Z" stroke="white" stroke-miterlimit="10"/>
<path d="M238.095 137.233C240.386 140.413 241.554 144.267 241.415 148.186C241.493 151.277 240.804 154.34 239.41 157.099C238.015 159.858 235.959 162.228 233.424 163.996C228.097 167.891 220.575 169.838 210.857 169.838H170.722V94.8232H208.777C218.069 94.8232 225.263 96.5393 230.359 99.9715C232.79 101.503 234.778 103.646 236.122 106.186C237.467 108.727 238.122 111.576 238.022 114.449C238.09 117.77 237.217 121.042 235.504 123.887C233.745 126.68 231.294 128.969 228.389 130.533C232.225 131.737 235.607 134.072 238.095 137.233ZM195.66 123.668H206.387C210.523 123.668 212.59 121.843 212.59 118.191C212.59 114.54 210.523 112.641 206.387 112.495H195.66V123.668ZM215.911 146.196C215.911 142.326 213.849 140.409 209.708 140.409H195.66V152.203H209.708C213.855 152.203 215.923 150.201 215.911 146.196Z" stroke="white" stroke-miterlimit="10"/>
<path d="M301.436 156.803H272.921L267.886 169.893H242.163L275.001 94.8232H299.83L332.668 169.893H306.398L301.436 156.803ZM294.467 138.547L287.169 119.67L279.872 138.547H294.467Z" stroke="white" stroke-miterlimit="10"/>
<path d="M78.9392 187.93V263H53.6538V235.342H30.2841V263H4.99872V187.93H30.2841V214.53H53.6538V187.93H78.9392Z" fill="url(#paint4_linear_114_105)"/>
<path d="M92.0562 187.93H116.922V226.962L142.755 187.93H166.471V263H141.678V224.078L115.955 263H92.0562V187.93Z" fill="url(#paint5_linear_114_105)"/>
<path d="M241.98 243.922V263H179.624V187.93H240.594V207.026H204.49V215.808H236.197V234.064H204.49V243.94L241.98 243.922Z" fill="url(#paint6_linear_114_105)"/>
</g>
<defs>
<linearGradient id="paint0_linear_114_105" x1="1.71491" y1="39.2512" x2="338.433" y2="39.2512" gradientUnits="userSpaceOnUse">
<stop stop-color="#B32DFF"/>
<stop offset="1" stop-color="#00FFFF"/>
</linearGradient>
<linearGradient id="paint1_linear_114_105" x1="1.71489" y1="39.2509" x2="338.433" y2="39.2509" gradientUnits="userSpaceOnUse">
<stop stop-color="#B32DFF"/>
<stop offset="1" stop-color="#00FFFF"/>
</linearGradient>
<linearGradient id="paint2_linear_114_105" x1="1.71491" y1="39.945" x2="338.433" y2="39.945" gradientUnits="userSpaceOnUse">
<stop stop-color="#B32DFF"/>
<stop offset="1" stop-color="#00FFFF"/>
</linearGradient>
<linearGradient id="paint3_linear_114_105" x1="1.71484" y1="39.2509" x2="338.433" y2="39.2509" gradientUnits="userSpaceOnUse">
<stop stop-color="#B32DFF"/>
<stop offset="1" stop-color="#00FFFF"/>
</linearGradient>
<linearGradient id="paint4_linear_114_105" x1="2.93722" y1="225.465" x2="282.955" y2="225.465" gradientUnits="userSpaceOnUse">
<stop stop-color="#B32DFF"/>
<stop offset="1" stop-color="#00FFFF"/>
</linearGradient>
<linearGradient id="paint5_linear_114_105" x1="2.93718" y1="225.465" x2="282.955" y2="225.465" gradientUnits="userSpaceOnUse">
<stop stop-color="#B32DFF"/>
<stop offset="1" stop-color="#00FFFF"/>
</linearGradient>
<linearGradient id="paint6_linear_114_105" x1="2.9371" y1="225.465" x2="282.955" y2="225.465" gradientUnits="userSpaceOnUse">
<stop stop-color="#B32DFF"/>
<stop offset="1" stop-color="#00FFFF"/>
</linearGradient>
<clipPath id="clip0_114_105">
<rect width="334" height="263" fill="white"/>
</clipPath>
</defs>
</svg>
