<svg width="245" height="102" viewBox="0 0 245 102" fill="none" xmlns="http://www.w3.org/2000/svg">
<g clip-path="url(#clip0_65_223)">
<path d="M29.72 2.82357C32.3944 3.96026 34.6754 5.85862 36.2787 8.28224C37.8821 10.7058 38.737 13.5476 38.737 16.4536C38.737 19.3595 37.8821 22.2013 36.2787 24.6249C34.6754 27.0485 32.3944 28.9469 29.72 30.0836C26.5781 31.3984 23.1951 32.0389 19.79 31.9636H13.86V42.0636H0V0.943567H19.79C23.1951 0.86828 26.5781 1.50877 29.72 2.82357ZM23.14 20.0036C24.0449 19.041 24.5487 17.7697 24.5487 16.4486C24.5487 15.1275 24.0449 13.8561 23.14 12.8936C21.9332 11.9672 20.427 11.5186 18.91 11.6336H13.91V21.2636H18.91C20.427 21.3785 21.9332 20.9299 23.14 20.0036Z" fill="url(#paint0_linear_65_223)"/>
<path d="M76.77 31.6036V42.0636H42.59V0.943604H76.01V11.4036H56.21V16.2136H73.6V26.2136H56.21V31.6136L76.77 31.6036Z" fill="url(#paint1_linear_65_223)"/>
<path d="M113.99 11.6936H96.3101V42.0636H82.6801V0.943604H113.99V11.6936Z" fill="url(#paint2_linear_65_223)"/>
<path d="M117.77 0.943604H131.4V22.3236L145.55 0.943604H158.55V42.0636H144.97V20.7536L130.87 42.0736H117.77V0.943604Z" fill="url(#paint3_linear_65_223)"/>
<path d="M174.63 40.2736C171.238 38.5415 168.397 35.8952 166.43 32.6336C164.484 29.247 163.46 25.4094 163.46 21.5036C163.46 17.5977 164.484 13.7602 166.43 10.3736C168.397 7.11198 171.238 4.46562 174.63 2.73358C178.262 0.879713 182.293 -0.0575208 186.37 0.00358363C190.046 -0.0574483 193.693 0.661704 197.07 2.11358C200.125 3.46759 202.79 5.5688 204.82 8.22359L196.07 16.0436C193.517 12.8369 190.517 11.2303 187.07 11.2236C185.772 11.1663 184.477 11.3853 183.27 11.8663C182.063 12.3473 180.973 13.0792 180.07 14.0136C178.357 16.1381 177.423 18.7847 177.423 21.5136C177.423 24.2424 178.357 26.8891 180.07 29.0136C180.973 29.9479 182.063 30.6799 183.27 31.1608C184.477 31.6418 185.772 31.8609 187.07 31.8036C190.51 31.8036 193.51 30.1969 196.07 26.9836L204.82 34.8036C202.788 37.4556 200.123 39.5563 197.07 40.9136C193.693 42.3655 190.046 43.0846 186.37 43.0236C182.291 43.0785 178.26 42.1344 174.63 40.2736Z" fill="url(#paint4_linear_65_223)"/>
<path d="M244.91 11.6936H232.91V42.0636H219.21V11.6936H207.21V0.943604H244.91V11.6936Z" fill="url(#paint5_linear_65_223)"/>
<path d="M29.72 53.8236C32.3944 54.9603 34.6754 56.8586 36.2787 59.2822C37.8821 61.7058 38.737 64.5476 38.737 67.4536C38.737 70.3595 37.8821 73.2013 36.2787 75.6249C34.6754 78.0485 32.3944 79.9469 29.72 81.0836C26.5781 82.3984 23.1951 83.0389 19.79 82.9636H13.86V93.0636H0V51.9436H19.79C23.1951 51.8683 26.5781 52.5088 29.72 53.8236ZM23.14 71.0036C24.0449 70.041 24.5487 68.7697 24.5487 67.4486C24.5487 66.1275 24.0449 64.8561 23.14 63.8936C21.9332 62.9672 20.427 62.5186 18.91 62.6336H13.91V72.2636H18.91C20.4275 72.3833 21.9354 71.9342 23.14 71.0036Z" stroke="white" stroke-miterlimit="10"/>
<path d="M68.37 85.8936H52.75L49.99 93.0636H35.89L53.89 51.9436H67.52L85.52 93.0636H71.14L68.37 85.8936ZM64.56 75.8936L60.56 65.5536L56.56 75.8936H64.56Z" stroke="white" stroke-miterlimit="10"/>
<path d="M134.63 82.3136V101.114H121.94V93.0636H88.9399V51.9436H102.57V82.3136H115.57V51.9436H129.21V82.3136H134.63Z" stroke="white" stroke-miterlimit="10"/>
<path d="M139.35 51.9436H152.97V73.3236L167.13 51.9436H180.13V93.0636H166.54V71.7536L152.45 93.0736H139.35V51.9436Z" stroke="white" stroke-miterlimit="10"/>
<path d="M216.38 93.0636H209.95V83.3136H206.21L199.93 93.0636H185.46L193.56 81.3136C191.04 80.1836 188.908 78.3369 187.43 76.0036C186.248 74.1487 185.482 72.0593 185.186 69.8796C184.89 67.6999 185.07 65.4819 185.715 63.3788C186.359 61.2756 187.453 59.3375 188.919 57.6981C190.386 56.0588 192.191 54.7573 194.21 53.8836C197.401 52.5267 200.844 51.8653 204.31 51.9436H223.58V57.1736M199.26 67.6236C199.26 71.1169 201.023 72.8603 204.55 72.8536H209.95V62.6336H204.55C201.02 62.6336 199.26 64.3036 199.26 67.6236Z" stroke="white" stroke-miterlimit="10"/>
</g>
<defs>
<linearGradient id="paint0_linear_65_223" x1="-1.12" y1="21.5036" x2="241.54" y2="21.5036" gradientUnits="userSpaceOnUse">
<stop offset="0.08" stop-color="#B32DFF"/>
<stop offset="1" stop-color="#00FFFF"/>
</linearGradient>
<linearGradient id="paint1_linear_65_223" x1="-1.12003" y1="21.5036" x2="241.54" y2="21.5036" gradientUnits="userSpaceOnUse">
<stop offset="0.08" stop-color="#B32DFF"/>
<stop offset="1" stop-color="#00FFFF"/>
</linearGradient>
<linearGradient id="paint2_linear_65_223" x1="-1.11993" y1="21.5036" x2="241.54" y2="21.5036" gradientUnits="userSpaceOnUse">
<stop offset="0.08" stop-color="#B32DFF"/>
<stop offset="1" stop-color="#00FFFF"/>
</linearGradient>
<linearGradient id="paint3_linear_65_223" x1="-1.11997" y1="21.5036" x2="241.54" y2="21.5036" gradientUnits="userSpaceOnUse">
<stop offset="0.08" stop-color="#B32DFF"/>
<stop offset="1" stop-color="#00FFFF"/>
</linearGradient>
<linearGradient id="paint4_linear_65_223" x1="-1.1199" y1="21.5036" x2="241.54" y2="21.5036" gradientUnits="userSpaceOnUse">
<stop offset="0.08" stop-color="#B32DFF"/>
<stop offset="1" stop-color="#00FFFF"/>
</linearGradient>
<linearGradient id="paint5_linear_65_223" x1="-1.12011" y1="21.5036" x2="241.54" y2="21.5036" gradientUnits="userSpaceOnUse">
<stop offset="0.08" stop-color="#B32DFF"/>
<stop offset="1" stop-color="#00FFFF"/>
</linearGradient>
<clipPath id="clip0_65_223">
<rect width="245" height="102" fill="white"/>
</clipPath>
</defs>
</svg>
