<svg width="370" height="253" viewBox="0 0 370 253" fill="none" xmlns="http://www.w3.org/2000/svg">
<g clip-path="url(#clip0_119_148)">
<path d="M58.1001 5.27274C62.7748 7.25848 66.7619 10.5758 69.5646 14.8115C72.3673 19.0471 73.8618 24.0138 73.8618 29.0927C73.8618 34.1717 72.3673 39.1384 69.5646 43.374C66.7619 47.6097 62.7748 50.927 58.1001 52.9127C52.6143 55.2107 46.7063 56.3283 40.7601 56.1927H30.3901V73.8527H6.16016V2.00274H40.7601C46.7055 1.86404 52.6136 2.97819 58.1001 5.27274ZM46.6101 35.2727C48.19 33.5909 49.0695 31.3702 49.0695 29.0627C49.0695 26.7553 48.19 24.5345 46.6101 22.8527C44.9701 21.3827 42.5002 20.6427 39.2202 20.6427H30.3901V37.4827H39.2202C42.5002 37.5127 44.9701 36.7727 46.6101 35.3027V35.2727Z" fill="url(#paint0_linear_119_148)"/>
<path d="M139.97 55.5729V73.8529H80.2202V2.00293H138.63V20.2729H104.03V28.6929H134.42V46.1429H104.03V55.5829L139.97 55.5729Z" fill="url(#paint1_linear_119_148)"/>
<path d="M206.98 43.3628C209.129 46.3479 210.262 49.9449 210.21 53.6228C210.234 55.8012 209.825 57.9627 209.006 59.9816C208.187 62.0004 206.975 63.8364 205.44 65.3828C201.86 68.9413 197.451 71.5531 192.61 72.9828C186.81 74.7857 180.763 75.6664 174.69 75.5928C164.404 75.6339 154.225 73.5007 144.82 69.3328L151.91 52.6028C155.292 53.9777 158.798 55.0258 162.38 55.7328C165.76 56.427 169.2 56.7888 172.65 56.8128C175.897 56.933 179.134 56.3709 182.15 55.1628C184.57 54.0728 185.79 52.4628 185.79 50.3428C185.79 47.4694 183.43 46.0328 178.71 46.0328H159.31V28.5828H176.65C178.289 28.6891 179.921 28.2951 181.33 27.4528C181.843 27.0979 182.257 26.6195 182.535 26.0619C182.813 25.5042 182.945 24.8854 182.92 24.2628C182.909 23.3757 182.633 22.5121 182.129 21.782C181.625 21.0518 180.916 20.4882 180.09 20.1628C177.757 19.1092 175.209 18.6161 172.65 18.7228C169.499 18.7585 166.363 19.1715 163.31 19.9528C160.007 20.756 156.803 21.9267 153.76 23.4428L146.68 5.44277C154.807 1.77438 163.634 -0.081895 172.55 0.00277128C178.415 -0.0531773 184.253 0.81064 189.85 2.56277C194.635 3.97656 199.004 6.53344 202.58 10.0128C204.104 11.5007 205.312 13.2808 206.131 15.2465C206.951 17.2122 207.366 19.3231 207.35 21.4528C207.389 24.5391 206.535 27.571 204.89 30.1828C203.185 32.8362 200.812 34.9949 198.01 36.4428C201.599 37.8476 204.711 40.2485 206.98 43.3628Z" fill="url(#paint2_linear_119_148)"/>
<path d="M78.02 91.123L49.17 145.223C45.75 151.65 41.56 156.543 36.6 159.903C31.7775 163.201 26.0622 164.945 20.2201 164.903C15.4103 164.865 10.6544 163.887 6.22009 162.023L11.91 144.603C14.3108 145.327 16.7943 145.74 19.3 145.833C20.8732 145.874 22.4353 145.56 23.87 144.913C25.2939 144.165 26.5365 143.113 27.51 141.833L0 91.123H25.5601L39.8301 121.403L54.61 91.123H78.02Z" stroke="white" stroke-miterlimit="10"/>
<path d="M148.59 91.123V163.003H124.77V109.903H108.35L108.14 118.223C108.048 126.695 107.225 135.143 105.68 143.473C104.313 150.046 101.917 155.163 98.49 158.823C95.0633 162.483 90.1701 164.313 83.8101 164.313C80.3461 164.279 76.8985 163.832 73.54 162.983L74.78 143.573C75.6516 143.78 76.5443 143.884 77.4401 143.883C78.5949 143.933 79.7421 143.673 80.7633 143.132C81.7846 142.591 82.6429 141.787 83.25 140.803C84.7382 138.295 85.6662 135.494 85.9701 132.593C86.4401 129.173 86.7901 124.683 86.9701 119.143L87.9 91.1431L148.59 91.123Z" stroke="white" stroke-miterlimit="10"/>
<path d="M220.26 119.193C225.12 123.193 227.55 129.096 227.55 136.903C227.55 145.323 224.78 151.773 219.24 156.253C213.7 160.733 206.104 162.983 196.45 163.003H160.82V91.123H184.64V113.193H199.53C208.49 113.193 215.4 115.193 220.26 119.193ZM200.91 143.733C201.723 142.882 202.352 141.873 202.758 140.768C203.164 139.664 203.338 138.488 203.27 137.313C203.27 132.52 200.464 130.126 194.85 130.133H184.69V146.003H194.85C195.961 146.049 197.069 145.872 198.11 145.482C199.151 145.092 200.103 144.497 200.91 143.733Z" stroke="white" stroke-miterlimit="10"/>
<path d="M290.14 109.903H269.14V163.003H245.32V109.903H224.32V91.123H290.23L290.14 109.903Z" stroke="white" stroke-miterlimit="10"/>
<path d="M339.6 150.453H312.29L307.47 163.003H282.83L314.24 91.1431H338.06L369.47 163.003H344.47L339.6 150.453ZM332.91 133.003L325.91 114.933L318.91 133.003H332.91Z" stroke="white" stroke-miterlimit="10"/>
<path d="M67.3401 199.003H46.3401V252.103H22.52V199.003H1.52002V180.243H67.42L67.3401 199.003Z" fill="url(#paint3_linear_119_148)"/>
<path d="M133.08 208.323C137.94 212.323 140.367 218.227 140.36 226.033C140.36 234.453 137.59 240.903 132.05 245.383C126.51 249.863 118.913 252.103 109.26 252.103H73.6401V180.243H97.4502V202.323H112.34C121.3 202.323 128.214 204.323 133.08 208.323ZM113.67 232.863C114.484 232.013 115.114 231.004 115.52 229.899C115.926 228.795 116.1 227.618 116.03 226.443C116.03 221.65 113.227 219.253 107.62 219.253H97.4502V235.173H107.62C108.732 235.214 109.841 235.031 110.88 234.634C111.92 234.237 112.869 233.635 113.67 232.863ZM146.91 180.243H170.72V252.103H146.91V180.243Z" fill="url(#paint4_linear_119_148)"/>
</g>
<defs>
<linearGradient id="paint0_linear_119_148" x1="-29.4899" y1="37.6227" x2="243.19" y2="39.1527" gradientUnits="userSpaceOnUse">
<stop stop-color="#B32DFF"/>
<stop offset="1" stop-color="#00FFFF"/>
</linearGradient>
<linearGradient id="paint1_linear_119_148" x1="-29.4898" y1="37.1429" x2="243.19" y2="38.6729" gradientUnits="userSpaceOnUse">
<stop stop-color="#B32DFF"/>
<stop offset="1" stop-color="#00FFFF"/>
</linearGradient>
<linearGradient id="paint2_linear_119_148" x1="-29.4897" y1="36.6728" x2="243.2" y2="38.2128" gradientUnits="userSpaceOnUse">
<stop stop-color="#B32DFF"/>
<stop offset="1" stop-color="#00FFFF"/>
</linearGradient>
<linearGradient id="paint3_linear_119_148" x1="-13.7" y1="215.793" x2="217.62" y2="217.323" gradientUnits="userSpaceOnUse">
<stop stop-color="#B32DFF"/>
<stop offset="1" stop-color="#00FFFF"/>
</linearGradient>
<linearGradient id="paint4_linear_119_148" x1="-13.6899" y1="215.273" x2="217.63" y2="216.813" gradientUnits="userSpaceOnUse">
<stop stop-color="#B32DFF"/>
<stop offset="1" stop-color="#00FFFF"/>
</linearGradient>
<clipPath id="clip0_119_148">
<rect width="370" height="253" fill="white"/>
</clipPath>
</defs>
</svg>
