<svg width="302" height="64" viewBox="0 0 302 64" fill="none" xmlns="http://www.w3.org/2000/svg">
<path d="M16.8733 58.3063C12.051 55.8371 8.01321 52.0717 5.21377 47.4334C2.45261 42.6114 1 37.1513 1 31.5947C1 26.0381 2.45261 20.5781 5.21377 15.7561C8.01321 11.1178 12.051 7.3524 16.8733 4.88325C22.0463 2.24807 27.785 0.917063 33.5899 1.0061C38.8176 0.910662 44.005 1.93568 48.8035 4.01227C53.1574 5.93486 56.9553 8.92582 59.8449 12.7077L47.3847 23.8194C43.7604 19.2586 39.4993 16.9735 34.6013 16.9642C32.7565 16.8837 30.9156 17.1966 29.2008 17.882C27.4861 18.5674 25.9368 19.6097 24.6556 20.9396C22.2187 23.9562 20.8894 27.7169 20.8894 31.5947C20.8894 35.4726 22.2187 39.2333 24.6556 42.2498C25.9368 43.5798 27.4861 44.6221 29.2008 45.3075C30.9156 45.9929 32.7565 46.3058 34.6013 46.2253C39.5086 46.2253 43.7697 43.9402 47.3847 39.3701L59.8449 50.4817C56.9553 54.2637 53.1574 57.2546 48.8035 59.1772C44.0061 61.2586 38.8186 62.2885 33.5899 62.1974C27.7839 62.2821 22.0451 60.9463 16.8733 58.3063Z" stroke="url(#paint0_linear_54_98)" stroke-miterlimit="10"/>
<path d="M117.286 17.6385H100.147V60.7927H80.7618V17.6385H63.6237V2.34064H117.286V17.6385Z" stroke="url(#paint1_linear_54_98)" stroke-miterlimit="10"/>
<path d="M158.796 50.6503H136.559L132.64 60.7927H112.58L138.16 2.28442H157.546L183.127 60.7927H162.73L158.796 50.6503ZM153.374 36.4482L147.685 21.7263L142.066 36.4482H153.374Z" stroke="url(#paint2_linear_54_98)" stroke-miterlimit="10"/>
<path d="M230.874 5.00968C234.68 6.62688 237.925 9.32784 240.206 12.7762C242.488 16.2245 243.704 20.2677 243.704 24.4024C243.704 28.537 242.488 32.5803 240.206 36.0286C237.925 39.4769 234.68 42.1779 230.874 43.7951C226.404 45.6708 221.589 46.585 216.743 46.4782H208.314V60.7927H188.647V2.34064H216.743C221.588 2.22942 226.403 3.13878 230.874 5.00968ZM221.505 29.4666C222.794 28.0982 223.512 26.2893 223.512 24.4094C223.512 22.5295 222.794 20.7206 221.505 19.3523C219.794 18.0266 217.65 17.3856 215.492 17.5542H208.3V31.2927H215.492C217.653 31.4466 219.794 30.7962 221.505 29.4666Z" stroke="url(#paint3_linear_54_98)" stroke-miterlimit="10"/>
<path d="M301 17.6385H283.876V60.7927H264.476V17.6385H247.338V2.34064H301V17.6385Z" stroke="url(#paint4_linear_54_98)" stroke-miterlimit="10"/>
<defs>
<linearGradient id="paint0_linear_54_98" x1="30.5416" y1="62.8858" x2="30.5416" y2="0.303721" gradientUnits="userSpaceOnUse">
<stop stop-color="#E238AF"/>
<stop offset="1" stop-color="#FFB369"/>
</linearGradient>
<linearGradient id="paint1_linear_54_98" x1="90.5108" y1="61.5513" x2="90.5108" y2="1.63826" gradientUnits="userSpaceOnUse">
<stop stop-color="#E238AF"/>
<stop offset="1" stop-color="#FFB369"/>
</linearGradient>
<linearGradient id="paint2_linear_54_98" x1="147.853" y1="61.5512" x2="147.853" y2="1.63823" gradientUnits="userSpaceOnUse">
<stop stop-color="#E238AF"/>
<stop offset="1" stop-color="#FFB369"/>
</linearGradient>
<linearGradient id="paint3_linear_54_98" x1="215.984" y1="61.5513" x2="215.984" y2="1.63827" gradientUnits="userSpaceOnUse">
<stop stop-color="#E238AF"/>
<stop offset="1" stop-color="#FFB369"/>
</linearGradient>
<linearGradient id="paint4_linear_54_98" x1="274.169" y1="61.5513" x2="274.169" y2="1.63826" gradientUnits="userSpaceOnUse">
<stop stop-color="#E238AF"/>
<stop offset="1" stop-color="#FFB369"/>
</linearGradient>
</defs>
</svg>
