<svg width="225" height="117" viewBox="0 0 225 117" fill="none" xmlns="http://www.w3.org/2000/svg">
<path d="M5.21 108.061H2.29V113.831H1V101.211H2.29V106.861H5.21L9.48 101.211H10.92L6.21 107.321L11.21 113.801H9.62L5.21 108.061Z" fill="white"/>
<path d="M14.21 113.271C13.485 112.87 12.886 112.274 12.48 111.551C12.0598 110.785 11.8396 109.925 11.8396 109.051C11.8396 108.177 12.0598 107.318 12.48 106.551C12.8949 105.848 13.4928 105.271 14.21 104.881C14.97 104.481 15.816 104.272 16.675 104.272C17.5339 104.272 18.38 104.481 19.14 104.881C19.8616 105.28 20.4573 105.872 20.86 106.591C21.274 107.36 21.4907 108.219 21.4907 109.091C21.4907 109.964 21.274 110.823 20.86 111.591C20.4606 112.316 19.8642 112.912 19.14 113.311C18.3821 113.718 17.5352 113.931 16.675 113.931C15.8147 113.931 14.9679 113.718 14.21 113.311V113.271ZM18.49 112.271C19.0227 111.967 19.4566 111.516 19.74 110.971C20.0363 110.371 20.1904 109.711 20.1904 109.041C20.1904 108.372 20.0363 107.712 19.74 107.111C19.4539 106.569 19.0206 106.119 18.49 105.811C17.9383 105.5 17.3135 105.341 16.68 105.351C16.0462 105.338 15.4207 105.497 14.87 105.811C14.3343 106.115 13.897 106.566 13.61 107.111C13.3077 107.71 13.1501 108.371 13.1501 109.041C13.1501 109.712 13.3077 110.373 13.61 110.971C13.8942 111.518 14.3322 111.97 14.87 112.271C15.4207 112.585 16.0462 112.744 16.68 112.731C17.3074 112.749 17.9284 112.601 18.48 112.301L18.49 112.271Z" fill="white"/>
<path d="M34.77 104.342V113.802H33.6V106.322L29.77 112.652H29.21L25.38 106.302V113.802H24.21V104.342H25.51L29.51 111.162L33.59 104.342H34.77Z" fill="white"/>
<path d="M44.49 105.191C44.8404 105.554 45.1106 105.986 45.2829 106.46C45.4552 106.934 45.5257 107.438 45.49 107.941V113.801H44.27V112.331C43.9721 112.834 43.5295 113.235 43 113.481C42.3748 113.773 41.6896 113.914 41 113.891C40.0985 113.941 39.2078 113.675 38.48 113.141C38.1787 112.904 37.937 112.599 37.7738 112.252C37.6106 111.905 37.5306 111.525 37.54 111.141C37.5274 110.772 37.6003 110.405 37.7529 110.068C37.9056 109.732 38.1338 109.435 38.42 109.201C39.2328 108.64 40.2155 108.378 41.2 108.461H44.2V107.881C44.2242 107.541 44.1761 107.199 44.0589 106.879C43.9417 106.558 43.7581 106.266 43.52 106.021C42.961 105.558 42.2443 105.328 41.52 105.381C40.9301 105.379 40.3444 105.48 39.79 105.681C39.2695 105.864 38.7879 106.142 38.37 106.501L37.79 105.501C38.3008 105.08 38.8882 104.761 39.52 104.561C40.208 104.339 40.927 104.228 41.65 104.231C42.6853 104.171 43.7035 104.515 44.49 105.191ZM43.05 112.391C43.5822 112.054 43.9895 111.552 44.21 110.961V109.411H41.21C39.59 109.411 38.78 109.981 38.78 111.111C38.7707 111.363 38.8232 111.613 38.9331 111.84C39.0429 112.066 39.2066 112.263 39.41 112.411C39.9316 112.761 40.5533 112.929 41.18 112.891C41.8388 112.911 42.4889 112.737 43.05 112.391Z" fill="white"/>
<path d="M48.8 104.342H50.08V108.532H56.03V104.342H57.31V113.802H56.03V109.632H50.08V113.802H48.8V104.342Z" fill="white"/>
<path d="M70.26 112.692V116.062H69.05V113.772H60.58V116.062H59.37V112.662H59.91C60.55 112.662 60.98 112.162 61.21 111.262C61.4767 110.018 61.6306 108.753 61.67 107.482L61.8 104.312H68.8V112.662L70.26 112.692ZM62.5 110.902C62.4283 111.588 62.1082 112.225 61.6 112.692H67.51V105.472H62.95L62.84 107.582C62.8059 108.695 62.6923 109.804 62.5 110.902Z" fill="white"/>
<path d="M79.39 108.482C79.7087 108.755 79.9596 109.099 80.1227 109.486C80.2858 109.873 80.3568 110.292 80.33 110.712C80.3559 111.149 80.279 111.587 80.1054 111.99C79.9317 112.393 79.6662 112.75 79.33 113.032C78.4925 113.625 77.473 113.905 76.45 113.822H72.71V104.362H73.99V107.672H76.69C77.6565 107.622 78.6105 107.908 79.39 108.482ZM78.39 112.322C78.6195 112.124 78.7997 111.876 78.9161 111.596C79.0324 111.316 79.0817 111.014 79.06 110.712C79.0822 110.419 79.0338 110.126 78.9189 109.856C78.8041 109.586 78.6261 109.348 78.4 109.162C77.8031 108.786 77.1044 108.604 76.4 108.642H74.01V112.852H76.4C77.095 112.908 77.7881 112.721 78.36 112.322H78.39ZM81.94 104.322H83.21V113.782H81.91L81.94 104.322Z" fill="white"/>
<path d="M41.72 1.12158V42.2416H27.85V27.0616H15.05V42.2216H1.20996V1.12158H15.05V15.6916H27.85V1.12158H41.72Z" fill="url(#paint0_linear_70_393)"/>
<path d="M77.66 35.0616H62.04L59.28 42.2316H45.21L63.21 1.11157H76.84L94.84 42.2316H80.42L77.66 35.0616ZM73.84 25.0616L69.84 14.7316L65.84 25.0616H73.84Z" fill="url(#paint1_linear_70_393)"/>
<path d="M132.01 24.7915C133.244 26.5012 133.893 28.5634 133.86 30.6715C133.873 31.9167 133.639 33.1521 133.17 34.3057C132.701 35.4594 132.008 36.5084 131.13 37.3915C129.082 39.4279 126.56 40.9227 123.79 41.7415C120.474 42.778 117.014 43.2842 113.54 43.2415C107.654 43.262 101.83 42.0386 96.45 39.6515L100.45 30.0815C102.388 30.8692 104.397 31.4686 106.45 31.8715C108.382 32.2681 110.348 32.4758 112.32 32.4915C114.179 32.5574 116.031 32.2373 117.76 31.5515C118.349 31.3621 118.865 30.9952 119.237 30.5011C119.61 30.007 119.82 29.4099 119.84 28.7915C119.84 27.1448 118.507 26.3215 115.84 26.3215H104.74V16.3215H114.67C115.604 16.3837 116.535 16.1605 117.34 15.6815C117.634 15.4801 117.871 15.2074 118.03 14.8891C118.189 14.5707 118.265 14.2171 118.25 13.8615C118.245 13.3529 118.088 12.8574 117.8 12.4386C117.511 12.0198 117.104 11.697 116.63 11.5115C115.295 10.9045 113.835 10.6202 112.37 10.6815C110.568 10.7042 108.775 10.9426 107.03 11.3915C105.141 11.8519 103.309 12.5228 101.57 13.3915L97.51 3.12149C102.162 1.01901 107.215 -0.0456367 112.32 0.00149953C115.673 -0.0297437 119.011 0.466311 122.21 1.4715C124.951 2.27484 127.454 3.73745 129.5 5.7315C130.372 6.58338 131.064 7.6026 131.533 8.72809C132.002 9.85358 132.239 11.0622 132.23 12.2815C132.253 14.0494 131.763 15.7861 130.82 17.2815C129.847 18.8053 128.487 20.044 126.88 20.8715C128.93 21.66 130.711 23.0206 132.01 24.7915Z" fill="url(#paint2_linear_70_393)"/>
<path d="M38.07 75.3516C39.3311 77.092 39.9752 79.2036 39.9 81.3516C39.9505 83.0529 39.5765 84.74 38.8118 86.2607C38.0471 87.7813 36.9158 89.0876 35.52 90.0616C32.6 92.1883 28.4766 93.2549 23.15 93.2616H1.20996V52.1216H22.04C27.1333 52.1216 31.0766 53.0616 33.87 54.9416C35.2026 55.7805 36.2918 56.9543 37.0288 58.3458C37.7658 59.7373 38.1248 61.2979 38.07 62.8716C38.1114 64.6974 37.6328 66.4974 36.69 68.0616C35.7261 69.5913 34.3825 70.8454 32.79 71.7016C34.8753 72.3629 36.7145 73.6343 38.07 75.3516ZM14.81 67.9216H20.69C22.9566 67.9216 24.09 66.9216 24.09 64.9216C24.09 62.9216 22.9566 61.8849 20.69 61.8116H14.81V67.9216ZM25.91 80.2516C25.91 78.1449 24.7766 77.0883 22.51 77.0816H14.81V83.5516H22.51C24.7766 83.5516 25.91 82.4516 25.91 80.2516Z" stroke="white" stroke-miterlimit="10"/>
<path d="M72.79 86.0616H57.21L54.44 93.2316H40.31L58.31 52.1116H71.91L89.91 93.2316H75.55L72.79 86.0616ZM68.97 76.0616L64.97 65.7216L60.97 76.0616H68.97Z" stroke="white" stroke-miterlimit="10"/>
<path d="M133.88 52.1216V93.2416H120.01V78.0616H107.21V93.2216H93.34V52.1216H107.21V66.6916H120.01V52.1216H133.88Z" stroke="white" stroke-miterlimit="10"/>
<path d="M141.07 52.1216H154.7V73.5016L168.86 52.1216H181.86V93.2416H168.27V71.9116L154.21 93.2416H141.11L141.07 52.1216Z" stroke="white" stroke-miterlimit="10"/>
<path d="M223.21 82.7816V93.2416H189.06V52.1216H222.49V62.5716H202.69V67.3916H220.08V77.3916H202.69V82.7916L223.21 82.7816Z" fill="url(#paint3_linear_70_393)"/>
<defs>
<linearGradient id="paint0_linear_70_393" x1="-4.12004" y1="21.6816" x2="138.43" y2="21.6816" gradientUnits="userSpaceOnUse">
<stop offset="0.08" stop-color="#B32DFF"/>
<stop offset="1" stop-color="#00FFFF"/>
</linearGradient>
<linearGradient id="paint1_linear_70_393" x1="-4.12004" y1="21.6816" x2="138.43" y2="21.6816" gradientUnits="userSpaceOnUse">
<stop offset="0.08" stop-color="#B32DFF"/>
<stop offset="1" stop-color="#00FFFF"/>
</linearGradient>
<linearGradient id="paint2_linear_70_393" x1="-4.11995" y1="21.6215" x2="138.43" y2="21.6215" gradientUnits="userSpaceOnUse">
<stop offset="0.08" stop-color="#B32DFF"/>
<stop offset="1" stop-color="#00FFFF"/>
</linearGradient>
<linearGradient id="paint3_linear_70_393" x1="137.54" y1="72.6816" x2="244.88" y2="72.6816" gradientUnits="userSpaceOnUse">
<stop stop-color="#B32DFF"/>
<stop offset="1" stop-color="#00FFFF"/>
</linearGradient>
</defs>
</svg>
