<svg width="226" height="145" viewBox="0 0 226 145" fill="none" xmlns="http://www.w3.org/2000/svg">
<g clip-path="url(#clip0_77_490)">
<path d="M39.73 0.940186V42.0602H26.15V11.6902H13.63V42.0602H0V0.940186H39.73Z" fill="url(#paint0_linear_77_490)"/>
<path d="M76.66 2.82031C79.3202 3.9348 81.5895 5.81426 83.18 8.22031C84.6777 10.7024 85.4693 13.5463 85.4693 16.4453C85.4693 19.3443 84.6777 22.1882 83.18 24.6703C81.5895 27.0764 79.3202 28.9558 76.66 30.0703C73.5227 31.3889 70.1422 32.0296 66.74 31.9503H60.8V42.0603H46.94V0.940316H66.73C70.1351 0.864731 73.5182 1.50522 76.66 2.82031ZM70.08 20.0003C70.9849 19.0378 71.4887 17.7664 71.4887 16.4453C71.4887 15.1242 70.9849 13.8528 70.08 12.8903C68.8732 11.964 67.367 11.5153 65.85 11.6303H60.8V21.2603H65.85C67.367 21.3753 68.8732 20.9267 70.08 20.0003Z" fill="url(#paint1_linear_77_490)"/>
<path d="M99.5 40.2402C96.058 38.4672 93.1708 35.7805 91.155 32.4748C89.1393 29.1691 88.0729 25.372 88.0729 21.5002C88.0729 17.6284 89.1393 13.8314 91.155 10.5256C93.1708 7.2199 96.058 4.53319 99.5 2.76022C103.213 0.944081 107.292 0 111.425 0C115.558 0 119.637 0.944081 123.35 2.76022C126.789 4.53569 129.673 7.2233 131.687 10.5287C133.7 13.8341 134.765 17.6298 134.765 21.5002C134.765 25.3706 133.7 29.1663 131.687 32.4717C129.673 35.7771 126.789 38.4647 123.35 40.2402C119.637 42.0563 115.558 43.0004 111.425 43.0004C107.292 43.0004 103.213 42.0563 99.5 40.2402ZM116.09 30.5202C117.504 29.6496 118.652 28.408 119.41 26.9302C120.22 25.2329 120.64 23.3759 120.64 21.4952C120.64 19.6145 120.22 17.7576 119.41 16.0602C118.652 14.5853 117.504 13.3469 116.09 12.4802C114.672 11.6545 113.061 11.2195 111.42 11.2195C109.779 11.2195 108.168 11.6545 106.75 12.4802C105.336 13.3469 104.188 14.5853 103.43 16.0602C102.62 17.7576 102.2 19.6145 102.2 21.4952C102.2 23.3759 102.62 25.2329 103.43 26.9302C104.182 28.4054 105.323 29.6468 106.73 30.5202C108.148 31.3459 109.759 31.7809 111.4 31.7809C113.041 31.7809 114.652 31.3459 116.07 30.5202H116.09Z" fill="url(#paint2_linear_77_490)"/>
<path d="M46.5 51.9402H82.16V62.3902H60.16V67.1502H69.97C74.97 67.1502 78.83 68.2202 81.52 70.3502C84.21 72.4802 85.52 75.5702 85.52 79.6102C85.6014 81.5002 85.2279 83.3822 84.4309 85.098C83.6339 86.8138 82.4368 88.3131 80.94 89.4702C77.88 91.8568 73.63 93.0535 68.19 93.0602H46.5V51.9402ZM67.23 83.3702C68.3659 83.4374 69.4919 83.1242 70.43 82.4802C70.8101 82.1835 71.1131 81.7995 71.3133 81.3609C71.5134 80.9222 71.6049 80.4417 71.58 79.9602C71.58 77.8402 70.13 76.7902 67.23 76.7902H60.13V83.3702H67.23Z" stroke="white" stroke-miterlimit="10"/>
<path d="M130.9 51.9402V93.0602H117.04V77.9002H104.23V93.0602H90.37V51.9402H104.23V66.5102H117.04V51.9402H130.9Z" stroke="white" stroke-miterlimit="10"/>
<path d="M166.84 85.8902H151.23L148.47 93.0602H134.37L152.37 51.9402H166L184 93.0602H169.61L166.84 85.8902ZM163.03 75.8902L159.03 65.5502L155.03 75.8902H163.03Z" stroke="white" stroke-miterlimit="10"/>
<path d="M224.58 51.9402V93.0602H210.95V83.3202H207.23L200.94 93.0702H186.45L194.56 81.3202C192.036 80.1866 189.901 78.3367 188.42 76.0002C186.946 73.5496 186.204 70.7288 186.28 67.8702C186.205 64.8835 187.012 61.9409 188.6 59.4102C190.214 56.9652 192.508 55.0462 195.2 53.8902C198.392 52.5274 201.84 51.8658 205.31 51.9502L224.58 51.9402ZM200.23 67.6202C200.23 71.1069 201.99 72.8502 205.51 72.8502H210.92V62.6302H205.51C201.99 62.6302 200.23 64.2935 200.23 67.6202Z" stroke="white" stroke-miterlimit="10"/>
<path d="M0 102.94H13.63V124.32L27.79 102.94H40.79V144.06H27.2V122.73L13.1 144.06H0V102.94Z" fill="url(#paint3_linear_77_490)"/>
<path d="M79.31 113.69H61.62V144.06H48V102.94H79.31V113.69Z" fill="url(#paint4_linear_77_490)"/>
<path d="M112.81 104.82C115.47 105.935 117.74 107.814 119.33 110.22C120.828 112.702 121.619 115.546 121.619 118.445C121.619 121.344 120.828 124.188 119.33 126.67C117.74 129.076 115.47 130.956 112.81 132.07C109.673 133.389 106.292 134.029 102.89 133.95H96.95V144.06H83.09V102.94H102.89C106.292 102.861 109.673 103.502 112.81 104.82ZM106.23 122C107.135 121.038 107.639 119.766 107.639 118.445C107.639 117.124 107.135 115.853 106.23 114.89C105.023 113.964 103.517 113.515 102 113.63H96.95V123.26H102C103.517 123.375 105.023 122.926 106.23 122Z" fill="url(#paint5_linear_77_490)"/>
<path d="M151.47 136.89H135.84L133.08 144.06H118.98L136.98 102.94H150.6L168.6 144.06H154.23L151.47 136.89ZM147.65 126.89L143.65 116.55L139.65 126.89H147.65Z" fill="url(#paint6_linear_77_490)"/>
</g>
<defs>
<linearGradient id="paint0_linear_77_490" x1="-5.4" y1="21.5002" x2="188.93" y2="21.5002" gradientUnits="userSpaceOnUse">
<stop offset="0.08" stop-color="#B32DFF"/>
<stop offset="1" stop-color="#00FFFF"/>
</linearGradient>
<linearGradient id="paint1_linear_77_490" x1="-5.39999" y1="21.5003" x2="188.93" y2="21.5003" gradientUnits="userSpaceOnUse">
<stop offset="0.08" stop-color="#B32DFF"/>
<stop offset="1" stop-color="#00FFFF"/>
</linearGradient>
<linearGradient id="paint2_linear_77_490" x1="-5.39999" y1="21.5002" x2="188.93" y2="21.5002" gradientUnits="userSpaceOnUse">
<stop offset="0.08" stop-color="#B32DFF"/>
<stop offset="1" stop-color="#00FFFF"/>
</linearGradient>
<linearGradient id="paint3_linear_77_490" x1="-5.4" y1="123.5" x2="188.93" y2="123.5" gradientUnits="userSpaceOnUse">
<stop offset="0.08" stop-color="#B32DFF"/>
<stop offset="1" stop-color="#00FFFF"/>
</linearGradient>
<linearGradient id="paint4_linear_77_490" x1="-5.40001" y1="123.5" x2="188.93" y2="123.5" gradientUnits="userSpaceOnUse">
<stop offset="0.08" stop-color="#B32DFF"/>
<stop offset="1" stop-color="#00FFFF"/>
</linearGradient>
<linearGradient id="paint5_linear_77_490" x1="-5.39998" y1="123.5" x2="188.93" y2="123.5" gradientUnits="userSpaceOnUse">
<stop offset="0.08" stop-color="#B32DFF"/>
<stop offset="1" stop-color="#00FFFF"/>
</linearGradient>
<linearGradient id="paint6_linear_77_490" x1="-5.40001" y1="123.5" x2="188.93" y2="123.5" gradientUnits="userSpaceOnUse">
<stop offset="0.08" stop-color="#B32DFF"/>
<stop offset="1" stop-color="#00FFFF"/>
</linearGradient>
<clipPath id="clip0_77_490">
<rect width="226" height="145" fill="white"/>
</clipPath>
</defs>
</svg>
