<svg width="194" height="96" viewBox="0 0 194 96" fill="none" xmlns="http://www.w3.org/2000/svg">
<g clip-path="url(#clip0_28_13)">
<path d="M43.12 0.940247V42.0602H29.49V11.6902H16.98V42.0602H3.34998V0.940247H43.12Z" fill="url(#paint0_linear_28_13)"/>
<path d="M80.01 2.82028C82.6687 3.93735 84.9373 5.81624 86.53 8.22027C87.7389 10.032 88.5335 12.088 88.8574 14.2418C89.1813 16.3956 89.0265 18.5944 88.404 20.6815C87.7815 22.7687 86.7065 24.693 85.2557 26.3175C83.8049 27.942 82.0138 29.2267 80.01 30.0803C76.8681 31.3951 73.4851 32.0356 70.08 31.9603H64.15V42.0603H50.28V0.940271H70.08C73.4851 0.864984 76.8681 1.50547 80.01 2.82028ZM73.43 20.0003C74.3349 19.0378 74.8387 17.7664 74.8387 16.4453C74.8387 15.1242 74.3349 13.8528 73.43 12.8903C72.2232 11.9639 70.7171 11.5153 69.2 11.6303H64.2V21.2703H69.2C70.7183 21.3824 72.2246 20.9302 73.43 20.0003Z" fill="url(#paint1_linear_28_13)"/>
<path d="M102.84 40.2402C99.4009 38.4647 96.5167 35.7771 94.5033 32.4717C92.4898 29.1663 91.4247 25.3706 91.4247 21.5002C91.4247 17.6298 92.4898 13.8341 94.5033 10.5287C96.5167 7.22329 99.4009 4.53568 102.84 2.76021C106.553 0.944073 110.632 0 114.765 0C118.898 0 122.977 0.944073 126.69 2.76021C130.129 4.53568 133.013 7.22329 135.027 10.5287C137.04 13.8341 138.105 17.6298 138.105 21.5002C138.105 25.3706 137.04 29.1663 135.027 32.4717C133.013 35.7771 130.129 38.4647 126.69 40.2402C122.977 42.0564 118.898 43.0004 114.765 43.0004C110.632 43.0004 106.553 42.0564 102.84 40.2402ZM119.43 30.5202C120.847 29.6529 121.996 28.4103 122.75 26.9302C123.566 25.2364 123.99 23.3804 123.99 21.5002C123.99 19.62 123.566 17.764 122.75 16.0702C121.992 14.5925 120.844 13.3508 119.43 12.4802C118.012 11.6545 116.401 11.2195 114.76 11.2195C113.119 11.2195 111.508 11.6545 110.09 12.4802C108.679 13.3514 107.534 14.5932 106.78 16.0702C105.964 17.764 105.54 19.62 105.54 21.5002C105.54 23.3804 105.964 25.2364 106.78 26.9302C107.531 28.409 108.677 29.6514 110.09 30.5202C111.508 31.3459 113.119 31.7809 114.76 31.7809C116.401 31.7809 118.012 31.3459 119.43 30.5202Z" fill="url(#paint2_linear_28_13)"/>
<path d="M50.56 85.1602C46.9467 88.3069 41.6967 90.1169 34.81 90.5902V95.1703H22.15V90.5302C15.21 89.9502 9.95 88.1103 6.37 85.0103C2.79 81.9103 1 77.6803 1 72.3203C1 66.9869 2.79 62.7703 6.37 59.6703C9.95 56.5703 15.21 54.7369 22.15 54.1702V49.8802H34.83V54.1702C41.77 54.6836 47.03 56.4969 50.61 59.6102C54.19 62.7236 55.98 66.9603 55.98 72.3203C55.98 77.7336 54.1733 82.0136 50.56 85.1602ZM16.28 77.3203C17.9605 78.6808 19.9995 79.5249 22.15 79.7502V64.9203C19.36 65.3103 17.38 66.0902 16.15 67.2402C15.5204 67.9198 15.0368 68.7212 14.7289 69.5949C14.421 70.4686 14.2955 71.3961 14.36 72.3203C14.3077 73.2439 14.4538 74.1679 14.7884 75.0304C15.1231 75.8928 15.6385 76.6736 16.3 77.3203H16.28ZM40.75 77.4002C41.3846 76.7131 41.8724 75.9038 42.1836 75.0217C42.4948 74.1397 42.6229 73.2034 42.56 72.2702C42.6198 71.3446 42.4863 70.4166 42.1678 69.5455C41.8492 68.6743 41.3528 67.879 40.71 67.2102C39.47 66.0402 37.51 65.2602 34.8 64.8602V79.7502C37.56 79.3836 39.55 78.6002 40.77 77.4002H40.75Z" stroke="white" stroke-miterlimit="10"/>
<path d="M60.42 51.9402H74.05V73.3203L88.21 51.9402H101.21V93.0602H87.62V71.7502L73.56 93.0602H60.46L60.42 51.9402Z" stroke="white" stroke-miterlimit="10"/>
<path d="M147.91 51.9402V93.0602H134.28V62.6902H124.88L124.77 67.4503C124.714 72.2984 124.243 77.1328 123.36 81.9002C122.819 85.1477 121.397 88.1845 119.25 90.6802C117.25 92.7802 114.49 93.8203 110.84 93.8203C108.86 93.8037 106.889 93.5485 104.97 93.0602L105.68 81.9602C106.178 82.0765 106.688 82.1336 107.2 82.1302C107.86 82.1601 108.516 82.0126 109.1 81.7031C109.684 81.3936 110.174 80.9333 110.52 80.3702C111.375 78.9356 111.908 77.3317 112.08 75.6703C112.347 73.7103 112.543 71.1469 112.67 67.9803L113.19 51.9802L147.91 51.9402Z" stroke="white" stroke-miterlimit="10"/>
<path d="M189.12 68.0103C191.9 70.3036 193.29 73.6803 193.29 78.1403C193.29 82.9603 191.703 86.6502 188.53 89.2102C185.357 91.7702 181.023 93.0536 175.53 93.0602H155.11V51.9402H168.74V64.5703H177.25C182.383 64.5703 186.34 65.7169 189.12 68.0103ZM178.02 82.0103C178.485 81.5218 178.844 80.9431 179.076 80.3102C179.309 79.6772 179.409 79.0033 179.37 78.3302C179.37 75.5902 177.763 74.2202 174.55 74.2202H168.74V83.3302H174.56C175.193 83.3578 175.825 83.2589 176.419 83.0391C177.013 82.8193 177.557 82.4831 178.02 82.0502V82.0103Z" stroke="white" stroke-miterlimit="10"/>
</g>
<defs>
<linearGradient id="paint0_linear_28_13" x1="-1.77002" y1="21.5002" x2="153.79" y2="21.5002" gradientUnits="userSpaceOnUse">
<stop offset="0.08" stop-color="#B32DFF"/>
<stop offset="1" stop-color="#00FFFF"/>
</linearGradient>
<linearGradient id="paint1_linear_28_13" x1="-1.76997" y1="21.5003" x2="153.79" y2="21.5003" gradientUnits="userSpaceOnUse">
<stop offset="0.08" stop-color="#B32DFF"/>
<stop offset="1" stop-color="#00FFFF"/>
</linearGradient>
<linearGradient id="paint2_linear_28_13" x1="-1.76999" y1="21.5002" x2="153.79" y2="21.5002" gradientUnits="userSpaceOnUse">
<stop offset="0.08" stop-color="#B32DFF"/>
<stop offset="1" stop-color="#00FFFF"/>
</linearGradient>
<clipPath id="clip0_28_13">
<rect width="194" height="96" fill="white"/>
</clipPath>
</defs>
</svg>
