<svg width="16" height="16" viewBox="0 0 16 16" fill="none" xmlns="http://www.w3.org/2000/svg">
<g clip-path="url(#clip0_1105_422)">
<g clip-path="url(#clip1_1105_422)">
<path d="M0 15.9988H16V3.38092L0 12.6179V15.9988Z" fill="url(#paint0_linear_1105_422)"/>
<path d="M1.90735e-06 0V5.19994V12.6178L16 3.3809V0H1.90735e-06Z" fill="url(#paint1_linear_1105_422)"/>
<path d="M7.02525 7.36148L6.76556 6.91111L6.50463 6.46074L6.05426 6.72168L5.79457 6.27131L5.34421 6.531L5.08452 6.08063L4.63415 6.34031L4.18379 6.59999L3.9241 6.14963L3.47373 6.41056L3.02337 6.67025L2.573 6.92993L2.12263 7.18961L2.38231 7.63998L1.93194 7.90092L1.48157 8.1606L1.74126 8.61097L1.29214 8.87065L1.55183 9.32102L1.10146 9.58071L1.36114 10.0311L1.62082 10.4814L1.17046 10.7411L1.43139 11.1915L1.69108 11.6419L1.95076 12.0922L2.21044 12.5426L2.66081 12.2829L2.9205 12.7333L3.18143 13.1837L3.6318 12.924L3.89149 13.3743L4.34185 13.1134L4.60154 13.5638L5.05191 13.3041L5.50227 13.0444L5.76196 13.4948L6.21233 13.2351L6.66269 12.9742L7.11306 12.7145L7.56343 12.4548L7.30375 12.0044L7.75412 11.7447L8.20449 11.4838L7.9448 11.0334L8.39517 10.7737L8.13423 10.3234L8.5846 10.0637L8.32492 9.61332L8.06523 9.16295L8.5156 8.90327L8.25467 8.4529L7.99498 8.00253L7.7353 7.55217L7.47562 7.1018L7.02525 7.36148Z" fill="url(#paint2_linear_1105_422)"/>
<path d="M13.3292 3.72211L13.0695 3.27174L12.8098 2.82137L12.3594 3.08106L12.0985 2.63069L11.6494 2.89037L11.3884 2.44L10.9381 2.70094L10.4877 2.96062L10.228 2.51025L9.77764 2.76994L9.32727 3.03088L8.8769 3.29056L8.42653 3.55024L8.68747 4.00061L8.2371 4.26029L7.78673 4.51998L8.04642 4.97035L7.59605 5.23128L7.85573 5.68165L7.40536 5.94134L7.6663 6.3917L7.92598 6.84207L7.47562 7.10176L7.7353 7.55212L7.99498 8.00249L8.25467 8.45286L8.5156 8.90323L8.96597 8.64355L9.22566 9.09266L9.48534 9.54428L9.93571 9.28335L10.1954 9.73371L10.6458 9.47403L10.9067 9.9244L11.3571 9.66472L11.8062 9.40378L12.0671 9.85415L12.5175 9.59446L12.9679 9.33478L13.4182 9.0751L13.8686 8.81416L13.6077 8.36379L14.058 8.10411L14.5084 7.84442L14.2487 7.39406L14.6991 7.13437L14.4394 6.684L14.8898 6.42432L14.6288 5.97395L14.3691 5.52358L14.8195 5.26265L14.5598 4.81228L14.3001 4.36191L14.0392 3.91154L13.7795 3.46243L13.3292 3.72211Z" fill="url(#paint3_linear_1105_422)"/>
<path d="M8.57301 6.48478L9.07468 6.6192L9.2091 6.11753L8.70743 5.98311L8.57301 6.48478Z" fill="#132341"/>
<path d="M8.70832 5.9838L9.20999 6.11823L9.34441 5.61656L8.84274 5.48213L8.70832 5.9838Z" fill="#132341"/>
<path d="M8.84149 5.48124L9.34316 5.61566L9.47758 5.11399L8.97591 4.97957L8.84149 5.48124Z" fill="#132341"/>
<path d="M9.57747 6.75449L10.0791 6.88892L10.2136 6.38725L9.71189 6.25282L9.57747 6.75449Z" fill="#132341"/>
<path d="M9.07647 6.6204L9.57815 6.75482L9.71257 6.25315L9.2109 6.11873L9.07647 6.6204Z" fill="#132341"/>
<path d="M5.89069 7.60948L5.75627 8.11115L6.25794 8.24557L6.39236 7.7439L5.89069 7.60948Z" fill="#132341"/>
<path d="M5.38903 7.47483L5.25461 7.9765L5.75628 8.11092L5.8907 7.60925L5.38903 7.47483Z" fill="#132341"/>
<path d="M4.88584 7.34104L4.75142 7.84271L5.25309 7.97713L5.38751 7.47546L4.88584 7.34104Z" fill="#132341"/>
<path d="M5.62105 8.6143L5.48663 9.11597L5.9883 9.25039L6.12272 8.74872L5.62105 8.6143Z" fill="#132341"/>
<path d="M5.75605 8.11112L5.62163 8.61279L6.1233 8.74722L6.25772 8.24555L5.75605 8.11112Z" fill="#132341"/>
<path d="M7.35518 8.97225L6.90481 9.23319L6.45445 9.49287L6.00408 9.75255L5.55371 10.0122L5.10334 10.2732L4.65297 10.5329L4.91266 10.9832L5.17234 11.4336L5.43328 11.884L5.88239 11.623L6.14333 12.0734L6.5937 11.8137L6.85338 12.2641L7.30375 12.0044L7.75412 11.7447L8.20449 11.4838L7.9448 11.0334L8.39517 10.7737L8.13423 10.3234L8.5846 10.0637L8.32492 9.6133L8.06524 9.16293L8.5156 8.90325L8.25467 8.45288L7.80555 8.71256L7.35518 8.97225Z" fill="white"/>
<path d="M11.6669 7.08294L11.4072 6.63257L10.9569 6.89225L10.5065 7.15319L10.0561 7.41287L9.60577 7.67256L9.1554 7.93224L8.70504 8.19318L8.25467 8.45286L8.5156 8.90323L8.96597 8.64355L9.22566 9.09266L9.48534 9.54428L9.93571 9.28334L10.1954 9.73371L10.6458 9.47403L10.9067 9.9244L11.3571 9.66472L11.8062 9.40378L11.5465 8.95466L11.9969 8.69373L11.7372 8.24336L12.1876 7.98367L11.9279 7.53331L11.6669 7.08294Z" fill="white"/>
</g>
</g>
<defs>
<linearGradient id="paint0_linear_1105_422" x1="0" y1="9.6911" x2="15.9987" y2="9.6911" gradientUnits="userSpaceOnUse">
<stop offset="0.08" stop-color="#B32DFF"/>
<stop offset="1" stop-color="#00FFFF"/>
</linearGradient>
<linearGradient id="paint1_linear_1105_422" x1="1.90735e-06" y1="6.30892" x2="15.9987" y2="6.30892" gradientUnits="userSpaceOnUse">
<stop offset="0.22" stop-color="#E238AF"/>
<stop offset="0.59" stop-color="#FFB369"/>
</linearGradient>
<linearGradient id="paint2_linear_1105_422" x1="2.90293" y1="6.3516" x2="6.57864" y2="12.929" gradientUnits="userSpaceOnUse">
<stop offset="0.13" stop-color="#FBD947"/>
<stop offset="0.22" stop-color="#FBD24D"/>
<stop offset="0.34" stop-color="#FBBF5D"/>
<stop offset="0.49" stop-color="#FCA077"/>
<stop offset="0.65" stop-color="#FD759C"/>
<stop offset="0.83" stop-color="#FE3ECA"/>
<stop offset="1" stop-color="#FF00FE"/>
</linearGradient>
<linearGradient id="paint3_linear_1105_422" x1="9.32351" y1="2.83266" x2="13.205" y2="9.96329" gradientUnits="userSpaceOnUse">
<stop offset="0.24" stop-color="#33FFE0"/>
<stop offset="0.3" stop-color="#39F8DF"/>
<stop offset="0.39" stop-color="#49E4DA"/>
<stop offset="0.5" stop-color="#63C3D4"/>
<stop offset="0.63" stop-color="#8895CA"/>
<stop offset="0.77" stop-color="#B75BBE"/>
<stop offset="0.91" stop-color="#EF14B0"/>
<stop offset="0.95" stop-color="#FF00AC"/>
</linearGradient>
<clipPath id="clip0_1105_422">
<rect width="16" height="16" fill="white"/>
</clipPath>
<clipPath id="clip1_1105_422">
<rect width="16" height="16" fill="white"/>
</clipPath>
</defs>
</svg>
