<svg width="75" height="75" viewBox="0 0 75 75" fill="none" xmlns="http://www.w3.org/2000/svg">
<g clip-path="url(#clip0_30_50)">
<circle cx="37.5" cy="37.5" r="37.5" fill="#D9D9D9"/>
<path d="M37.9826 35.1182C40.5005 35.1182 42.5417 33.077 42.5417 30.5591C42.5417 28.0412 40.5005 26 37.9826 26C35.4647 26 33.4235 28.0412 33.4235 30.5591C33.4235 33.077 35.4647 35.1182 37.9826 35.1182Z" stroke="white" stroke-width="1.5" stroke-linecap="round" stroke-linejoin="round"/>
<path d="M37.9826 38.9886C38.8089 38.9886 39.6272 39.1514 40.3906 39.4676C41.1541 39.7839 41.8478 40.2474 42.4321 40.8317C43.0164 41.416 43.4799 42.1097 43.7961 42.8731C44.1123 43.6366 44.2751 44.4548 44.2751 45.2812V48H31.702V45.2812C31.702 43.6123 32.3649 42.0118 33.545 40.8317C34.7251 39.6516 36.3256 38.9886 37.9945 38.9886H37.9826Z" stroke="white" stroke-width="1.5" stroke-linecap="round" stroke-linejoin="round"/>
<path d="M50.5222 33.2399V37M50.5222 37V40.7601M50.5222 37H54.2822M50.5222 37H46.7621" stroke="white" stroke-width="1.5" stroke-linecap="round" stroke-linejoin="round"/>
</g>
<defs>
<clipPath id="clip0_30_50">
<rect width="75" height="75" fill="white"/>
</clipPath>
</defs>
</svg>
