<svg width="185" height="94" viewBox="0 0 185 94" fill="none" xmlns="http://www.w3.org/2000/svg">
<g clip-path="url(#clip0_69_363)">
<path d="M11.16 40.2539C7.77248 38.5186 4.93619 35.8728 2.96996 32.6139C1.02403 29.2273 0 25.3897 0 21.4839C0 17.5781 1.02403 13.7405 2.96996 10.3539C4.93909 7.1024 7.7751 4.46377 11.16 2.7339C14.7951 0.878439 18.8292 -0.0588555 22.91 0.0038851C26.5837 -0.0599246 30.2286 0.662942 33.6 2.12391C36.6592 3.47106 39.3285 5.5693 41.36 8.22389L32.61 16.0439C30.0633 12.8306 27.0633 11.2239 23.61 11.2239C22.3121 11.1666 21.0169 11.3857 19.8101 11.8666C18.6033 12.3476 17.5125 13.0795 16.61 14.0139C14.8903 16.1352 13.9519 18.7831 13.9519 21.5139C13.9519 24.2447 14.8903 26.8926 16.61 29.0139C17.5125 29.9482 18.6033 30.6802 19.8101 31.1611C21.0169 31.6421 22.3121 31.8612 23.61 31.8039C27.05 31.8039 30.05 30.1972 32.61 26.9839L41.35 34.7339C39.3188 37.3912 36.6496 39.4928 33.59 40.8439C30.2179 42.3017 26.573 43.0212 22.9 42.9539C18.825 43.0243 14.7947 42.0974 11.16 40.2539Z" fill="url(#paint0_linear_69_363)"/>
<path d="M81.69 42.0438L81.57 23.3038L72.64 38.3038H66.53L57.6 23.9138V42.0038H44.97V0.923828H56.37L69.76 22.8338L82.76 0.923828H94.16L94.28 42.0438H81.69Z" fill="url(#paint1_linear_69_363)"/>
<path d="M135.64 31.5838V42.0438H101.45V0.923828H134.88V11.3838H115.08V16.1938H132.47V26.1938H115.08V31.5938L135.64 31.5838Z" fill="url(#paint2_linear_69_363)"/>
<path d="M155.08 0.863892L161.08 10.5539L167.08 0.863892H183.08L169.75 20.4839L184.32 42.0439H168.01L161.08 31.4139L154.26 42.0439H138.34L152.79 21.1339L139.22 0.863892H155.08Z" fill="url(#paint3_linear_69_363)"/>
<path d="M30.95 71.8938L43.16 93.0438H27.48L19.61 78.1838H15.74V93.0438H1.87V51.9238H15.74V67.2538H19.97L28.72 51.9238H43.16L30.95 71.8938Z" fill="url(#paint4_linear_69_363)"/>
<path d="M54 91.2238C50.5609 89.4484 47.6767 86.7608 45.6632 83.4554C43.6498 80.1499 42.5847 76.3542 42.5847 72.4839C42.5847 68.6135 43.6498 64.8178 45.6632 61.5124C47.6767 58.207 50.5609 55.5193 54 53.7439C57.7129 51.9277 61.7917 50.9836 65.925 50.9836C70.0583 50.9836 74.137 51.9277 77.85 53.7439C81.2891 55.5193 84.1733 58.207 86.1867 61.5124C88.2002 64.8178 89.2653 68.6135 89.2653 72.4839C89.2653 76.3542 88.2002 80.1499 86.1867 83.4554C84.1733 86.7608 81.2891 89.4484 77.85 91.2238C74.137 93.04 70.0583 93.9841 65.925 93.9841C61.7917 93.9841 57.7129 93.04 54 91.2238ZM70.6 81.5038C72.0131 80.6351 73.1586 79.3927 73.91 77.9138C74.7261 76.22 75.1499 74.364 75.1499 72.4839C75.1499 70.6037 74.7261 68.7477 73.91 67.0539C73.156 65.5768 72.0111 64.335 70.6 63.4639C69.1821 62.6382 67.5707 62.2032 65.93 62.2032C64.2892 62.2032 62.6778 62.6382 61.26 63.4639C59.8459 64.3344 58.6975 65.5761 57.94 67.0539C57.1239 68.7477 56.7001 70.6037 56.7001 72.4839C56.7001 74.364 57.1239 76.22 57.94 77.9138C58.6941 79.394 59.8432 80.6365 61.26 81.5038C62.6778 82.3295 64.2892 82.7645 65.93 82.7645C67.5707 82.7645 69.1821 82.3295 70.6 81.5038Z" fill="url(#paint5_linear_69_363)"/>
<path d="M93.97 51.9238H107.6V73.3038L121.76 51.9238H134.76V93.0438H121.16V71.7338L107.06 93.0538H93.96L93.97 51.9238Z" fill="url(#paint6_linear_69_363)"/>
<path d="M182.5 51.9238V93.0438H168.64V77.8838H155.83V93.0438H141.97V51.9238H155.83V66.4938H168.64V51.9238H182.5Z" fill="url(#paint7_linear_69_363)"/>
</g>
<defs>
<linearGradient id="paint0_linear_69_363" x1="-0.170046" y1="21.4839" x2="235.78" y2="21.4839" gradientUnits="userSpaceOnUse">
<stop offset="0.08" stop-color="#B32DFF"/>
<stop offset="1" stop-color="#00FFFF"/>
</linearGradient>
<linearGradient id="paint1_linear_69_363" x1="-0.170026" y1="21.4838" x2="235.78" y2="21.4838" gradientUnits="userSpaceOnUse">
<stop offset="0.08" stop-color="#B32DFF"/>
<stop offset="1" stop-color="#00FFFF"/>
</linearGradient>
<linearGradient id="paint2_linear_69_363" x1="-0.170056" y1="21.4838" x2="235.78" y2="21.4838" gradientUnits="userSpaceOnUse">
<stop offset="0.08" stop-color="#B32DFF"/>
<stop offset="1" stop-color="#00FFFF"/>
</linearGradient>
<linearGradient id="paint3_linear_69_363" x1="-0.170059" y1="21.4539" x2="235.78" y2="21.4539" gradientUnits="userSpaceOnUse">
<stop offset="0.08" stop-color="#B32DFF"/>
<stop offset="1" stop-color="#00FFFF"/>
</linearGradient>
<linearGradient id="paint4_linear_69_363" x1="-0.170005" y1="72.4838" x2="235.78" y2="72.4838" gradientUnits="userSpaceOnUse">
<stop offset="0.08" stop-color="#B32DFF"/>
<stop offset="1" stop-color="#00FFFF"/>
</linearGradient>
<linearGradient id="paint5_linear_69_363" x1="-0.170022" y1="72.4839" x2="235.78" y2="72.4839" gradientUnits="userSpaceOnUse">
<stop offset="0.08" stop-color="#B32DFF"/>
<stop offset="1" stop-color="#00FFFF"/>
</linearGradient>
<linearGradient id="paint6_linear_69_363" x1="-0.170043" y1="72.4838" x2="235.78" y2="72.4838" gradientUnits="userSpaceOnUse">
<stop offset="0.08" stop-color="#B32DFF"/>
<stop offset="1" stop-color="#00FFFF"/>
</linearGradient>
<linearGradient id="paint7_linear_69_363" x1="-0.170014" y1="72.4838" x2="235.78" y2="72.4838" gradientUnits="userSpaceOnUse">
<stop offset="0.08" stop-color="#B32DFF"/>
<stop offset="1" stop-color="#00FFFF"/>
</linearGradient>
<clipPath id="clip0_69_363">
<rect width="185" height="94" fill="white"/>
</clipPath>
</defs>
</svg>
