<svg width="75" height="75" viewBox="0 0 75 75" fill="none" xmlns="http://www.w3.org/2000/svg">
<g clip-path="url(#clip0_1_2)">
<mask id="mask0_1_2" style="mask-type:luminance" maskUnits="userSpaceOnUse" x="0" y="0" width="75" height="75">
<path d="M61.0465 0H13.9535C6.24719 0 0 6.24719 0 13.9535V61.0465C0 68.7528 6.24719 75 13.9535 75H61.0465C68.7528 75 75 68.7528 75 61.0465V13.9535C75 6.24719 68.7528 0 61.0465 0Z" fill="white"/>
</mask>
<g mask="url(#mask0_1_2)">
<path d="M-26.0233 101.043H101.093V0.797363L-26.0233 74.1827V101.043Z" fill="url(#paint0_linear_1_2)"/>
<path d="M-26.0233 -26.0631V15.2492V74.1827L101.093 0.797351V-26.0631H-26.0233Z" fill="url(#paint1_linear_1_2)"/>
<path d="M29.7907 32.4219L27.7275 28.8439L25.6544 25.2658L22.0764 27.3389L20.0133 23.7608L16.4352 25.8239L14.3721 22.2458L10.794 24.309L7.21591 26.3721L5.15279 22.794L1.57472 24.8671L-2.00336 26.9302L-5.58143 28.9934L-9.1595 31.0565L-7.09638 34.6346L-10.6745 36.7076L-14.2525 38.7708L-12.1894 42.3488L-15.7575 44.412L-13.6944 47.99L-17.2725 50.0532L-15.2093 53.6312L-13.1462 57.2093L-16.7243 59.2724L-14.6512 62.8505L-12.5881 66.4286L-10.525 70.0066L-8.46183 73.5847L-4.88376 71.5216L-2.82064 75.0997L-0.747544 78.6777L2.83053 76.6146L4.89365 80.1927L8.47172 78.1196L10.5348 81.6977L14.1129 79.6345L17.691 77.5714L19.7541 81.1495L23.3322 79.0864L26.9103 77.0133L30.4883 74.9502L34.0664 72.887L32.0033 69.309L35.5814 67.2458L39.1594 65.1728L37.0963 61.5947L40.6744 59.5316L38.6013 55.9535L42.1794 53.8904L40.1162 50.3123L38.0531 46.7342L41.6312 44.6711L39.5581 41.093L37.495 37.515L35.4319 33.9369L33.3687 30.3588L29.7907 32.4219Z" fill="url(#paint2_linear_1_2)"/>
<path d="M79.8737 3.50831L77.8106 -0.0697625L75.7475 -3.64784L72.1694 -1.58471L70.0963 -5.16279L66.5282 -3.09966L64.4551 -6.67773L60.8771 -4.60464L57.299 -2.54152L55.2359 -6.1196L51.6578 -4.05647L48.0797 -1.98338L44.5016 0.0797388L40.9236 2.14286L42.9967 5.72093L39.4186 7.78406L35.8405 9.84718L37.9036 13.4253L34.3256 15.4983L36.3887 19.0764L32.8106 21.1395L34.8837 24.7176L36.9468 28.2957L33.3688 30.3588L35.4319 33.9369L37.495 37.515L39.5581 41.093L41.6312 44.6711L45.2093 42.608L47.2724 46.1761L49.3355 49.7641L52.9136 47.691L54.9767 51.2691L58.5548 49.206L60.6279 52.7841L64.206 50.7209L67.7741 48.6478L69.8472 52.2259L73.4252 50.1628L77.0033 48.0997L80.5814 46.0365L84.1594 43.9635L82.0864 40.3854L85.6644 38.3223L89.2425 36.2591L87.1794 32.6811L90.7574 30.6179L88.6943 27.0399L92.2724 24.9767L90.1993 21.3987L88.1362 17.8206L91.7143 15.7475L89.6511 12.1694L87.588 8.59137L85.5149 5.01329L83.4518 1.44519L79.8737 3.50831Z" fill="url(#paint3_linear_1_2)"/>
<path d="M42.0874 25.457L46.073 26.5249L47.1409 22.5393L43.1553 21.4713L42.0874 25.457Z" fill="#132341"/>
<path d="M43.1623 21.4766L47.1479 22.5446L48.2159 18.5589L44.2303 17.491L43.1623 21.4766Z" fill="#132341"/>
<path d="M44.2203 17.4841L48.206 18.552L49.2739 14.5664L45.2883 13.4984L44.2203 17.4841Z" fill="#132341"/>
<path d="M50.0675 27.5995L54.0532 28.6675L55.1211 24.6818L51.1355 23.6139L50.0675 27.5995Z" fill="#132341"/>
<path d="M46.0872 26.5345L50.0729 27.6024L51.1408 23.6168L47.1552 22.5488L46.0872 26.5345Z" fill="#132341"/>
<path d="M20.7769 34.3923L19.7089 38.3779L23.6946 39.4459L24.7625 35.4602L20.7769 34.3923Z" fill="#132341"/>
<path d="M16.7913 33.3226L15.7234 37.3082L19.709 38.3762L20.777 34.3905L16.7913 33.3226Z" fill="#132341"/>
<path d="M12.7937 32.26L11.7257 36.2456L15.7114 37.3136L16.7793 33.3279L12.7937 32.26Z" fill="#132341"/>
<path d="M18.6347 42.3756L17.5667 46.3612L21.5524 47.4292L22.6203 43.4435L18.6347 42.3756Z" fill="#132341"/>
<path d="M19.7072 38.3779L18.6393 42.3635L22.6249 43.4315L23.6929 39.4458L19.7072 38.3779Z" fill="#132341"/>
<path d="M32.412 45.2193L28.8339 47.2924L25.2558 49.3555L21.6778 51.4186L18.0997 53.4817L14.5216 55.5548L10.9435 57.6179L13.0067 61.196L15.0698 64.7741L17.1429 68.3522L20.711 66.2791L22.7841 69.8571L26.3621 67.794L28.4253 71.3721L32.0033 69.309L35.5814 67.2458L39.1595 65.1728L37.0964 61.5947L40.6744 59.5316L38.6014 55.9535L42.1794 53.8904L40.1163 50.3123L38.0532 46.7342L41.6312 44.6711L39.5582 41.093L35.9901 43.1561L32.412 45.2193Z" fill="white"/>
<path d="M66.6678 30.2093L64.6047 26.6312L61.0266 28.6943L57.4485 30.7674L53.8705 32.8306L50.2924 34.8937L46.7143 36.9568L43.1362 39.0299L39.5582 41.093L41.6313 44.6711L45.2093 42.608L47.2724 46.1761L49.3356 49.7641L52.9136 47.691L54.9768 51.2691L58.5548 49.206L60.6279 52.784L64.206 50.7209L67.7741 48.6478L65.711 45.0797L69.2891 43.0066L67.2259 39.4286L70.804 37.3654L68.7409 33.7874L66.6678 30.2093Z" fill="white"/>
</g>
</g>
<defs>
<linearGradient id="paint0_linear_1_2" x1="-26.0233" y1="50.9302" x2="101.083" y2="50.9302" gradientUnits="userSpaceOnUse">
<stop offset="0.08" stop-color="#B32DFF"/>
<stop offset="1" stop-color="#00FFFF"/>
</linearGradient>
<linearGradient id="paint1_linear_1_2" x1="-26.0233" y1="24.0598" x2="101.083" y2="24.0598" gradientUnits="userSpaceOnUse">
<stop offset="0.22" stop-color="#E238AF"/>
<stop offset="0.59" stop-color="#FFB369"/>
</linearGradient>
<linearGradient id="paint2_linear_1_2" x1="-2.96017" y1="24.3987" x2="26.2425" y2="76.6545" gradientUnits="userSpaceOnUse">
<stop offset="0.13" stop-color="#FBD947"/>
<stop offset="0.22" stop-color="#FBD24D"/>
<stop offset="0.34" stop-color="#FBBF5D"/>
<stop offset="0.49" stop-color="#FCA077"/>
<stop offset="0.65" stop-color="#FD759C"/>
<stop offset="0.83" stop-color="#FE3ECA"/>
<stop offset="1" stop-color="#FF00FE"/>
</linearGradient>
<linearGradient id="paint3_linear_1_2" x1="48.0498" y1="-3.55813" x2="78.887" y2="53.093" gradientUnits="userSpaceOnUse">
<stop offset="0.24" stop-color="#33FFE0"/>
<stop offset="0.3" stop-color="#39F8DF"/>
<stop offset="0.39" stop-color="#49E4DA"/>
<stop offset="0.5" stop-color="#63C3D4"/>
<stop offset="0.63" stop-color="#8895CA"/>
<stop offset="0.77" stop-color="#B75BBE"/>
<stop offset="0.91" stop-color="#EF14B0"/>
<stop offset="0.95" stop-color="#FF00AC"/>
</linearGradient>
<clipPath id="clip0_1_2">
<rect width="75" height="75" fill="white"/>
</clipPath>
</defs>
</svg>
