<svg width="660" height="230" viewBox="0 0 660 230" fill="none" xmlns="http://www.w3.org/2000/svg">
<g clip-path="url(#clip0_46_25)">
<path d="M215.244 187.263H185.985V224.704H114.041V187.263H0V140.14L93.2865 5.03152H169.349L86.3861 129.764H116.234V96.1739H185.771V129.764H215.03L215.244 187.263Z" fill="url(#paint0_linear_46_25)"/>
<path d="M276.811 216.36C261.495 206.827 249.27 193.061 241.614 176.726C233.217 157.231 228.885 136.228 228.885 115.001C228.885 93.775 233.217 72.7717 241.614 53.277C249.258 36.9481 261.487 23.1957 276.811 13.6964C292.563 4.72034 310.38 0 328.509 0C346.639 0 364.456 4.72034 380.208 13.6964C395.532 23.1957 407.761 36.9481 415.404 53.277C423.802 72.7717 428.133 93.775 428.133 115.001C428.133 136.228 423.802 157.231 415.404 176.726C407.749 193.061 395.524 206.827 380.208 216.36C364.444 225.3 346.632 230 328.509 230C310.387 230 292.575 225.3 276.811 216.36ZM353.677 114.734C353.677 77.6494 345.296 59.1071 328.536 59.1071C311.776 59.1071 303.396 77.6494 303.396 114.734C303.396 151.818 311.776 170.361 328.536 170.361C345.296 170.361 353.605 151.908 353.463 115.001L353.677 114.734Z" fill="url(#paint1_linear_46_25)"/>
<path d="M659.267 187.263H630.061V224.704H558.117V187.263H444.075V140.14L537.362 5.03152H613.425L530.462 129.764H560.31V96.1739H629.847V129.764H659.053L659.267 187.263Z" fill="url(#paint2_linear_46_25)"/>
</g>
<defs>
<linearGradient id="paint0_linear_46_25" x1="0" y1="114.868" x2="215.244" y2="114.868" gradientUnits="userSpaceOnUse">
<stop stop-color="#FFB369"/>
<stop offset="1" stop-color="#E238AF"/>
</linearGradient>
<linearGradient id="paint1_linear_46_25" x1="228.885" y1="115" x2="428.133" y2="115" gradientUnits="userSpaceOnUse">
<stop stop-color="#FFB369"/>
<stop offset="1" stop-color="#E238AF"/>
</linearGradient>
<linearGradient id="paint2_linear_46_25" x1="444.075" y1="114.868" x2="659.267" y2="114.868" gradientUnits="userSpaceOnUse">
<stop stop-color="#FFB369"/>
<stop offset="1" stop-color="#E238AF"/>
</linearGradient>
<clipPath id="clip0_46_25">
<rect width="660" height="230" fill="white"/>
</clipPath>
</defs>
</svg>
