<svg width="132" height="21" viewBox="0 0 132 21" fill="none" xmlns="http://www.w3.org/2000/svg">
<path d="M5.91587 18.3112C4.43512 17.5484 3.19305 16.3926 2.32588 14.9705C1.45872 13.5484 1 11.9149 1 10.2493C1 8.58362 1.45872 6.95014 2.32588 5.52803C3.19305 4.10591 4.43512 2.95009 5.91587 2.18736C7.51243 1.40612 9.2664 1 11.0439 1C12.8213 1 14.5753 1.40612 16.1718 2.18736C17.6526 2.95009 18.8947 4.10591 19.7618 5.52803C20.629 6.95014 21.0877 8.58362 21.0877 10.2493C21.0877 11.9149 20.629 13.5484 19.7618 14.9705C18.8947 16.3926 17.6526 17.5484 16.1718 18.3112C14.5753 19.0924 12.8213 19.4985 11.0439 19.4985C9.2664 19.4985 7.51243 19.0924 5.91587 18.3112ZM13.0529 14.1297C13.6624 13.7565 14.1567 13.222 14.4811 12.5852C14.8295 11.8558 15.0103 11.0576 15.0103 10.2493C15.0103 9.4409 14.8295 8.64275 14.4811 7.9133C14.1552 7.27757 13.6613 6.7434 13.0529 6.36889C12.4429 6.01368 11.7497 5.82654 11.0439 5.82654C10.338 5.82654 9.64477 6.01368 9.03481 6.36889C8.42645 6.7434 7.93248 7.27757 7.60658 7.9133C7.2582 8.64275 7.07739 9.4409 7.07739 10.2493C7.07739 11.0576 7.2582 11.8558 7.60658 12.5852C7.93101 13.222 8.42532 13.7565 9.03481 14.1297C9.64477 14.4849 10.338 14.672 11.0439 14.672C11.7497 14.672 12.4429 14.4849 13.0529 14.1297Z" stroke="white" stroke-miterlimit="10"/>
<path d="M47.7999 1.40436V19.0941H23.1108V1.40436H28.9744V14.4695H32.5364V1.40436H38.4V14.4695H41.9363V1.40436H47.7999Z" stroke="white" stroke-miterlimit="10"/>
<path d="M50.8845 1.40436H56.7481V10.602L62.8354 1.40436H68.428V19.0941H62.5644V9.92228L56.5029 19.0941H50.8673L50.8845 1.40436Z" stroke="white" stroke-miterlimit="10"/>
<path d="M71.5296 1.40436H86.8704V5.90423H77.4061V7.95197H81.6263C83.783 7.95197 85.4379 8.41085 86.5908 9.32861C87.7437 10.2464 88.3173 11.5728 88.3116 13.3079C88.3469 14.1217 88.1864 14.9321 87.8436 15.6709C87.5007 16.4098 86.9856 17.0556 86.3413 17.554C85.0278 18.5807 83.1994 19.0941 80.8563 19.0941H71.5339L71.5296 1.40436ZM80.4476 14.9255C80.9368 14.953 81.4217 14.8201 81.8285 14.5469C81.9919 14.4184 82.1218 14.2523 82.2072 14.0628C82.2926 13.8733 82.3309 13.666 82.319 13.4585C82.319 12.5494 81.6951 12.0948 80.4476 12.0948H77.3932V14.9255H80.4476Z" stroke="white" stroke-miterlimit="10"/>
<path d="M102.839 9.99541L108.071 19.0941H101.334L97.9481 12.7014H96.2833V19.0941H90.3164V1.40436H96.2833V7.99929H98.0987L101.867 1.40436H108.084L102.839 9.99541Z" stroke="white" stroke-miterlimit="10"/>
<path d="M122.878 16.0096H116.158L114.971 19.0941H108.905L116.649 1.40436H122.512L130.256 19.0941H124.087L122.878 16.0096ZM121.235 11.7076L119.514 7.25935L117.793 11.7076H121.235Z" stroke="white" stroke-miterlimit="10"/>
</svg>
