<svg width="274" height="101" viewBox="0 0 274 101" fill="none" xmlns="http://www.w3.org/2000/svg">
<g clip-path="url(#clip0_62_172)">
<path d="M32.48 34.13H16.86L14.1 41.3H0L18 0.179993H31.6L49.6 41.3H35.24L32.48 34.13ZM28.66 24.13L24.66 13.79L20.66 24.13H28.66Z" fill="url(#paint0_linear_62_172)"/>
<path d="M89.93 23.41C91.1821 25.1544 91.822 27.264 91.75 29.41C91.8048 31.1148 91.4328 32.8063 90.6679 34.3309C89.903 35.8554 88.7694 37.1648 87.37 38.14C84.45 40.2667 80.33 41.3333 75.01 41.34H53.01V0.179993H73.86C78.9467 0.179993 82.8933 1.11998 85.7 2.99998C87.0326 3.83885 88.1218 5.01267 88.8588 6.40421C89.5958 7.79574 89.9548 9.35629 89.9 10.93C89.9377 12.7491 89.4592 14.5416 88.52 16.1C87.5523 17.6301 86.2054 18.884 84.61 19.74C86.7108 20.403 88.5642 21.6815 89.93 23.41ZM66.7 15.99H72.58C74.8533 15.99 75.99 14.99 75.99 12.99C75.99 10.99 74.8533 9.95 72.58 9.87H66.7V15.99ZM77.81 28.33C77.81 26.21 76.67 25.16 74.4 25.16H66.7V31.62H74.4C76.6467 31.6133 77.77 30.5133 77.77 28.32L77.81 28.33Z" fill="url(#paint1_linear_62_172)"/>
<path d="M131.2 10.93H119.2V41.3H105.53V10.93H93.53V0.179993H131.2V10.93Z" stroke="white" stroke-miterlimit="10"/>
<path d="M172.43 4.92C173.999 6.28893 175.348 7.89098 176.43 9.67C177.956 12.1427 178.954 14.904 179.361 17.7807C179.769 20.6574 179.578 23.5873 178.799 26.3865C178.021 29.1857 176.672 31.7938 174.838 34.047C173.003 36.3002 170.723 38.1499 168.14 39.48C164.429 41.296 160.352 42.24 156.22 42.24C152.088 42.24 148.011 41.296 144.3 39.48C140.858 37.707 137.971 35.0203 135.955 31.7146C133.939 28.4089 132.873 24.6118 132.873 20.74C132.873 16.8682 133.939 13.0712 135.955 9.76543C137.971 6.4597 140.858 3.77298 144.3 2C145.964 1.12728 147.727 0.455886 149.55 0M160.89 29.74C162.304 28.8694 163.452 27.6278 164.21 26.15C165.02 24.4544 165.44 22.5991 165.44 20.72C165.44 18.8409 165.02 16.9856 164.21 15.29C163.452 13.8123 162.304 12.5706 160.89 11.7C159.472 10.8743 157.861 10.4393 156.22 10.4393C154.579 10.4393 152.968 10.8743 151.55 11.7C150.136 12.5706 148.988 13.8123 148.23 15.29C147.42 16.9856 147 18.8409 147 20.72C147 22.5991 147.42 24.4544 148.23 26.15C148.988 27.6278 150.136 28.8694 151.55 29.74C152.968 30.5657 154.579 31.0007 156.22 31.0007C157.861 31.0007 159.472 30.5657 160.89 29.74Z" stroke="white" stroke-miterlimit="10"/>
<path d="M213.98 2.05998C216.654 3.19667 218.935 5.09503 220.539 7.51864C222.142 9.94226 222.997 12.784 222.997 15.69C222.997 18.5959 222.142 21.4377 220.539 23.8613C218.935 26.2849 216.654 28.1833 213.98 29.32C210.841 30.6337 207.462 31.2742 204.06 31.2H198.12V41.3H184.26V0.179975H204.06C207.462 0.105794 210.841 0.746266 213.98 2.05998ZM207.4 19.24C208.305 18.2775 208.809 17.0061 208.809 15.685C208.809 14.3639 208.305 13.0925 207.4 12.13C206.193 11.2036 204.687 10.755 203.17 10.87H198.12V20.5H203.17C204.687 20.615 206.193 20.1663 207.4 19.24Z" stroke="white" stroke-miterlimit="10"/>
<path d="M3.46002 51.18H17.09V72.56L31.25 51.18H44.25V92.3H30.7V70.99L16.6 92.31H3.46002V51.18Z" fill="url(#paint2_linear_62_172)"/>
<path d="M83.7 74.85C84.928 76.5626 85.5762 78.6229 85.55 80.73C85.5633 81.9752 85.3287 83.2106 84.8601 84.3643C84.3914 85.518 83.6979 86.5669 82.82 87.45C80.7681 89.4865 78.2425 90.9812 75.47 91.8C72.1536 92.8365 68.6943 93.3428 65.22 93.3C59.3341 93.3205 53.5102 92.0972 48.13 89.71L52.13 80.14C54.0684 80.9264 56.0776 81.5258 58.13 81.93C60.0653 82.3267 62.0345 82.5343 64.01 82.55C65.8658 82.6201 67.7157 82.2999 69.44 81.61C70.0309 81.4223 70.549 81.0562 70.9233 80.5619C71.2976 80.0677 71.5095 79.4696 71.53 78.85C71.53 77.1967 70.1767 76.3734 67.47 76.38H56.37V66.38H66.3C67.2343 66.4422 68.1654 66.219 68.97 65.74C69.2635 65.5387 69.501 65.266 69.6602 64.9476C69.8193 64.6293 69.895 64.2756 69.88 63.92C69.8746 63.4129 69.7187 62.9188 69.4321 62.5004C69.1454 62.082 68.741 61.7582 68.27 61.57C66.9341 60.9652 65.4753 60.681 64.01 60.74C62.2047 60.7621 60.4086 61.0004 58.66 61.45C56.7709 61.9105 54.9395 62.5813 53.2 63.45L49.2 53.17C53.8479 51.0665 58.8985 50.0018 64 50.05C67.3566 50.0194 70.6972 50.5154 73.9 51.52C76.6375 52.3256 79.1367 53.788 81.18 55.78C82.669 57.2729 83.6097 59.2253 83.8493 61.3202C84.0889 63.4151 83.6134 65.5294 82.5 67.32C81.5279 68.841 80.1725 70.0792 78.57 70.91C80.6195 71.7094 82.399 73.0761 83.7 74.85Z" fill="url(#paint3_linear_62_172)"/>
<path d="M118.47 85.13H102.84L100.08 92.3H85.98L103.98 51.18H117.61L135.61 92.3H121.23L118.47 85.13ZM114.65 75.13L110.65 64.79L106.65 75.13H114.65Z" fill="url(#paint4_linear_62_172)"/>
<path d="M184.7 81.55V100.35H172.03V92.3H139.03V51.18H152.7V81.55H165.7V51.18H179.33V81.55H184.7Z" fill="url(#paint5_linear_62_172)"/>
<path d="M189.44 51.18H203.07V72.56L217.23 51.18H230.23V92.3H216.64V70.99L202.54 92.31H189.44V51.18Z" fill="url(#paint6_linear_62_172)"/>
<path d="M273.7 51.18V92.3H260.05V82.55H256.35L250.06 92.3H235.55L243.7 80.55C241.174 79.4252 239.037 77.5775 237.56 75.24C236.381 73.3841 235.618 71.2949 235.324 69.1161C235.029 66.9372 235.211 64.7204 235.855 62.6183C236.499 60.5162 237.591 58.5786 239.056 56.9389C240.521 55.2992 242.324 53.9964 244.34 53.12C247.534 51.762 250.98 51.1006 254.45 51.18H273.7ZM249.38 66.86C249.38 70.3533 251.14 72.0966 254.66 72.09H260.07V61.87H254.66C251.12 61.87 249.36 63.54 249.36 66.86H249.38Z" fill="url(#paint7_linear_62_172)"/>
</g>
<defs>
<linearGradient id="paint0_linear_62_172" x1="-33.3" y1="20.74" x2="304.04" y2="20.74" gradientUnits="userSpaceOnUse">
<stop offset="0.08" stop-color="#B32DFF"/>
<stop offset="1" stop-color="#00FFFF"/>
</linearGradient>
<linearGradient id="paint1_linear_62_172" x1="-33.3" y1="20.74" x2="304.04" y2="20.74" gradientUnits="userSpaceOnUse">
<stop offset="0.08" stop-color="#B32DFF"/>
<stop offset="1" stop-color="#00FFFF"/>
</linearGradient>
<linearGradient id="paint2_linear_62_172" x1="-53.3" y1="71.74" x2="304.04" y2="71.74" gradientUnits="userSpaceOnUse">
<stop offset="0.08" stop-color="#B32DFF"/>
<stop offset="1" stop-color="#00FFFF"/>
</linearGradient>
<linearGradient id="paint3_linear_62_172" x1="-53.3" y1="71.68" x2="304.04" y2="71.68" gradientUnits="userSpaceOnUse">
<stop offset="0.08" stop-color="#B32DFF"/>
<stop offset="1" stop-color="#00FFFF"/>
</linearGradient>
<linearGradient id="paint4_linear_62_172" x1="-53.3" y1="71.74" x2="304.04" y2="71.74" gradientUnits="userSpaceOnUse">
<stop offset="0.08" stop-color="#B32DFF"/>
<stop offset="1" stop-color="#00FFFF"/>
</linearGradient>
<linearGradient id="paint5_linear_62_172" x1="-53.3" y1="75.76" x2="304.04" y2="75.76" gradientUnits="userSpaceOnUse">
<stop offset="0.08" stop-color="#B32DFF"/>
<stop offset="1" stop-color="#00FFFF"/>
</linearGradient>
<linearGradient id="paint6_linear_62_172" x1="-53.3" y1="71.74" x2="304.04" y2="71.74" gradientUnits="userSpaceOnUse">
<stop offset="0.08" stop-color="#B32DFF"/>
<stop offset="1" stop-color="#00FFFF"/>
</linearGradient>
<linearGradient id="paint7_linear_62_172" x1="-53.3001" y1="71.74" x2="304.04" y2="71.74" gradientUnits="userSpaceOnUse">
<stop offset="0.08" stop-color="#B32DFF"/>
<stop offset="1" stop-color="#00FFFF"/>
</linearGradient>
<clipPath id="clip0_62_172">
<rect width="274" height="101" fill="white"/>
</clipPath>
</defs>
</svg>
