<svg width="277" height="118" viewBox="0 0 277 118" fill="none" xmlns="http://www.w3.org/2000/svg">
<g clip-path="url(#clip0_67_256)">
<path d="M44.1899 0.944214V42.0642H30.3199V26.9042H17.5199V42.0642H3.65991V0.944214H17.5199V15.5142H30.3199V0.944214H44.1899Z" fill="url(#paint0_linear_67_256)"/>
<path d="M80.1299 34.8942H64.5099L61.7499 42.0642H47.6499L65.6499 0.944214H79.2799L97.2799 42.0642H82.8899L80.1299 34.8942ZM76.3099 24.8942L72.3099 14.5542L68.3099 24.8942H76.3099Z" fill="url(#paint1_linear_67_256)"/>
<path d="M107.4 40.2742C104.008 38.5421 101.167 35.8958 99.2 32.6342C97.2608 29.2453 96.2407 25.4086 96.2407 21.5042C96.2407 17.5997 97.2608 13.763 99.2 10.3742C101.167 7.11256 104.008 4.46621 107.4 2.73416C111.035 0.878707 115.069 -0.0585729 119.15 0.00416775C122.823 -0.061869 126.468 0.657519 129.84 2.11417C132.897 3.46557 135.563 5.56725 137.59 8.22417L128.84 16.0442C126.287 12.8375 123.287 11.2308 119.84 11.2242C118.542 11.1668 117.247 11.3859 116.04 11.8669C114.833 12.3479 113.743 13.0798 112.84 14.0142C111.127 16.1386 110.193 18.7853 110.193 21.5142C110.193 24.243 111.127 26.8897 112.84 29.0142C113.743 29.9485 114.833 30.6804 116.04 31.1614C117.247 31.6424 118.542 31.8615 119.84 31.8042C123.293 31.8042 126.293 30.1975 128.84 26.9842L137.59 34.7542C135.565 37.4139 132.899 39.5162 129.84 40.8642C126.468 42.3243 122.824 43.047 119.15 42.9842C115.071 43.0531 111.037 42.1227 107.4 40.2742Z" fill="url(#paint2_linear_67_256)"/>
<path d="M38.67 62.6942H26.59V93.0642H13V62.6942H1V51.9442H38.67V62.6942Z" stroke="white" stroke-miterlimit="10"/>
<path d="M72.2 53.8242C74.8744 54.9609 77.1553 56.8592 78.7587 59.2828C80.362 61.7065 81.2169 64.5482 81.2169 67.4542C81.2169 70.3601 80.362 73.2019 78.7587 75.6255C77.1553 78.0491 74.8744 79.9475 72.2 81.0842C69.0581 82.399 65.6751 83.0395 62.27 82.9642H56.34V93.0642H42.48V51.9442H62.27C65.6751 51.8689 69.0581 52.5094 72.2 53.8242ZM65.59 71.0042C66.4949 70.0417 66.9987 68.7703 66.9987 67.4492C66.9987 66.1281 66.4949 64.8567 65.59 63.8942C64.3831 62.9678 62.877 62.5192 61.36 62.6342H56.36V72.2642H61.36C62.8775 72.384 64.3853 71.9348 65.59 71.0042Z" stroke="white" stroke-miterlimit="10"/>
<path d="M95.03 91.2441C91.5909 89.4686 88.7067 86.781 86.6933 83.4756C84.6798 80.1702 83.6147 76.3745 83.6147 72.5041C83.6147 68.6338 84.6798 64.838 86.6933 61.5326C88.7067 58.2272 91.5909 55.5396 95.03 53.7641C98.743 51.948 102.822 51.0039 106.955 51.0039C111.088 51.0039 115.167 51.948 118.88 53.7641C122.322 55.5371 125.209 58.2238 127.225 61.5295C129.241 64.8353 130.307 68.6323 130.307 72.5041C130.307 76.3759 129.241 80.173 127.225 83.4787C125.209 86.7844 122.322 89.4711 118.88 91.2441C115.167 93.0602 111.088 94.0043 106.955 94.0043C102.822 94.0043 98.743 93.0602 95.03 91.2441ZM111.63 81.5241C113.047 80.6568 114.196 79.4142 114.95 77.9341C115.76 76.2385 116.18 74.3832 116.18 72.5041C116.18 70.625 115.76 68.7698 114.95 67.0741C114.192 65.5964 113.044 64.3547 111.63 63.4841C110.212 62.6584 108.601 62.2234 106.96 62.2234C105.319 62.2234 103.708 62.6584 102.29 63.4841C100.876 64.3547 99.7276 65.5964 98.97 67.0741C98.1602 68.7698 97.7399 70.625 97.7399 72.5041C97.7399 74.3832 98.1602 76.2385 98.97 77.9341C99.7242 79.4142 100.873 80.6568 102.29 81.5241C103.708 82.3498 105.319 82.7848 106.96 82.7848C108.601 82.7848 110.212 82.3498 111.63 81.5241Z" stroke="white" stroke-miterlimit="10"/>
<path d="M135.01 51.9441H148.64V73.3241L162.79 51.9441H175.79V93.0641H162.21V71.7541L148.11 93.0741H135.01V51.9441ZM145.59 47.0641C143.59 45.3841 142.59 42.8541 142.59 39.4941H151.81C151.715 40.5151 151.996 41.5356 152.6 42.3641C152.978 42.6981 153.421 42.9497 153.901 43.103C154.382 43.2562 154.889 43.3077 155.39 43.2541C155.9 43.3036 156.416 43.2503 156.905 43.0975C157.395 42.9446 157.848 42.6953 158.24 42.3641C158.884 41.5535 159.189 40.5248 159.09 39.4941H168.32C168.32 42.8541 167.32 45.3841 165.26 47.0641C163.2 48.7441 159.94 49.5941 155.39 49.5941C150.84 49.5941 147.59 48.7541 145.59 47.0641Z" stroke="white" stroke-miterlimit="10"/>
<path d="M217.59 62.6342L211.91 71.9142L224.07 93.0642H208.45L200.59 78.2042H196.71V93.0642H182.84V51.9442H196.7V67.2742H200.93L209.68 51.9442H212.68" stroke="white" stroke-miterlimit="10"/>
<path d="M251.42 51.9442H257.59L275.59 93.0642H261.26L258.5 85.8942H242.87L240.11 93.0642H226.01L239.8 61.5142M254.68 75.9142L250.68 65.5742L246.68 75.9142H254.68Z" stroke="white" stroke-miterlimit="10"/>
<path d="M15.8799 102.284V113.494H14.3599V103.624H7.35994V113.494H5.80994V102.284H15.8799Z" fill="white"/>
<path d="M28.5899 102.904C29.4315 103.369 30.1247 104.063 30.5899 104.904C31.0692 105.823 31.3196 106.843 31.3196 107.879C31.3196 108.915 31.0692 109.936 30.5899 110.854C30.1256 111.696 29.4322 112.39 28.5899 112.854C27.7103 113.334 26.7218 113.578 25.7199 113.564C24.8671 113.576 24.0238 113.384 23.2599 113.004C22.5216 112.623 21.8997 112.049 21.4599 111.344V117.594H19.9299V102.284H21.3799V104.494C21.8184 103.778 22.4396 103.191 23.1799 102.794C23.9601 102.386 24.8298 102.18 25.7099 102.194C26.7151 102.179 27.7072 102.423 28.5899 102.904ZM27.7399 111.754C28.3788 111.397 28.9 110.862 29.2399 110.214C29.6079 109.511 29.7936 108.727 29.7799 107.934C29.7957 107.141 29.6099 106.356 29.2399 105.654C28.8941 105.01 28.3743 104.477 27.7399 104.114C27.0864 103.747 26.3495 103.554 25.5999 103.554C24.8504 103.554 24.1135 103.747 23.4599 104.114C22.8305 104.48 22.3148 105.013 21.9699 105.654C21.5965 106.355 21.4072 107.14 21.4199 107.934C21.4098 108.728 21.5989 109.512 21.9699 110.214C22.309 110.859 22.8262 111.394 23.4599 111.754C24.1156 112.115 24.8517 112.304 25.5999 112.304C26.3482 112.304 27.0843 112.115 27.7399 111.754Z" fill="white"/>
<path d="M36.42 112.874C35.5903 112.393 34.9009 111.704 34.42 110.874C33.9342 109.969 33.6799 108.957 33.6799 107.929C33.6799 106.902 33.9342 105.89 34.42 104.984C34.8931 104.149 35.5844 103.457 36.42 102.984C37.3205 102.505 38.3249 102.255 39.3449 102.255C40.365 102.255 41.3694 102.505 42.27 102.984C43.1089 103.453 43.8013 104.145 44.27 104.984C44.7557 105.89 45.01 106.902 45.01 107.929C45.01 108.957 44.7557 109.969 44.27 110.874C43.794 111.708 43.1034 112.398 42.27 112.874C41.3694 113.353 40.365 113.604 39.3449 113.604C38.3249 113.604 37.3205 113.353 36.42 112.874ZM41.49 111.754C42.1229 111.396 42.6373 110.861 42.9699 110.214C43.3187 109.503 43.5 108.721 43.5 107.929C43.5 107.137 43.3187 106.355 42.9699 105.644C42.6373 104.998 42.1229 104.462 41.49 104.104C40.8325 103.744 40.0948 103.555 39.3449 103.555C38.5951 103.555 37.8574 103.744 37.2 104.104C36.5662 104.464 36.0491 104.999 35.71 105.644C35.3467 106.351 35.1573 107.134 35.1573 107.929C35.1573 108.724 35.3467 109.507 35.71 110.214C36.0491 110.86 36.5662 111.394 37.2 111.754C37.8574 112.115 38.5951 112.304 39.3449 112.304C40.0948 112.304 40.8325 112.115 41.49 111.754Z" fill="white"/>
<path d="M60.28 111.984C58.8878 113.069 57.1645 113.641 55.4 113.604V117.604H53.93V113.604C52.1706 113.637 50.4539 113.061 49.07 111.974C48.4964 111.456 48.0453 110.816 47.7496 110.102C47.4538 109.388 47.3207 108.616 47.36 107.844C47.3212 107.081 47.4548 106.319 47.7508 105.614C48.0468 104.91 48.4977 104.281 49.07 103.774C50.4644 102.71 52.1763 102.147 53.93 102.174V97.6542H55.4V102.174C57.1616 102.156 58.8788 102.726 60.28 103.794C60.8584 104.292 61.315 104.916 61.6149 105.618C61.9148 106.32 62.0499 107.082 62.01 107.844C62.0512 108.62 61.917 109.395 61.6175 110.112C61.318 110.828 60.8609 111.468 60.28 111.984ZM50.14 110.984C51.2272 111.818 52.5599 112.268 53.93 112.264V103.514C52.5672 103.506 51.2394 103.945 50.15 104.764C49.7157 105.147 49.3733 105.622 49.1483 106.156C48.9232 106.689 48.8212 107.266 48.85 107.844C48.8186 108.433 48.918 109.022 49.141 109.569C49.3641 110.115 49.7052 110.605 50.14 111.004V110.984ZM59.21 110.984C59.6484 110.587 59.9933 110.098 60.2198 109.551C60.4464 109.005 60.5489 108.415 60.52 107.824C60.5498 107.244 60.4474 106.664 60.2205 106.128C59.9935 105.593 59.648 105.116 59.21 104.734C58.1078 103.919 56.7708 103.484 55.4 103.494V112.244C56.7693 112.265 58.1076 111.837 59.21 111.024V110.984Z" fill="white"/>
<path d="M65.1799 102.284H66.6999V111.194L74.1799 102.284H75.5299V113.494H74.0099V104.584L66.5899 113.494H65.2199L65.1799 102.284Z" fill="white"/>
<path d="M89.1199 102.284V113.494H87.5899V103.624H82.2099L82.0599 106.394C82.0318 108.216 81.7594 110.025 81.2499 111.774C81.1438 112.301 80.8589 112.775 80.4433 113.116C80.0278 113.457 79.5073 113.643 78.9699 113.644C78.6006 113.637 78.2339 113.58 77.8799 113.474L77.9899 112.174C78.1633 112.221 78.3408 112.251 78.5199 112.264C78.7959 112.271 79.068 112.198 79.3038 112.054C79.5396 111.911 79.7292 111.703 79.8499 111.454C80.167 110.829 80.367 110.151 80.4399 109.454C80.5399 108.664 80.6299 107.604 80.6999 106.304L80.8899 102.304L89.1199 102.284Z" fill="white"/>
<path d="M101.93 102.284V113.494H100.59V109.754H96.59L93.99 113.464H92.34L95.14 109.544C94.3575 109.356 93.6563 108.921 93.14 108.304C92.6535 107.669 92.4057 106.883 92.44 106.084C92.4074 105.541 92.5068 104.998 92.7298 104.502C92.9527 104.006 93.2924 103.571 93.72 103.234C94.7421 102.519 95.9743 102.167 97.22 102.234L101.93 102.284ZM97.15 108.654H100.59V103.654H97.31C95.12 103.654 94.03 104.504 94.03 106.194C94.03 107.884 95.03 108.654 97.15 108.654Z" fill="white"/>
</g>
<defs>
<linearGradient id="paint0_linear_67_256" x1="0.259912" y1="21.5042" x2="147.01" y2="21.5042" gradientUnits="userSpaceOnUse">
<stop offset="0.08" stop-color="#B32DFF"/>
<stop offset="1" stop-color="#00FFFF"/>
</linearGradient>
<linearGradient id="paint1_linear_67_256" x1="0.259899" y1="21.5042" x2="147.01" y2="21.5042" gradientUnits="userSpaceOnUse">
<stop offset="0.08" stop-color="#B32DFF"/>
<stop offset="1" stop-color="#00FFFF"/>
</linearGradient>
<linearGradient id="paint2_linear_67_256" x1="0.259994" y1="21.5042" x2="147.01" y2="21.5042" gradientUnits="userSpaceOnUse">
<stop offset="0.08" stop-color="#B32DFF"/>
<stop offset="1" stop-color="#00FFFF"/>
</linearGradient>
<clipPath id="clip0_67_256">
<rect width="277" height="118" fill="white"/>
</clipPath>
</defs>
</svg>
