<svg width="300" height="62" viewBox="0 0 300 62" fill="none" xmlns="http://www.w3.org/2000/svg">
<g clip-path="url(#clip0_54_98)">
<path d="M15.8733 57.3063C11.051 54.8371 7.01321 51.0717 4.21377 46.4334C1.45261 41.6114 0 36.1513 0 30.5947C0 25.0381 1.45261 19.5781 4.21377 14.7561C7.01321 10.1178 11.051 6.3524 15.8733 3.88325C21.0463 1.24807 26.785 -0.082937 32.5899 0.0061025C37.8176 -0.0893377 43.005 0.93568 47.8035 3.01227C52.1574 4.93486 55.9553 7.92582 58.8449 11.7077L46.3847 22.8194C42.7604 18.2586 38.4993 15.9735 33.6013 15.9642C31.7565 15.8837 29.9156 16.1966 28.2008 16.882C26.4861 17.5674 24.9368 18.6097 23.6556 19.9396C21.2187 22.9562 19.8894 26.7169 19.8894 30.5947C19.8894 34.4726 21.2187 38.2333 23.6556 41.2498C24.9368 42.5798 26.4861 43.6221 28.2008 44.3075C29.9156 44.9929 31.7565 45.3058 33.6013 45.2253C38.5086 45.2253 42.7697 42.9402 46.3847 38.3701L58.8449 49.4817C55.9553 53.2637 52.1574 56.2546 47.8035 58.1772C43.0061 60.2586 37.8186 61.2885 32.5899 61.1974C26.7839 61.2821 21.0451 59.9463 15.8733 57.3063Z" stroke="url(#paint0_linear_54_98)" stroke-miterlimit="10"/>
<path d="M116.286 16.6385H99.1475V59.7927H79.7618V16.6385H62.6237V1.34064H116.286V16.6385Z" stroke="url(#paint1_linear_54_98)" stroke-miterlimit="10"/>
<path d="M157.796 49.6503H135.559L131.64 59.7927H111.58L137.16 1.28442H156.546L182.127 59.7927H161.73L157.796 49.6503ZM152.374 35.4482L146.685 20.7263L141.066 35.4482H152.374Z" stroke="url(#paint2_linear_54_98)" stroke-miterlimit="10"/>
<path d="M229.874 4.00968C233.68 5.62688 236.925 8.32784 239.206 11.7762C241.488 15.2245 242.704 19.2677 242.704 23.4024C242.704 27.537 241.488 31.5803 239.206 35.0286C236.925 38.4769 233.68 41.1779 229.874 42.7951C225.404 44.6708 220.589 45.585 215.743 45.4782H207.314V59.7927H187.647V1.34064H215.743C220.588 1.22942 225.403 2.13878 229.874 4.00968ZM220.505 28.4666C221.794 27.0982 222.512 25.2893 222.512 23.4094C222.512 21.5295 221.794 19.7206 220.505 18.3523C218.794 17.0266 216.65 16.3856 214.492 16.5542H207.3V30.2927H214.492C216.653 30.4466 218.794 29.7962 220.505 28.4666Z" stroke="url(#paint3_linear_54_98)" stroke-miterlimit="10"/>
<path d="M300 16.6385H282.876V59.7927H263.476V16.6385H246.338V1.34064H300V16.6385Z" stroke="url(#paint4_linear_54_98)" stroke-miterlimit="10"/>
</g>
<defs>
<linearGradient id="paint0_linear_54_98" x1="29.5416" y1="61.8858" x2="29.5416" y2="-0.696279" gradientUnits="userSpaceOnUse">
<stop stop-color="#E238AF"/>
<stop offset="1" stop-color="#FFB369"/>
</linearGradient>
<linearGradient id="paint1_linear_54_98" x1="89.5108" y1="60.5513" x2="89.5108" y2="0.638257" gradientUnits="userSpaceOnUse">
<stop stop-color="#E238AF"/>
<stop offset="1" stop-color="#FFB369"/>
</linearGradient>
<linearGradient id="paint2_linear_54_98" x1="146.853" y1="60.5512" x2="146.853" y2="0.638234" gradientUnits="userSpaceOnUse">
<stop stop-color="#E238AF"/>
<stop offset="1" stop-color="#FFB369"/>
</linearGradient>
<linearGradient id="paint3_linear_54_98" x1="214.984" y1="60.5513" x2="214.984" y2="0.638265" gradientUnits="userSpaceOnUse">
<stop stop-color="#E238AF"/>
<stop offset="1" stop-color="#FFB369"/>
</linearGradient>
<linearGradient id="paint4_linear_54_98" x1="273.169" y1="60.5513" x2="273.169" y2="0.638257" gradientUnits="userSpaceOnUse">
<stop stop-color="#E238AF"/>
<stop offset="1" stop-color="#FFB369"/>
</linearGradient>
<clipPath id="clip0_54_98">
<rect width="300" height="62" fill="white"/>
</clipPath>
</defs>
</svg>
