<svg width="340" height="356" viewBox="0 0 340 356" fill="none" xmlns="http://www.w3.org/2000/svg">
<path d="M77.7916 50.4462L107.874 102.793H69.2026L49.7266 66.0129H40.1288V102.793H5.81464V1.01367H40.1288V38.9708H50.5953L72.2571 1.01367H108.028L77.7916 50.4462Z" stroke="white" stroke-miterlimit="10"/>
<path d="M192.658 85.0545H153.986L147.149 102.793H112.26L156.705 1.01367H190.472L234.973 102.793H199.496L192.658 85.0545ZM183.214 60.3383L173.322 34.7533L163.43 60.3383H183.214Z" stroke="white" stroke-miterlimit="10"/>
<path d="M316.589 5.66555C323.208 8.47908 328.852 13.1774 332.82 19.1756C336.788 25.1737 338.904 32.2065 338.904 39.3982C338.904 46.5899 336.788 53.6227 332.82 59.6208C328.852 65.619 323.208 70.3173 316.589 73.1308C308.815 76.392 300.441 77.9771 292.013 77.7827H277.329V102.793H243.015V1.01375H292.055C300.468 0.833989 308.826 2.41861 316.589 5.66555ZM300.308 48.1904C302.549 45.8117 303.798 42.6666 303.798 39.3982C303.798 36.1298 302.549 32.9848 300.308 30.606C297.982 28.523 294.484 27.4814 289.813 27.4814H277.315V51.301H289.813C294.484 51.3196 297.982 50.2828 300.308 48.1904Z" stroke="white" stroke-miterlimit="10"/>
<path d="M93.3445 153.725H63.5421V228.896H29.8024V153.725H0V127.103H93.3445V153.725Z" fill="url(#paint0_linear_105_85)"/>
<path d="M102.256 127.117H135.981V180.066L171.01 127.145H203.237V228.924H169.567V176.115L134.678 228.896H102.256V127.117Z" fill="url(#paint1_linear_105_85)"/>
<path d="M320.863 127.117V228.896H286.549V191.388H254.855V228.896H220.541V127.117H254.855V163.253H286.549V127.117H320.863Z" fill="url(#paint2_linear_105_85)"/>
<path d="M77.7916 302.653L107.874 355H69.2026L49.7266 318.22H40.1288V355H5.81464V253.22H40.1288V291.178H50.5953L72.2571 253.22H108.028L77.7916 302.653Z" fill="url(#paint3_linear_105_85)"/>
<path d="M192.658 337.261H153.986L147.149 355H112.26L156.705 253.22H190.472L234.973 355H199.496L192.658 337.261ZM183.214 312.545L173.322 286.96L163.43 312.545H183.214Z" fill="url(#paint4_linear_105_85)"/>
<defs>
<linearGradient id="paint0_linear_105_85" x1="-9.56984" y1="178.007" x2="366.596" y2="178.007" gradientUnits="userSpaceOnUse">
<stop stop-color="#B32DFF"/>
<stop offset="1" stop-color="#00FFFF"/>
</linearGradient>
<linearGradient id="paint1_linear_105_85" x1="-9.56986" y1="178.007" x2="366.596" y2="178.007" gradientUnits="userSpaceOnUse">
<stop stop-color="#B32DFF"/>
<stop offset="1" stop-color="#00FFFF"/>
</linearGradient>
<linearGradient id="paint2_linear_105_85" x1="-9.56998" y1="178.007" x2="366.596" y2="178.007" gradientUnits="userSpaceOnUse">
<stop stop-color="#B32DFF"/>
<stop offset="1" stop-color="#00FFFF"/>
</linearGradient>
<linearGradient id="paint3_linear_105_85" x1="-9.56997" y1="304.11" x2="366.596" y2="304.11" gradientUnits="userSpaceOnUse">
<stop stop-color="#B32DFF"/>
<stop offset="1" stop-color="#00FFFF"/>
</linearGradient>
<linearGradient id="paint4_linear_105_85" x1="-9.56967" y1="304.11" x2="366.597" y2="304.11" gradientUnits="userSpaceOnUse">
<stop stop-color="#B32DFF"/>
<stop offset="1" stop-color="#00FFFF"/>
</linearGradient>
</defs>
</svg>
