<svg width="370" height="356" viewBox="0 0 370 356" fill="none" xmlns="http://www.w3.org/2000/svg">
<g clip-path="url(#clip0_105_73)">
<path d="M94.0874 27.5445H64.3608V102.503H30.7266V27.5445H1V1.02783H94.0874V27.5445Z" fill="url(#paint0_linear_105_73)"/>
<path d="M187.356 76.698V102.503H103.033V1H185.542V26.8188H136.695V38.7095H179.611V63.356H136.612V76.698H187.356Z" fill="url(#paint1_linear_105_73)"/>
<path d="M272.837 50.307L302.857 102.503H264.282L244.855 65.8123H235.282V102.503H201.075V1H235.282V38.849H245.721L267.325 1H302.997L272.837 50.307Z" fill="url(#paint2_linear_105_73)"/>
<path d="M29.7078 223.963C21.3539 219.684 14.3637 213.153 9.52728 205.108C4.72658 196.748 2.20038 187.276 2.20038 177.636C2.20038 167.995 4.72658 158.523 9.52728 150.163C14.3721 142.111 21.3782 135.578 29.7497 131.308C38.7208 126.726 48.6781 124.412 58.7505 124.568C67.8141 124.411 76.8068 126.19 85.1276 129.787C92.6761 133.121 99.2617 138.306 104.275 144.86L82.6295 164.119C76.3399 156.192 68.9432 152.229 60.4392 152.229C53.2937 152.229 47.5438 154.527 43.1895 159.123C38.8352 163.719 36.658 169.879 36.658 177.601C36.658 185.342 38.8352 191.506 43.1895 196.093C47.5438 200.68 53.2937 202.973 60.4392 202.973C68.9525 202.973 76.3492 199.014 82.6295 191.096L104.234 210.37C99.2293 216.954 92.643 222.167 85.0858 225.526C76.765 229.123 67.7723 230.903 58.7087 230.746C48.6327 230.889 38.6753 228.56 29.7078 223.963Z" stroke="white" stroke-miterlimit="10"/>
<path d="M202.736 153.415H173.009V228.387H139.319V153.415H109.593V126.898H202.68L202.736 153.415Z" stroke="white" stroke-miterlimit="10"/>
<path d="M234.514 223.879C226.02 219.503 218.895 212.872 213.921 204.713C208.946 196.555 206.315 187.184 206.315 177.629C206.315 168.073 208.946 158.703 213.921 150.544C218.895 142.386 226.02 135.754 234.514 131.378C243.678 126.896 253.746 124.565 263.947 124.565C274.149 124.565 284.217 126.896 293.381 131.378C301.879 135.751 309.008 142.381 313.986 150.54C318.963 158.699 321.597 168.071 321.597 177.629C321.597 187.186 318.963 196.559 313.986 204.718C309.008 212.876 301.879 219.506 293.381 223.879C284.219 228.37 274.151 230.704 263.947 230.704C253.744 230.704 243.676 228.37 234.514 223.879ZM275.475 199.889C278.968 197.75 281.803 194.688 283.667 191.04C285.67 186.853 286.71 182.27 286.71 177.629C286.71 172.987 285.67 168.404 283.667 164.217C281.798 160.577 278.964 157.521 275.475 155.383C271.978 153.335 267.999 152.257 263.947 152.257C259.895 152.257 255.917 153.335 252.42 155.383C248.931 157.521 246.097 160.577 244.227 164.217C242.224 168.404 241.185 172.987 241.185 177.629C241.185 182.27 242.224 186.853 244.227 191.04C246.095 194.685 248.929 197.746 252.42 199.889C255.919 201.927 259.897 203.001 263.947 203.001C267.998 203.001 271.975 201.927 275.475 199.889Z" stroke="white" stroke-miterlimit="10"/>
<path d="M98.7209 310.114C101.802 314.387 103.382 319.559 103.215 324.824C103.35 329.029 102.433 333.201 100.546 336.962C98.6599 340.722 95.8641 343.952 92.4127 346.358C85.2113 351.634 75.0373 354.267 61.8906 354.257H7.67108V252.768H59.1413C71.7018 252.768 81.4385 255.094 88.3515 259.746C91.6338 261.816 94.3177 264.708 96.1367 268.136C97.9557 271.563 98.8466 275.407 98.7209 279.285C98.8155 283.773 97.6347 288.197 95.3156 292.041C92.9318 295.823 89.6095 298.925 85.6719 301.043C90.8318 302.691 95.3778 305.852 98.7209 310.114ZM41.3053 291.776H55.8058C61.3882 291.776 64.1795 289.31 64.1795 284.379C64.1795 279.252 61.3882 276.689 55.8058 276.689H41.3053V291.776ZM68.7012 322.214C68.7012 316.994 65.91 314.385 60.3276 314.385H41.3053V330.336H60.2996C65.91 330.336 68.7012 327.629 68.7012 322.214Z" fill="url(#paint3_linear_105_73)"/>
<path d="M198.87 292.418C205.69 298.065 209.1 306.406 209.1 317.441C209.1 329.313 205.187 338.422 197.363 344.767C189.538 351.113 178.806 354.276 165.166 354.257H114.91V252.768H148.558V283.946H169.576C182.239 283.946 192.004 286.77 198.87 292.418ZM171.418 327.071C172.567 325.871 173.456 324.448 174.029 322.889C174.603 321.331 174.85 319.671 174.754 318.013C174.754 311.249 170.79 307.867 162.863 307.867H148.558V330.336H162.905C164.47 330.39 166.031 330.128 167.493 329.567C168.955 329.006 170.29 328.157 171.418 327.071ZM218.395 252.768H252.029V354.257H218.395V252.768Z" fill="url(#paint4_linear_105_73)"/>
<path d="M269.265 252.768H302.913V305.551L337.803 252.768H370V354.257H336.366V301.629L301.559 354.257H269.265V252.768ZM295.377 240.738C290.436 236.579 287.971 230.346 287.98 222.037H310.742C310.742 225.317 311.384 227.689 312.696 229.141C314.008 230.592 316.297 231.304 319.577 231.304C322.856 231.304 325.159 230.578 326.555 229.141C327.95 227.703 328.662 225.317 328.662 222.037H351.452C351.452 230.336 348.94 236.57 343.916 240.738C338.892 244.907 330.769 246.981 319.549 246.963C308.365 246.963 300.308 244.888 295.377 240.738Z" fill="url(#paint5_linear_105_73)"/>
</g>
<defs>
<linearGradient id="paint0_linear_105_73" x1="-30.9456" y1="51.7584" x2="418.386" y2="51.7584" gradientUnits="userSpaceOnUse">
<stop stop-color="#B32DFF"/>
<stop offset="1" stop-color="#00FFFF"/>
</linearGradient>
<linearGradient id="paint1_linear_105_73" x1="-30.9456" y1="51.7584" x2="418.386" y2="51.7584" gradientUnits="userSpaceOnUse">
<stop stop-color="#B32DFF"/>
<stop offset="1" stop-color="#00FFFF"/>
</linearGradient>
<linearGradient id="paint2_linear_105_73" x1="-30.9456" y1="51.7584" x2="418.386" y2="51.7584" gradientUnits="userSpaceOnUse">
<stop stop-color="#B32DFF"/>
<stop offset="1" stop-color="#00FFFF"/>
</linearGradient>
<linearGradient id="paint3_linear_105_73" x1="-30.9455" y1="303.513" x2="418.386" y2="303.513" gradientUnits="userSpaceOnUse">
<stop stop-color="#B32DFF"/>
<stop offset="1" stop-color="#00FFFF"/>
</linearGradient>
<linearGradient id="paint4_linear_105_73" x1="-30.9456" y1="303.513" x2="418.386" y2="303.513" gradientUnits="userSpaceOnUse">
<stop stop-color="#B32DFF"/>
<stop offset="1" stop-color="#00FFFF"/>
</linearGradient>
<linearGradient id="paint5_linear_105_73" x1="-30.9456" y1="288.147" x2="418.386" y2="288.147" gradientUnits="userSpaceOnUse">
<stop stop-color="#B32DFF"/>
<stop offset="1" stop-color="#00FFFF"/>
</linearGradient>
<clipPath id="clip0_105_73">
<rect width="370" height="356" fill="white"/>
</clipPath>
</defs>
</svg>
